{
.appVersion = "1361";
DisplayStrings = (
"/dotaccentcomb/odotaccentmacron",
"/longs",
V,
Z,
"/strokeshortcomb/strokeshortcomb/Zstroke",
z,
n
);
classes = (
{
automatic = 1;

glyphs = (
{
glyphname = A;
lastChange = "2019-10-29 01:12:50 +0000";
layers = (
{
anchors = (
{
name = btm;
position = "{578, 0}";
},
{
name = top;
position = "{564, 1660}";
}
);
layerId = "B61D43DE-5272-4FF4-A680-608B6BF5ED9E";
paths = (
{
closed = 1;
nodes = (
"246 0 LINE",
"532 776 LINE",
"598 1006 LINE",
"528 1006 LINE",
"598 776 LINE",
"896 0 LINE",
"1168 0 LINE",
"576 1418 LINE",
"556 1418 LINE",
"-34 0 LINE"
);
},
{
closed = 1;
nodes = (
"878 202 LINE",
"868 396 LINE",
"270 396 LINE",
"262 202 LINE"
);
}
);
width = 1134;
}
);
leftKerningGroup = A;
rightKerningGroup = A;
unicode = 0041;
},
{
color = 1;
glyphname = "Alpha-latin";
lastChange = "2021-12-06 07:33:41 +0000";
layers = (
{
anchors = (
{
name = btm;
position = "{1511, 0}";
},
{
name = car;
position = "{1887, 1660}";
},
{
name = top;
position = "{1561, 1800}";
},
{
name = vslash;
position = "{634, 690}";
}
);
layerId = "B61D43DE-5272-4FF4-A680-608B6BF5ED9E";
paths = (
{
closed = 1;
nodes = (
"1352 -24 OFFCURVE",
"1436 12 OFFCURVE",
"1460 48 CURVE",
"1408 239 LINE",
"1368 211 OFFCURVE",
"1340 185 OFFCURVE",
"1285 185 CURVE SMOOTH",
"1254 185 OFFCURVE",
"1205 191 OFFCURVE",
"1205 323 CURVE SMOOTH",
"1205 1394 LINE",
"959 1394 LINE",
"959 323 LINE SMOOTH",
"959 104 OFFCURVE",
"1036 -24 OFFCURVE",
"1201 -24 CURVE SMOOTH"
);
},
{
closed = 1;
nodes = (
"864 -24 OFFCURVE",
"961 53 OFFCURVE",
"1017 147 CURVE",
"1040 221 LINE",
"959 323 LINE",
"877 237 OFFCURVE",
"776 204 OFFCURVE",
"650 204 CURVE SMOOTH",
"486 204 OFFCURVE",
"352 382 OFFCURVE",
"352 730 CURVE SMOOTH",
"352 996 OFFCURVE",
"468 1188 OFFCURVE",
"672 1188 CURVE SMOOTH",
"806 1188 OFFCURVE",
"854 1165 OFFCURVE",
"966 1084 CURVE",
"1036 1153 LINE",
"1020 1294 LINE",
"968 1342 OFFCURVE",
"882 1418 OFFCURVE",
"662 1418 CURVE SMOOTH",
"338 1418 OFFCURVE",
"74 1172 OFFCURVE",
"74 716 CURVE SMOOTH",
"74 208 OFFCURVE",
"350 -24 OFFCURVE",
"640 -24 CURVE SMOOTH"
);
}
);
width = 1480;
}
);
leftMetricsKey = C;
rightMetricsKey = "=|esh";
unicode = 2C6D;
},
{
color = 4;
glyphname = Aogonek;
lastChange = "2021-12-06 03:54:30 +0000";
layers = (
{
anchors = (
{
name = btm;
position = "{578, 0}";
},
{
name = top;
position = "{564, 1660}";
}
);
layerId = "B61D43DE-5272-4FF4-A680-608B6BF5ED9E";
paths = (
{
closed = 1;
nodes = (
"910 -122 OFFCURVE",
"1020 -37 OFFCURVE",
"1167 2 CURVE",
"576 1418 LINE",
"556 1418 LINE",
"-34 0 LINE",
"246 0 LINE",
"320 202 LINE",
"818 202 LINE",
"896 0 LINE",
"783 -41 OFFCURVE",
"704 -138 OFFCURVE",
"704 -256 CURVE SMOOTH",
"704 -398 OFFCURVE",
"794 -480 OFFCURVE",
"1002 -480 CURVE SMOOTH",
"1071 -480 OFFCURVE",
"1130 -468 OFFCURVE",
"1170 -449 CURVE",
"1170 -268 LINE",
"1122 -291 OFFCURVE",
"1074 -298 OFFCURVE",
"1034 -298 CURVE SMOOTH",
"956 -298 OFFCURVE",
"910 -270 OFFCURVE",
"910 -202 CURVE SMOOTH"
);
},
{
closed = 1;
nodes = (
"564 888 LINE",
"598 776 LINE",
"744 396 LINE",
"392 396 LINE",
"532 776 LINE"
);
}
);
width = 1172;
}
);
leftKerningGroup = A;
rightKerningGroup = A;
unicode = 0104;
},
{
glyphname = Aring;
lastChange = "2019-10-28 18:28:25 +0000";
layers = (
{
components = (
{
name = A;
}
);
layerId = "B61D43DE-5272-4FF4-A680-608B6BF5ED9E";
paths = (
{
closed = 1;
nodes = (
"742 1342 OFFCURVE",
"868 1450 OFFCURVE",
"868 1604 CURVE SMOOTH",
"868 1756 OFFCURVE",
"742 1866 OFFCURVE",
"594 1866 CURVE SMOOTH",
"446 1866 OFFCURVE",
"320 1760 OFFCURVE",
"320 1604 CURVE SMOOTH",
"320 1450 OFFCURVE",
"446 1342 OFFCURVE",
"594 1342 CURVE SMOOTH"
);
},
{
closed = 1;
nodes = (
"526 1470 OFFCURVE",
"466 1514 OFFCURVE",
"466 1606 CURVE SMOOTH",
"466 1704 OFFCURVE",
"526 1740 OFFCURVE",
"594 1740 CURVE SMOOTH",
"662 1740 OFFCURVE",
"722 1702 OFFCURVE",
"722 1606 CURVE SMOOTH",
"722 1514 OFFCURVE",
"662 1470 OFFCURVE",
"594 1470 CURVE SMOOTH"
);
}
);
width = 1172;
}
);
leftKerningGroup = A;
rightKerningGroup = A;
unicode = 00C5;
},
{
glyphname = Aringacute;
lastChange = "2019-10-28 18:28:25 +0000";
layers = (
{
anchors = (
{
name = _top;
position = "{594, 1700}";
},
{
name = top;
position = "{634, 2046}";
}
);
components = (
{
name = A;
}
);
layerId = "B61D43DE-5272-4FF4-A680-608B6BF5ED9E";
paths = (
{
closed = 1;
nodes = (
"742 1348 OFFCURVE",
"870 1456 OFFCURVE",
"870 1610 CURVE SMOOTH",
"870 1760 OFFCURVE",
"742 1870 OFFCURVE",
"594 1870 CURVE SMOOTH",
"446 1870 OFFCURVE",
"320 1764 OFFCURVE",
"320 1610 CURVE SMOOTH",
"320 1456 OFFCURVE",
"446 1348 OFFCURVE",
"594 1348 CURVE SMOOTH"
);
},
{
closed = 1;
nodes = (
"528 1474 OFFCURVE",
"466 1518 OFFCURVE",
"466 1610 CURVE SMOOTH",
"466 1708 OFFCURVE",
"528 1746 OFFCURVE",
"594 1746 CURVE SMOOTH",
"662 1746 OFFCURVE",
"724 1708 OFFCURVE",
"724 1610 CURVE SMOOTH",
"724 1518 OFFCURVE",
"662 1474 OFFCURVE",
"594 1474 CURVE SMOOTH"
);
},
{
closed = 1;
nodes = (
"692 1788 LINE",
"874 2064 LINE",
"672 2064 LINE",
"536 1788 LINE"
);
}
);
width = 1172;
}
);
leftKerningGroup = A;
rightKerningGroup = A;
unicode = 01FA;
},
{
glyphname = AE;
lastChange = "2019-10-28 18:28:25 +0000";
layers = (
{
anchors = (
{
name = btm;
position = "{526, 0}";
},
{
name = top;
position = "{1076, 1660}";
}
);
layerId = "B61D43DE-5272-4FF4-A680-608B6BF5ED9E";
paths = (
{
closed = 1;
nodes = (
"294 0 LINE",
"720 828 LINE",
"834 1080 LINE",
"862 1394 LINE",
"788 1394 LINE",
"10 0 LINE"
);
},
{
closed = 1;
nodes = (
"968 314 LINE",
"968 500 LINE",
"376 500 LINE",
"292 314 LINE"
);
},
{
closed = 1;
nodes = (
"1596 0 LINE",
"1596 220 LINE",
"1040 220 LINE",
"1072 182 LINE",
"1072 672 LINE",
"1036 638 LINE",
"1458 638 LINE",
"1458 850 LINE",
"1036 850 LINE",
"1072 816 LINE",
"1072 1210 LINE",
"1040 1182 LINE",
"1556 1182 LINE",
"1556 1394 LINE",
"828 1394 LINE",
"828 0 LINE"
);
}
);
width = 1678;
}
);
leftKerningGroup = AE;
rightKerningGroup = E;
rightMetricsKey = E;
unicode = 00C6;
},
{
glyphname = B;
lastChange = "2021-12-06 01:42:20 +0000";
layers = (
{
anchors = (
{
name = bottom;
position = "{568, 0}";
},
{
name = top;
position = "{616, 1660}";
}
);
layerId = "B61D43DE-5272-4FF4-A680-608B6BF5ED9E";
paths = (
{
closed = 1;
nodes = (
"546 0 LINE SMOOTH",
"922 0 OFFCURVE",
"1080 156 OFFCURVE",
"1080 402 CURVE SMOOTH",
"1080 618 OFFCURVE",
"970 750 OFFCURVE",
"730 750 CURVE",
"706 708 LINE",
"926 708 OFFCURVE",
"1010 882 OFFCURVE",
"1010 1022 CURVE SMOOTH",
"1010 1258 OFFCURVE",
"868 1394 OFFCURVE",
"540 1394 CURVE SMOOTH",
"168 1394 LINE",
"168 0 LINE"
);
},
{
closed = 1;
nodes = (
"420 648 LINE",
"382 624 LINE",
"562 624 LINE SMOOTH",
"686 624 OFFCURVE",
"816 598 OFFCURVE",
"816 416 CURVE SMOOTH",
"816 236 OFFCURVE",
"694 202 OFFCURVE",
"574 202 CURVE SMOOTH",
"384 202 LINE",
"420 166 LINE"
);
},
{
closed = 1;
nodes = (
"420 1228 LINE",
"384 1196 LINE",
"540 1196 LINE SMOOTH",
"654 1196 OFFCURVE",
"762 1158 OFFCURVE",
"762 1014 CURVE SMOOTH",
"762 926 OFFCURVE",
"718 810 OFFCURVE",
"582 810 CURVE SMOOTH",
"382 810 LINE",
"420 774 LINE"
);
}
);
width = 1136;
}
);
leftKerningGroup = H;
leftMetricsKey = H;
rightKerningGroup = B;
unicode = 0042;
},
{
color = 1;
glyphname = Bhook;
lastChange = "2021-12-06 07:31:15 +0000";
layers = (
{
anchors = (
{
name = bottom;
position = "{833, 0}";
},
{
name = top;
position = "{881, 1660}";
}
);
layerId = "B61D43DE-5272-4FF4-A680-608B6BF5ED9E";
paths = (
{
closed = 1;
nodes = (
"811 0 LINE SMOOTH",
"1187 0 OFFCURVE",
"1345 156 OFFCURVE",
"1345 402 CURVE SMOOTH",
"1345 618 OFFCURVE",
"1235 750 OFFCURVE",
"995 750 CURVE",
"971 708 LINE",
"1191 708 OFFCURVE",
"1275 882 OFFCURVE",
"1275 1022 CURVE SMOOTH",
"1275 1258 OFFCURVE",
"1133 1394 OFFCURVE",
"805 1394 CURVE SMOOTH",
"433 1394 LINE",
"433 0 LINE"
);
},
{
closed = 1;
nodes = (
"685 648 LINE",
"647 624 LINE",
"827 624 LINE SMOOTH",
"951 624 OFFCURVE",
"1081 598 OFFCURVE",
"1081 416 CURVE SMOOTH",
"1081 236 OFFCURVE",
"959 202 OFFCURVE",
"839 202 CURVE SMOOTH",
"649 202 LINE",
"685 166 LINE"
);
},
{
closed = 1;
nodes = (
"685 1228 LINE",
"649 1196 LINE",
"805 1196 LINE SMOOTH",
"919 1196 OFFCURVE",
"1027 1158 OFFCURVE",
"1027 1014 CURVE SMOOTH",
"1027 926 OFFCURVE",
"983 810 OFFCURVE",
"847 810 CURVE SMOOTH",
"647 810 LINE",
"685 774 LINE"
);
},
{
closed = 1;
nodes = (
"129 1394 OFFCURVE",
"10 1255 OFFCURVE",
"10 1066 CURVE SMOOTH",
"10 945 OFFCURVE",
"69 847 OFFCURVE",
"99 823 CURVE",
"320 862 LINE",
"292 902 OFFCURVE",
"257 945 OFFCURVE",
"257 1036 CURVE SMOOTH",
"257 1121 OFFCURVE",
"303 1176 OFFCURVE",
"433 1176 CURVE",
"520 1271 LINE",
"433 1394 LINE"
);
}
);
width = 1401;
}
);
leftMetricsKey = Hhook;
rightMetricsKey = B;
unicode = 0181;
},
{
color = 1;
glyphname = Bstroke;
lastChange = "2022-05-07 02:50:23 +0000";
layers = (
{
anchors = (
{
name = bottom;
position = "{602, 0}";
},
{
name = top;
position = "{650, 1660}";
}
);
layerId = "B61D43DE-5272-4FF4-A680-608B6BF5ED9E";
paths = (
{
closed = 1;
nodes = (
"580 0 LINE SMOOTH",
"956 0 OFFCURVE",
"1114 156 OFFCURVE",
"1114 402 CURVE SMOOTH",
"1114 618 OFFCURVE",
"1004 750 OFFCURVE",
"764 750 CURVE",
"740 708 LINE",
"960 708 OFFCURVE",
"1044 882 OFFCURVE",
"1044 1022 CURVE SMOOTH",
"1044 1258 OFFCURVE",
"902 1394 OFFCURVE",
"574 1394 CURVE SMOOTH",
"202 1394 LINE",
"202 0 LINE"
);
},
{
closed = 1;
nodes = (
"454 648 LINE",
"416 624 LINE",
"596 624 LINE SMOOTH",
"720 624 OFFCURVE",
"850 598 OFFCURVE",
"850 416 CURVE SMOOTH",
"850 236 OFFCURVE",
"728 202 OFFCURVE",
"608 202 CURVE SMOOTH",
"418 202 LINE",
"454 166 LINE"
);
},
{
closed = 1;
nodes = (
"454 1228 LINE",
"418 1196 LINE",
"574 1196 LINE SMOOTH",
"688 1196 OFFCURVE",
"796 1158 OFFCURVE",
"796 1014 CURVE SMOOTH",
"796 926 OFFCURVE",
"752 810 OFFCURVE",
"616 810 CURVE SMOOTH",
"416 810 LINE",
"454 774 LINE"
);
},
{
closed = 1;
nodes = (
"416 624 LINE",
"416 810 LINE",
"42 806 LINE",
"42 624 LINE"
);
}
);
width = 1170;
}
);
leftMetricsKey = Eth;
rightMetricsKey = B;
unicode = "0243,0180";
},
{
glyphname = C;
lastChange = "2019-10-28 18:28:25 +0000";
layers = (
{
anchors = (
{
name = btm;
position = "{598, 0}";
},
{
name = top;
position = "{638, 1660}";
},
{
name = vslash;
position = "{634, 690}";
}
);
layerId = "B61D43DE-5272-4FF4-A680-608B6BF5ED9E";
paths = (
{
closed = 1;
nodes = (
"864 -24 OFFCURVE",
"966 48 OFFCURVE",
"1022 94 CURVE",
"912 292 LINE",
"868 246 OFFCURVE",
"776 204 OFFCURVE",
"650 204 CURVE SMOOTH",
"486 204 OFFCURVE",
"352 382 OFFCURVE",
"352 730 CURVE SMOOTH",
"352 996 OFFCURVE",
"468 1188 OFFCURVE",
"672 1188 CURVE SMOOTH",
"806 1188 OFFCURVE",
"850 1146 OFFCURVE",
"908 1084 CURVE",
"1020 1294 LINE",
"968 1342 OFFCURVE",
"882 1418 OFFCURVE",
"662 1418 CURVE SMOOTH",
"338 1418 OFFCURVE",
"74 1172 OFFCURVE",
"74 716 CURVE SMOOTH",
"74 208 OFFCURVE",
"350 -24 OFFCURVE",
"640 -24 CURVE SMOOTH"
);
}
);
width = 1054;
}
);
leftKerningGroup = O;
rightKerningGroup = C;
unicode = 0043;
userData = {
com.typemytype.robofont.mark = (
0.6,
1,
0.628,
1
);
};
},
{
color = 1;
glyphname = Chook;
lastChange = "2021-12-06 07:21:53 +0000";
layers = (
{
anchors = (
{
name = btm;
position = "{598, 0}";
},
{
name = top;
position = "{638, 1660}";
},
{
name = vslash;
position = "{634, 690}";
}
);
layerId = "B61D43DE-5272-4FF4-A680-608B6BF5ED9E";
paths = (
{
closed = 1;
nodes = (
"894 1157 LINE",
"1020 1294 LINE",
"1000 1475 OFFCURVE",
"1046 1560 OFFCURVE",
"1147 1560 CURVE SMOOTH",
"1202 1560 OFFCURVE",
"1230 1534 OFFCURVE",
"1270 1506 CURVE",
"1322 1697 LINE",
"1298 1733 OFFCURVE",
"1217 1778 OFFCURVE",
"1116 1778 CURVE SMOOTH",
"841 1778 OFFCURVE",
"801 1536 OFFCURVE",
"821 1312 CURVE"
);
},
{
closed = 1;
nodes = (
"864 -24 OFFCURVE",
"966 48 OFFCURVE",
"1022 94 CURVE",
"912 292 LINE",
"868 246 OFFCURVE",
"776 204 OFFCURVE",
"650 204 CURVE SMOOTH",
"486 204 OFFCURVE",
"352 382 OFFCURVE",
"352 730 CURVE SMOOTH",
"352 996 OFFCURVE",
"468 1188 OFFCURVE",
"672 1188 CURVE SMOOTH",
"806 1188 OFFCURVE",
"850 1146 OFFCURVE",
"908 1084 CURVE",
"1020 1294 LINE",
"968 1342 OFFCURVE",
"882 1418 OFFCURVE",
"662 1418 CURVE SMOOTH",
"338 1418 OFFCURVE",
"74 1172 OFFCURVE",
"74 716 CURVE SMOOTH",
"74 208 OFFCURVE",
"350 -24 OFFCURVE",
"640 -24 CURVE SMOOTH"
);
}
);
width = 1122;
}
);
leftMetricsKey = C;
unicode = 0187;
},
{
glyphname = D;
lastChange = "2019-10-28 18:28:25 +0000";
layers = (
{
anchors = (
{
name = btm;
position = "{582, 0}";
},
{
name = top;
position = "{646, 1660}";
}
);
layerId = "B61D43DE-5272-4FF4-A680-608B6BF5ED9E";
paths = (
{
closed = 1;
nodes = (
"520 0 LINE SMOOTH",
"930 0 OFFCURVE",
"1154 278 OFFCURVE",
"1154 714 CURVE SMOOTH",
"1154 1168 OFFCURVE",
"926 1394 OFFCURVE",
"522 1394 CURVE SMOOTH",
"162 1394 LINE",
"162 0 LINE"
);
},
{
closed = 1;
nodes = (
"420 1236 LINE",
"382 1194 LINE",
"514 1194 LINE SMOOTH",
"802 1194 OFFCURVE",
"894 960 OFFCURVE",
"894 708 CURVE SMOOTH",
"894 464 OFFCURVE",
"806 220 OFFCURVE",
"514 220 CURVE SMOOTH",
"386 220 LINE",
"420 176 LINE"
);
}
);
width = 1214;
}
);
leftKerningGroup = H;
rightKerningGroup = O;
unicode = 0044;
},
{
glyphname = Eth;
lastChange = "2021-12-06 03:39:48 +0000";
layers = (
{
anchors = (
{
name = btm;
position = "{582, 0}";
},
{
name = top;
position = "{646, 1660}";
}
);
layerId = "B61D43DE-5272-4FF4-A680-608B6BF5ED9E";
paths = (
{
closed = 1;
nodes = (
"676 632 LINE",
"676 802 LINE",
"42 802 LINE",
"42 632 LINE"
);
},
{
closed = 1;
nodes = (
"520 0 LINE SMOOTH",
"930 0 OFFCURVE",
"1154 278 OFFCURVE",
"1154 714 CURVE SMOOTH",
"1154 1168 OFFCURVE",
"926 1394 OFFCURVE",
"522 1394 CURVE SMOOTH",
"162 1394 LINE",
"162 0 LINE"
);
},
{
closed = 1;
nodes = (
"420 1236 LINE",
"382 1194 LINE",
"514 1194 LINE SMOOTH",
"802 1194 OFFCURVE",
"894 960 OFFCURVE",
"894 708 CURVE SMOOTH",
"894 464 OFFCURVE",
"806 220 OFFCURVE",
"514 220 CURVE SMOOTH",
"386 220 LINE",
"420 176 LINE"
);
}
);
width = 1214;
}
);
leftKerningGroup = H;
rightKerningGroup = O;
rightMetricsKey = D;
unicode = 00D0;
},
{
glyphname = Dcroat;
lastChange = "2022-05-07 02:50:23 +0000";
layers = (
{
components = (
{
name = D;
}
);
layerId = "B61D43DE-5272-4FF4-A680-608B6BF5ED9E";
paths = (
{
closed = 1;
nodes = (
"676 632 LINE",
"676 802 LINE",
"42 802 LINE",
"42 632 LINE"
);
}
);
width = 1214;
}
);
leftKerningGroup = H;
rightKerningGroup = O;
rightMetricsKey = D;
unicode = "0110,0111";
},
{
color = 1;
glyphname = Dhook;
lastChange = "2021-12-06 07:31:15 +0000";
layers = (
{
anchors = (
{
name = btm;
position = "{853, 0}";
},
{
name = top;
position = "{917, 1660}";
}
);
layerId = "B61D43DE-5272-4FF4-A680-608B6BF5ED9E";
paths = (
{
closed = 1;
nodes = (
"791 0 LINE SMOOTH",
"1201 0 OFFCURVE",
"1425 278 OFFCURVE",
"1425 714 CURVE SMOOTH",
"1425 1168 OFFCURVE",
"1197 1394 OFFCURVE",
"793 1394 CURVE SMOOTH",
"433 1394 LINE",
"433 0 LINE"
);
},
{
closed = 1;
nodes = (
"691 1236 LINE",
"653 1194 LINE",
"785 1194 LINE SMOOTH",
"1073 1194 OFFCURVE",
"1165 960 OFFCURVE",
"1165 708 CURVE SMOOTH",
"1165 464 OFFCURVE",
"1077 220 OFFCURVE",
"785 220 CURVE SMOOTH",
"657 220 LINE",
"691 176 LINE"
);
},
{
closed = 1;
nodes = (
"129 1394 OFFCURVE",
"10 1255 OFFCURVE",
"10 1066 CURVE SMOOTH",
"10 945 OFFCURVE",
"69 847 OFFCURVE",
"99 823 CURVE",
"320 862 LINE",
"292 902 OFFCURVE",
"257 945 OFFCURVE",
"257 1036 CURVE SMOOTH",
"257 1121 OFFCURVE",
"303 1176 OFFCURVE",
"433 1176 CURVE",
"520 1271 LINE",
"433 1394 LINE"
);
}
);
width = 1485;
}
);
leftMetricsKey = Hhook;
rightMetricsKey = D;
unicode = 018A;
},
{
glyphname = E;
lastChange = "2019-10-28 18:28:25 +0000";
layers = (
{
anchors = (
{
name = btm;
position = "{526, 0}";
},
{
name = top;
position = "{542, 1660}";
},
{
name = vslash;
position = "{512, 690}";
}
);
layerId = "B61D43DE-5272-4FF4-A680-608B6BF5ED9E";
paths = (
{
closed = 1;
nodes = (
"930 0 LINE",
"930 226 LINE",
"380 226 LINE",
"412 188 LINE",
"412 672 LINE",
"376 638 LINE",
"792 638 LINE",
"792 850 LINE",
"376 850 LINE",
"412 816 LINE",
"412 1204 LINE",
"380 1176 LINE",
"890 1176 LINE",
"890 1394 LINE",
"162 1394 LINE",
"162 0 LINE"
);
}
);
width = 1012;
}
);
leftKerningGroup = H;
rightKerningGroup = E;
unicode = 0045;
},
{
color = 4;
glyphname = Eogonek;
lastChange = "2021-12-06 03:55:26 +0000";
layers = (
{
anchors = (
{
name = btm;
position = "{526, 0}";
},
{
name = top;
position = "{542, 1660}";
},
{
name = vslash;
position = "{512, 690}";
}
);
layerId = "B61D43DE-5272-4FF4-A680-608B6BF5ED9E";
paths = (
{
closed = 1;
nodes = (
"672 -116 OFFCURVE",
"792 -34 OFFCURVE",
"932 0 CURVE",
"930 1 LINE",
"930 226 LINE",
"412 226 LINE",
"412 638 LINE",
"792 638 LINE",
"792 850 LINE",
"412 850 LINE",
"412 1176 LINE",
"890 1176 LINE",
"890 1394 LINE",
"162 1394 LINE",
"162 0 LINE",
"671 0 LINE",
"509 -54 OFFCURVE",
"446 -164 OFFCURVE",
"446 -256 CURVE SMOOTH",
"446 -398 OFFCURVE",
"556 -500 OFFCURVE",
"764 -500 CURVE SMOOTH",
"833 -500 OFFCURVE",
"892 -488 OFFCURVE",
"932 -469 CURVE",
"932 -268 LINE",
"884 -291 OFFCURVE",
"836 -298 OFFCURVE",
"796 -298 CURVE SMOOTH",
"718 -298 OFFCURVE",
"672 -270 OFFCURVE",
"672 -202 CURVE SMOOTH"
);
}
);
width = 1014;
}
);
leftKerningGroup = H;
leftMetricsKey = E;
rightKerningGroup = E;
rightMetricsKey = E;
unicode = 0118;
},
{
color = 1;
glyphname = Eopen;
lastChange = "2021-12-06 01:44:48 +0000";
layers = (
{
layerId = "B61D43DE-5272-4FF4-A680-608B6BF5ED9E";
paths = (
{
closed = 1;
nodes = (
"288 1428 OFFCURVE",
"56 1270 OFFCURVE",
"56 1006 CURVE SMOOTH",
"56 838 OFFCURVE",
"156 678 OFFCURVE",
"326 678 CURVE",
"178 640 OFFCURVE",
"94 480 OFFCURVE",
"94 328 CURVE SMOOTH",
"94 100 OFFCURVE",
"270 -30 OFFCURVE",
"546 -30 CURVE SMOOTH",
"756 -30 OFFCURVE",
"910 36 OFFCURVE",
"992 108 CURVE",
"892 320 LINE",
"820 240 OFFCURVE",
"678 198 OFFCURVE",
"600 198 CURVE SMOOTH",
"456 198 OFFCURVE",
"374 236 OFFCURVE",
"374 368 CURVE SMOOTH",
"374 490 OFFCURVE",
"452 580 OFFCURVE",
"616 580 CURVE SMOOTH",
"724 580 LINE",
"724 778 LINE",
"618 778 LINE SMOOTH",
"472 778 OFFCURVE",
"338 814 OFFCURVE",
"338 976 CURVE SMOOTH",
"338 1104 OFFCURVE",
"420 1200 OFFCURVE",
"600 1200 CURVE SMOOTH",
"706 1200 OFFCURVE",
"824 1158 OFFCURVE",
"900 1084 CURVE",
"984 1312 LINE",
"872 1392 OFFCURVE",
"726 1428 OFFCURVE",
"574 1428 CURVE SMOOTH"
);
}
);
width = 1024;
}
);
leftMetricsKey = "=|B";
rightMetricsKey = C;
unicode = 0190;
},
{
color = 1;
glyphname = Ereversed;
lastChange = "2021-12-06 01:44:10 +0000";
layers = (
{
anchors = (
{
name = btm;
position = "{486, 0}";
},
{
name = top;
position = "{470, 1660}";
},
{
name = vslash;
position = "{500, 690}";
}
);
layerId = "B61D43DE-5272-4FF4-A680-608B6BF5ED9E";
paths = (
{
closed = 1;
nodes = (
"850 1394 LINE",
"122 1394 LINE",
"122 1176 LINE",
"632 1176 LINE",
"600 1204 LINE",
"600 816 LINE",
"636 850 LINE",
"220 850 LINE",
"220 638 LINE",
"636 638 LINE",
"600 672 LINE",
"600 188 LINE",
"632 226 LINE",
"82 226 LINE",
"82 0 LINE",
"850 0 LINE"
);
}
);
width = 1012;
}
);
leftMetricsKey = "=|E";
rightMetricsKey = "=|E";
unicode = 018E;
},
{
color = 1;
glyphname = Esh;
lastChange = "2021-12-06 07:05:07 +0000";
layers = (
{
layerId = "B61D43DE-5272-4FF4-A680-608B6BF5ED9E";
paths = (
{
closed = 1;
nodes = (
"990 0 LINE",
"990 220 LINE",
"220 220 LINE",
"352 116 LINE",
"674 703 LINE",
"384 1214 LINE",
"220 1162 LINE",
"950 1162 LINE",
"950 1394 LINE",
"20 1394 LINE",
"424 661 LINE",
"424 745 LINE",
"20 0 LINE"
);
}
);
width = 1060;
}
);
unicode = 01A9;
},
{
color = 1;
glyphname = Ezh;
lastChange = "2021-12-06 07:07:07 +0000";
layers = (
{
layerId = "B61D43DE-5272-4FF4-A680-608B6BF5ED9E";
paths = (
{
closed = 1;
nodes = (
"369 610 LINE",
"575 631 OFFCURVE",
"798 622 OFFCURVE",
"798 429 CURVE SMOOTH",
"798 277 OFFCURVE",
"726 190 OFFCURVE",
"522 190 CURVE SMOOTH",
"369 190 OFFCURVE",
"242 253 OFFCURVE",
"194 283 CURVE",
"82 95 LINE",
"142 59 OFFCURVE",
"264 -25 OFFCURVE",
"546 -25 CURVE SMOOTH",
"846 -25 OFFCURVE",
"1032 180 OFFCURVE",
"1032 420 CURVE SMOOTH",
"1032 621 OFFCURVE",
"921 863 OFFCURVE",
"369 791 CURVE"
);
},
{
closed = 1;
nodes = (
"620 782 LINE",
"1066 1394 LINE",
"124 1394 LINE",
"124 1170 LINE",
"786 1170 LINE",
"756 1292 LINE",
"369 791 LINE"
);
}
);
width = 1132;
}
);
leftMetricsKey = "=|E";
rightMetricsKey = G;
unicode = 01B7;
},
{
glyphname = F;
lastChange = "2019-10-28 18:28:25 +0000";
layers = (
{
anchors = (
{
name = top;
position = "{528, 1660}";
}
);
layerId = "B61D43DE-5272-4FF4-A680-608B6BF5ED9E";
paths = (
{
closed = 1;
nodes = (
"424 0 LINE",
"424 614 LINE",
"388 584 LINE",
"836 584 LINE",
"836 808 LINE",
"388 808 LINE",
"424 772 LINE",
"424 1210 LINE",
"392 1174 LINE",
"896 1174 LINE",
"896 1394 LINE",
"168 1394 LINE",
"168 0 LINE"
);
}
);
width = 928;
}
);
leftKerningGroup = H;
leftMetricsKey = H;
rightKerningGroup = F;
unicode = 0046;
},
{
color = 1;
glyphname = Fhook;
lastChange = "2021-12-06 07:09:52 +0000";
layers = (
{
anchors = (
{
name = top;
position = "{541, 1660}";
}
);
layerId = "B61D43DE-5272-4FF4-A680-608B6BF5ED9E";
paths = (
{
closed = 1;
nodes = (
"437 -40 LINE",
"437 614 LINE",
"401 584 LINE",
"849 584 LINE",
"849 808 LINE",
"401 808 LINE",
"437 772 LINE",
"437 1210 LINE",
"405 1174 LINE",
"909 1174 LINE",
"909 1394 LINE",
"181 1394 LINE",
"181 -40 LINE"
);
},
{
closed = 1;
nodes = (
"266 67 LINE",
"181 -40 LINE",
"181 -145 OFFCURVE",
"134 -178 OFFCURVE",
"33 -178 CURVE SMOOTH",
"-42 -178 OFFCURVE",
"-70 -152 OFFCURVE",
"-110 -124 CURVE",
"-180 -315 LINE",
"-156 -351 OFFCURVE",
"-54 -405 OFFCURVE",
"77 -405 CURVE SMOOTH",
"322 -405 OFFCURVE",
"439 -259 OFFCURVE",
"437 -40 CURVE"
);
}
);
width = 941;
}
);
rightMetricsKey = F;
unicode = 0191;
},
{
color = 3;
glyphname = G;
lastChange = "2021-12-06 04:01:16 +0000";
layers = (
{
anchors = (
{
name = btm;
position = "{672, 0}";
},
{
name = top;
position = "{684, 1660}";
}
);
layerId = "B61D43DE-5272-4FF4-A680-608B6BF5ED9E";
paths = (
{
closed = 1;
nodes = (
"1098 -36 OFFCURVE",
"1192 252 OFFCURVE",
"1192 554 CURVE SMOOTH",
"1192 610 OFFCURVE",
"1186 686 OFFCURVE",
"1180 748 CURVE",
"658 748 LINE",
"658 528 LINE",
"1032 528 LINE",
"936 594 LINE",
"942 550 OFFCURVE",
"946 510 OFFCURVE",
"946 474 CURVE SMOOTH",
"946 288 OFFCURVE",
"868 188 OFFCURVE",
"662 188 CURVE SMOOTH",
"470 188 OFFCURVE",
"342 382 OFFCURVE",
"342 716 CURVE SMOOTH",
"342 992 OFFCURVE",
"494 1182 OFFCURVE",
"696 1182 CURVE SMOOTH",
"886 1182 OFFCURVE",
"958 1112 OFFCURVE",
"988 1072 CURVE",
"1098 1294 LINE",
"1046 1344 OFFCURVE",
"956 1418 OFFCURVE",
"692 1418 CURVE SMOOTH",
"330 1418 OFFCURVE",
"74 1124 OFFCURVE",
"74 710 CURVE SMOOTH",
"74 238 OFFCURVE",
"304 -36 OFFCURVE",
"658 -36 CURVE SMOOTH"
);
}
);
width = 1258;
}
);
leftKerningGroup = O;
rightKerningGroup = G;
unicode = 0047;
userData = {
com.typemytype.robofont.mark = (
0.6,
1,
0.628,
1
);
};
},
{
color = 4;
glyphname = Ghook;
lastChange = "2021-12-06 04:01:25 +0000";
layers = (
{
anchors = (
{
name = btm;
position = "{672, 0}";
},
{
name = top;
position = "{684, 1660}";
}
);
layerId = "B61D43DE-5272-4FF4-A680-608B6BF5ED9E";
paths = (
{
closed = 1;
nodes = (
"1069 1244 LINE",
"1045 1378 OFFCURVE",
"1102 1425 OFFCURVE",
"1181 1425 CURVE SMOOTH",
"1221 1425 OFFCURVE",
"1255 1407 OFFCURVE",
"1269 1389 CURVE",
"1269 1617 LINE",
"1264 1629 OFFCURVE",
"1214 1661 OFFCURVE",
"1146 1661 CURVE SMOOTH",
"981 1661 OFFCURVE",
"856 1575 OFFCURVE",
"856 1340 CURVE"
);
},
{
closed = 1;
nodes = (
"1098 -36 OFFCURVE",
"1192 252 OFFCURVE",
"1192 554 CURVE SMOOTH",
"1192 610 OFFCURVE",
"1186 686 OFFCURVE",
"1180 748 CURVE",
"658 748 LINE",
"658 528 LINE",
"1032 528 LINE",
"936 594 LINE",
"942 550 OFFCURVE",
"946 510 OFFCURVE",
"946 474 CURVE SMOOTH",
"946 288 OFFCURVE",
"868 188 OFFCURVE",
"662 188 CURVE SMOOTH",
"470 188 OFFCURVE",
"342 382 OFFCURVE",
"342 716 CURVE SMOOTH",
"342 992 OFFCURVE",
"494 1182 OFFCURVE",
"696 1182 CURVE SMOOTH",
"843 1182 OFFCURVE",
"915 1112 OFFCURVE",
"969 1072 CURVE",
"1069 1244 LINE",
"1017 1294 OFFCURVE",
"913 1418 OFFCURVE",
"692 1418 CURVE SMOOTH",
"330 1418 OFFCURVE",
"74 1124 OFFCURVE",
"74 710 CURVE SMOOTH",
"74 238 OFFCURVE",
"296 -36 OFFCURVE",
"658 -36 CURVE SMOOTH"
);
}
);
width = 1258;
}
);
unicode = 0193;
},
{
glyphname = H;
lastChange = "2019-10-28 18:28:25 +0000";
layers = (
{
anchors = (
{
name = btm;
position = "{652, 0}";
},
{
name = top;
position = "{656, 1660}";
}
);
layerId = "B61D43DE-5272-4FF4-A680-608B6BF5ED9E";
paths = (
{
closed = 1;
nodes = (
"426 0 LINE",
"426 620 LINE",
"392 592 LINE",
"918 592 LINE",
"886 620 LINE",
"886 0 LINE",
"1146 0 LINE",
"1146 1394 LINE",
"886 1394 LINE",
"886 776 LINE",
"916 812 LINE",
"392 812 LINE",
"426 778 LINE",
"426 1394 LINE",
"168 1394 LINE",
"168 0 LINE"
);
}
);
width = 1314;
}
);
leftKerningGroup = H;
rightKerningGroup = H;
unicode = 0048;
},
{
glyphname = Hbar;
lastChange = "2022-05-07 02:50:23 +0000";
layers = (
{
anchors = (
{
name = btm;
position = "{652, 0}";
},
{
name = top;
position = "{656, 1660}";
}
);
layerId = "B61D43DE-5272-4FF4-A680-608B6BF5ED9E";
paths = (
{
closed = 1;
nodes = (
"1262 998 LINE",
"1262 1166 LINE",
"28 1166 LINE",
"28 998 LINE"
);
},
{
closed = 1;
nodes = (
"426 0 LINE",
"426 540 LINE",
"392 512 LINE",
"918 512 LINE",
"886 540 LINE",
"886 0 LINE",
"1146 0 LINE",
"1146 1394 LINE",
"886 1394 LINE",
"886 696 LINE",
"916 732 LINE",
"392 732 LINE",
"426 698 LINE",
"426 1394 LINE",
"168 1394 LINE",
"168 0 LINE"
);
}
);
width = 1292;
}
);
leftKerningGroup = H;
rightKerningGroup = H;
unicode = "0126,0127";
},
{
color = 4;
glyphname = Hhook;
lastChange = "2021-12-06 07:24:47 +0000";
layers = (
{
anchors = (
{
name = btm;
position = "{917, 0}";
},
{
name = top;
position = "{921, 1660}";
}
);
layerId = "B61D43DE-5272-4FF4-A680-608B6BF5ED9E";
paths = (
{
closed = 1;
nodes = (
"129 1394 OFFCURVE",
"10 1255 OFFCURVE",
"10 1066 CURVE SMOOTH",
"10 945 OFFCURVE",
"69 847 OFFCURVE",
"99 823 CURVE",
"320 862 LINE",
"292 902 OFFCURVE",
"257 945 OFFCURVE",
"257 1036 CURVE SMOOTH",
"257 1121 OFFCURVE",
"303 1176 OFFCURVE",
"433 1176 CURVE",
"520 1271 LINE",
"433 1394 LINE"
);
},
{
closed = 1;
nodes = (
"691 0 LINE",
"691 620 LINE",
"657 592 LINE",
"1183 592 LINE",
"1151 620 LINE",
"1151 0 LINE",
"1411 0 LINE",
"1411 1394 LINE",
"1151 1394 LINE",
"1151 776 LINE",
"1181 812 LINE",
"657 812 LINE",
"691 778 LINE",
"691 1394 LINE",
"433 1394 LINE",
"433 0 LINE"
);
}
);
width = 1579;
}
);
rightMetricsKey = H;
unicode = A7AA;
},
{
color = 1;
glyphname = Hturned;
lastChange = "2022-05-07 02:24:03 +0000";
layers = (
{
anchors = (
{
name = btm;
position = "{652, 0}";
},
{
name = top;
position = "{656, 1660}";
}
);
layerId = "B61D43DE-5272-4FF4-A680-608B6BF5ED9E";
paths = (
{
closed = 1;
nodes = (
"168 592 LINE",
"918 592 LINE",
"886 620 LINE",
"886 0 LINE",
"1146 0 LINE",
"1146 1394 LINE",
"886 1394 LINE",
"886 776 LINE",
"916 812 LINE",
"392 812 LINE",
"426 778 LINE",
"426 1394 LINE",
"168 1394 LINE"
);
}
);
width = 1314;
}
);
rightMetricsKey = H;
unicode = "A78D,0265";
},
{
glyphname = I;
lastChange = "2019-10-28 18:28:25 +0000";
layers = (
{
anchors = (
{
name = btm;
position = "{290, 0}";
},
{
name = top;
position = "{292, 1660}";
}
);
layerId = "B61D43DE-5272-4FF4-A680-608B6BF5ED9E";
paths = (
{
closed = 1;
nodes = (
"418 0 LINE",
"418 1394 LINE",
"162 1394 LINE",
"162 0 LINE"
);
}
);
width = 580;
}
);
leftKerningGroup = I;
rightKerningGroup = I;
unicode = 0049;
},
{
color = 4;
glyphname = Iogonek;
lastChange = "2021-12-06 03:52:53 +0000";
layers = (
{
anchors = (
{
name = btm;
position = "{290, 0}";
},
{
name = top;
position = "{292, 1660}";
}
);
layerId = "B61D43DE-5272-4FF4-A680-608B6BF5ED9E";
paths = (
{
closed = 1;
nodes = (
"268 -298 OFFCURVE",
"222 -270 OFFCURVE",
"222 -202 CURVE SMOOTH",
"222 -93 OFFCURVE",
"286 -31 OFFCURVE",
"418 0 CURVE",
"418 1394 LINE",
"162 1394 LINE",
"162 0 LINE",
"72 -64 OFFCURVE",
"16 -154 OFFCURVE",
"16 -256 CURVE SMOOTH",
"16 -398 OFFCURVE",
"142 -480 OFFCURVE",
"314 -480 CURVE SMOOTH",
"383 -480 OFFCURVE",
"442 -468 OFFCURVE",
"482 -449 CURVE",
"482 -268 LINE",
"434 -291 OFFCURVE",
"386 -298 OFFCURVE",
"346 -298 CURVE SMOOTH"
);
}
);
width = 580;
}
);
leftKerningGroup = I;
widthMetricsKey = I;
rightKerningGroup = I;
unicode = 012E;
},
{
color = 1;
glyphname = Iotaafrican;
lastChange = "2021-12-06 03:53:06 +0000";
layers = (
{
anchors = (
{
name = bottom;
position = "{374, -1064}";
},
{
name = top;
position = "{265, 1661}";
}
);
layerId = "B61D43DE-5272-4FF4-A680-608B6BF5ED9E";
paths = (
{
closed = 1;
nodes = (
"150 321 LINE SMOOTH",
"150 64 OFFCURVE",
"301 0 OFFCURVE",
"466 0 CURVE SMOOTH",
"534 0 OFFCURVE",
"604 32 OFFCURVE",
"609 44 CURVE",
"609 272 LINE",
"595 254 OFFCURVE",
"561 236 OFFCURVE",
"521 236 CURVE SMOOTH",
"442 236 OFFCURVE",
"392 262 OFFCURVE",
"392 396 CURVE SMOOTH",
"392 1394 LINE",
"150 1394 LINE"
);
}
);
width = 629;
}
);
unicode = 0196;
},
{
glyphname = Istroke;
lastChange = "2021-12-06 01:48:21 +0000";
layers = (
{
anchors = (
{
name = btm;
position = "{396, 0}";
},
{
name = top;
position = "{398, 1660}";
}
);
layerId = "B61D43DE-5272-4FF4-A680-608B6BF5ED9E";
paths = (
{
closed = 1;
nodes = (
"524 0 LINE",
"524 1394 LINE",
"268 1394 LINE",
"268 0 LINE"
);
},
{
closed = 1;
nodes = (
"751 605 LINE",
"751 787 LINE",
"42 787 LINE",
"42 605 LINE"
);
}
);
width = 793;
}
);
leftMetricsKey = Eth;
rightMetricsKey = "=|";
unicode = 0197;
},
{
glyphname = J;
lastChange = "2019-10-28 18:28:25 +0000";
layers = (
{
anchors = (
{
name = top;
position = "{524, 1660}";
}
);
layerId = "B61D43DE-5272-4FF4-A680-608B6BF5ED9E";
paths = (
{
closed = 1;
nodes = (
"554 -30 OFFCURVE",
"654 170 OFFCURVE",
"654 418 CURVE SMOOTH",
"654 1394 LINE",
"394 1394 LINE",
"394 394 LINE SMOOTH",
"394 204 OFFCURVE",
"304 192 OFFCURVE",
"226 192 CURVE SMOOTH",
"174 192 OFFCURVE",
"116 222 OFFCURVE",
"82 272 CURVE",
"-14 34 LINE",
"34 0 OFFCURVE",
"166 -30 OFFCURVE",
"238 -30 CURVE SMOOTH"
);
}
);
width = 800;
}
);
leftKerningGroup = J;
rightKerningGroup = U;
unicode = 004A;
},
{
color = 3;
glyphname = K;
lastChange = "2019-10-28 18:28:25 +0000";
layers = (
{
anchors = (
{
name = btm;
position = "{622, 0}";
},
{
name = top;
position = "{610, 1660}";
}
);
layerId = "B61D43DE-5272-4FF4-A680-608B6BF5ED9E";
paths = (
{
closed = 1;
nodes = (
"1192 0 LINE",
"650 750 LINE",
"656 660 LINE",
"1160 1394 LINE",
"866 1394 LINE",
"412 684 LINE",
"872 0 LINE"
);
},
{
closed = 1;
nodes = (
"422 0 LINE",
"422 1394 LINE",
"168 1394 LINE",
"168 0 LINE"
);
}
);
width = 1192;
}
);
leftKerningGroup = H;
leftMetricsKey = H;
rightKerningGroup = K;
unicode = 004B;
},
{
color = 1;
glyphname = Khook;
lastChange = "2021-12-06 07:31:03 +0000";
layers = (
{
anchors = (
{
name = btm;
position = "{622, 0}";
},
{
name = top;
position = "{610, 1660}";
}
);
background = {
paths = (
{
closed = 1;
nodes = (
"1192 0 LINE",
"650 750 LINE",
"656 660 LINE",
"1160 1394 LINE",
"866 1394 LINE",
"412 684 LINE",
"872 0 LINE"
);
}
);
};
layerId = "B61D43DE-5272-4FF4-A680-608B6BF5ED9E";
paths = (
{
closed = 1;
nodes = (
"422 0 LINE",
"422 1394 LINE",
"168 1394 LINE",
"168 0 LINE"
);
},
{
closed = 1;
nodes = (
"997 1156 OFFCURVE",
"1035 1215 OFFCURVE",
"1103 1215 CURVE SMOOTH",
"1177 1215 OFFCURVE",
"1241 1142 OFFCURVE",
"1248 1112 CURVE",
"1360 1306 LINE",
"1329 1373 OFFCURVE",
"1260 1449 OFFCURVE",
"1097 1449 CURVE SMOOTH",
"911 1449 OFFCURVE",
"832 1342 OFFCURVE",
"650 1056 CURVE",
"903 1020 LINE"
);
},
{
closed = 1;
nodes = (
"1192 0 LINE",
"650 750 LINE",
"656 660 LINE",
"903 1020 LINE",
"929 1256 LINE",
"650 1056 LINE",
"412 684 LINE",
"872 0 LINE"
);
}
);
width = 1380;
}
);
unicode = 0198;
},
{
glyphname = L;
lastChange = "2019-10-28 18:28:25 +0000";
layers = (
{
anchors = (
{
name = btm;
position = "{482, 0}";
},
{
name = car;
position = "{664, 1660}";
},
{
name = top;
position = "{306, 1660}";
}
);
layerId = "B61D43DE-5272-4FF4-A680-608B6BF5ED9E";
paths = (
{
closed = 1;
nodes = (
"838 0 LINE",
"838 220 LINE",
"392 220 LINE",
"422 174 LINE",
"422 1394 LINE",
"168 1394 LINE",
"168 0 LINE"
);
}
);
width = 890;
}
);
leftKerningGroup = H;
leftMetricsKey = H;
rightKerningGroup = L;
unicode = 004C;
},
{
glyphname = Lslash;
lastChange = "2019-10-28 18:28:25 +0000";
layers = (
{
components = (
{
name = L;
transform = "{1, 0, 0, 1, 30, 0}";
}
);
layerId = "B61D43DE-5272-4FF4-A680-608B6BF5ED9E";
paths = (
{
closed = 1;
nodes = (
"740 794 LINE",
"740 1018 LINE",
"40 648 LINE",
"40 424 LINE"
);
}
);
width = 920;
}
);
leftKerningGroup = H;
rightKerningGroup = L;
rightMetricsKey = L;
unicode = 0141;
},
{
glyphname = M;
lastChange = "2019-10-28 18:28:25 +0000";
layers = (
{
anchors = (
{
name = btm;
position = "{750, 0}";
},
{
name = top;
position = "{750, 1660}";
}
);
layerId = "B61D43DE-5272-4FF4-A680-608B6BF5ED9E";
paths = (
{
closed = 1;
nodes = (
"416 0 LINE",
"416 598 LINE",
"398 1000 LINE",
"368 892 LINE",
"476 726 LINE",
"750 404 LINE",
"1024 726 LINE",
"1132 890 LINE",
"1102 1000 LINE",
"1086 598 LINE",
"1086 0 LINE",
"1334 0 LINE",
"1334 1418 LINE",
"1312 1418 LINE",
"722 718 LINE",
"782 718 LINE",
"188 1418 LINE",
"168 1418 LINE",
"168 0 LINE"
);
}
);
width = 1502;
}
);
leftKerningGroup = H;
leftMetricsKey = H;
rightKerningGroup = H;
rightMetricsKey = H;
unicode = 004D;
userData = {
com.typemytype.robofont.guides = (
{
angle = 0;
isGlobal = 0;
magnetic = 5;
x = 0;
y = 729;
},
{
angle = 90;
isGlobal = 0;
magnetic = 5;
x = 764;
y = 0;
}
);
com.typemytype.robofont.mark = (
0.6,
1,
0.628,
1
);
};
},
{
color = 4;
glyphname = N;
lastChange = "2021-12-06 17:17:48 +0000";
layers = (
{
anchors = (
{
name = bottom;
position = "{680, 0}";
},
{
name = top;
position = "{644, 1660}";
}
);
layerId = "B61D43DE-5272-4FF4-A680-608B6BF5ED9E";
paths = (
{
closed = 1;
nodes = (
"1154 -28 LINE",
"1154 1394 LINE",
"908 1394 LINE",
"908 750 LINE",
"928 378 LINE",
"1042 400 LINE",
"848 650 LINE",
"190 1418 LINE",
"168 1418 LINE",
"168 0 LINE",
"414 0 LINE",
"414 620 LINE",
"394 1008 LINE",
"262 998 LINE",
"466 734 LINE",
"1134 -28 LINE"
);
}
);
width = 1322;
}
);
leftKerningGroup = H;
leftMetricsKey = H;
rightKerningGroup = H;
rightMetricsKey = H;
unicode = 004E;
userData = {
com.typemytype.robofont.mark = (
0.6,
1,
0.628,
1
);
};
},
{
color = 4;
glyphname = Eng;
lastChange = "2021-12-06 03:48:38 +0000";
layers = (
{
anchors = (
{
name = btm;
position = "{696, 0}";
},
{
name = top;
position = "{638, 1660}";
}
);
layerId = "B61D43DE-5272-4FF4-A680-608B6BF5ED9E";
paths = (
{
closed = 1;
nodes = (
"918 559 LINE",
"848 650 LINE",
"190 1418 LINE",
"168 1418 LINE",
"168 0 LINE",
"414 0 LINE",
"414 620 LINE",
"404 814 LINE",
"466 734 LINE",
"918 218 LINE",
"910 74 LINE",
"910 -78 LINE SMOOTH",
"910 -260 OFFCURVE",
"824 -290 OFFCURVE",
"734 -290 CURVE SMOOTH",
"678 -290 OFFCURVE",
"594 -262 OFFCURVE",
"538 -228 CURVE",
"462 -446 LINE",
"524 -482 OFFCURVE",
"630 -510 OFFCURVE",
"778 -510 CURVE SMOOTH",
"976 -510 OFFCURVE",
"1154 -368 OFFCURVE",
"1154 -28 CURVE SMOOTH",
"1154 1394 LINE",
"908 1394 LINE",
"908 750 LINE"
);
}
);
width = 1322;
}
);
leftKerningGroup = Eng;
leftMetricsKey = N;
rightKerningGroup = Eng;
rightMetricsKey = N;
unicode = 014A;
},
{
color = 1;
glyphname = Nhookleft;
lastChange = "2021-12-06 07:10:51 +0000";
layers = (
{
anchors = (
{
name = btm;
position = "{709, 0}";
},
{
name = top;
position = "{651, 1660}";
}
);
layerId = "B61D43DE-5272-4FF4-A680-608B6BF5ED9E";
paths = (
{
closed = 1;
nodes = (
"1167 -28 LINE",
"1167 1394 LINE",
"921 1394 LINE",
"921 750 LINE",
"941 378 LINE",
"1055 400 LINE",
"861 650 LINE",
"203 1418 LINE",
"181 1418 LINE",
"181 0 LINE",
"427 0 LINE",
"427 620 LINE",
"407 1008 LINE",
"275 998 LINE",
"479 734 LINE",
"1147 -28 LINE"
);
},
{
closed = 0;
nodes = (
"181 0 LINE",
"437 0 LINE"
);
},
{
closed = 1;
nodes = (
"266 107 LINE",
"181 0 LINE",
"181 -105 OFFCURVE",
"134 -138 OFFCURVE",
"33 -138 CURVE SMOOTH",
"-42 -138 OFFCURVE",
"-70 -112 OFFCURVE",
"-110 -84 CURVE",
"-180 -275 LINE",
"-156 -311 OFFCURVE",
"-54 -365 OFFCURVE",
"77 -365 CURVE SMOOTH",
"322 -365 OFFCURVE",
"429 -219 OFFCURVE",
"427 0 CURVE"
);
}
);
width = 1335;
}
);
leftMetricsKey = Fhook;
unicode = 019D;
},
{
glyphname = O;
lastChange = "2019-10-28 18:28:25 +0000";
layers = (
{
anchors = (
{
name = btm;
position = "{660, 0}";
},
{
name = top;
position = "{658, 1660}";
}
);
layerId = "B61D43DE-5272-4FF4-A680-608B6BF5ED9E";
paths = (
{
closed = 1;
nodes = (
"1032 -24 OFFCURVE",
"1238 260 OFFCURVE",
"1238 698 CURVE SMOOTH",
"1238 1126 OFFCURVE",
"1044 1418 OFFCURVE",
"654 1418 CURVE SMOOTH",
"280 1418 OFFCURVE",
"78 1132 OFFCURVE",
"78 698 CURVE SMOOTH",
"78 260 OFFCURVE",
"282 -24 OFFCURVE",
"660 -24 CURVE SMOOTH"
);
},
{
closed = 1;
nodes = (
"472 190 OFFCURVE",
"346 354 OFFCURVE",
"346 702 CURVE SMOOTH",
"346 1038 OFFCURVE",
"460 1210 OFFCURVE",
"654 1210 CURVE SMOOTH",
"852 1210 OFFCURVE",
"972 1038 OFFCURVE",
"972 704 CURVE SMOOTH",
"972 356 OFFCURVE",
"834 190 OFFCURVE",
"660 190 CURVE SMOOTH"
);
}
);
width = 1316;
}
);
leftKerningGroup = O;
rightKerningGroup = O;
unicode = 004F;
userData = {
com.typemytype.robofont.mark = (
0.6,
1,
0.628,
1
);
};
},
{
glyphname = Ohorn;
lastChange = "2019-10-28 18:28:25 +0000";
layers = (
{
anchors = (
{
name = btm;
position = "{660, 0}";
},
{
name = top;
position = "{658, 1660}";
}
);
components = (
{
name = O;
}
);
layerId = "B61D43DE-5272-4FF4-A680-608B6BF5ED9E";
paths = (
{
closed = 1;
nodes = (
"1146 1236 OFFCURVE",
"1284 1362 OFFCURVE",
"1284 1526 CURVE SMOOTH",
"1284 1608 OFFCURVE",
"1280 1638 OFFCURVE",
"1270 1670 CURVE",
"1062 1670 LINE",
"1074 1638 OFFCURVE",
"1078 1610 OFFCURVE",
"1078 1556 CURVE SMOOTH",
"1078 1442 OFFCURVE",
"1010 1366 OFFCURVE",
"904 1366 CURVE",
"1032 1236 LINE"
);
}
);
width = 1316;
}
);
leftKerningGroup = O;
leftMetricsKey = O;
rightKerningGroup = O;
unicode = 01A0;
},
{
glyphname = Ohornacute;
lastChange = "2019-10-28 18:28:25 +0000";
layers = (
{
components = (
{
name = acutecomb;
transform = "{1, 0, 0, 1, 658, 404}";
},
{
name = O;
}
);
layerId = "B61D43DE-5272-4FF4-A680-608B6BF5ED9E";
paths = (
{
closed = 1;
nodes = (
"1146 1236 OFFCURVE",
"1284 1362 OFFCURVE",
"1284 1526 CURVE SMOOTH",
"1284 1608 OFFCURVE",
"1280 1638 OFFCURVE",
"1270 1670 CURVE",
"1062 1670 LINE",
"1074 1638 OFFCURVE",
"1078 1610 OFFCURVE",
"1078 1556 CURVE SMOOTH",
"1078 1442 OFFCURVE",
"1010 1366 OFFCURVE",
"904 1366 CURVE",
"1032 1236 LINE"
);
}
);
width = 1316;
}
);
leftKerningGroup = O;
rightKerningGroup = O;
unicode = 1EDA;
},
{
glyphname = Ohorndotbelow;
lastChange = "2019-10-28 18:28:25 +0000";
layers = (
{
components = (
{
name = dotbelowcomb;
transform = "{1, 0, 0, 1, 660, 0}";
},
{
name = O;
}
);
layerId = "B61D43DE-5272-4FF4-A680-608B6BF5ED9E";
paths = (
{
closed = 1;
nodes = (
"1146 1236 OFFCURVE",
"1284 1362 OFFCURVE",
"1284 1526 CURVE SMOOTH",
"1284 1608 OFFCURVE",
"1280 1638 OFFCURVE",
"1270 1670 CURVE",
"1062 1670 LINE",
"1074 1638 OFFCURVE",
"1078 1610 OFFCURVE",
"1078 1556 CURVE SMOOTH",
"1078 1442 OFFCURVE",
"1010 1366 OFFCURVE",
"904 1366 CURVE",
"1032 1236 LINE"
);
}
);
width = 1316;
}
);
leftKerningGroup = O;
rightKerningGroup = O;
unicode = 1EE2;
},
{
glyphname = Ohorngrave;
lastChange = "2019-10-28 18:28:25 +0000";
layers = (
{
components = (
{
name = O;
},
{
name = gravecomb.case;
transform = "{1, 0, 0, 1, 658, 0}";
}
);
layerId = "B61D43DE-5272-4FF4-A680-608B6BF5ED9E";
paths = (
{
closed = 1;
nodes = (
"1146 1236 OFFCURVE",
"1284 1362 OFFCURVE",
"1284 1526 CURVE SMOOTH",
"1284 1608 OFFCURVE",
"1280 1638 OFFCURVE",
"1270 1670 CURVE",
"1062 1670 LINE",
"1074 1638 OFFCURVE",
"1078 1610 OFFCURVE",
"1078 1556 CURVE SMOOTH",
"1078 1442 OFFCURVE",
"1010 1366 OFFCURVE",
"904 1366 CURVE",
"1032 1236 LINE"
);
}
);
width = 1316;
}
);
leftKerningGroup = O;
rightKerningGroup = O;
unicode = 1EDC;
},
{
glyphname = Ohornhookabove;
lastChange = "2019-10-28 18:28:25 +0000";
layers = (
{
components = (
{
name = O;
},
{
name = hookabovecomb.case;
transform = "{1, 0, 0, 1, 658, 0}";
}
);
layerId = "B61D43DE-5272-4FF4-A680-608B6BF5ED9E";
paths = (
{
closed = 1;
nodes = (
"1146 1236 OFFCURVE",
"1284 1362 OFFCURVE",
"1284 1526 CURVE SMOOTH",
"1284 1608 OFFCURVE",
"1280 1638 OFFCURVE",
"1270 1670 CURVE",
"1062 1670 LINE",
"1074 1638 OFFCURVE",
"1078 1610 OFFCURVE",
"1078 1556 CURVE SMOOTH",
"1078 1442 OFFCURVE",
"1010 1366 OFFCURVE",
"904 1366 CURVE",
"1032 1236 LINE"
);
}
);
width = 1316;
}
);
leftKerningGroup = O;
rightKerningGroup = O;
unicode = 1EDE;
},
{
glyphname = Ohorntilde;
lastChange = "2019-10-28 18:28:25 +0000";
layers = (
{
components = (
{
name = O;
},
{
name = tildecomb.case;
transform = "{1, 0, 0, 1, 658, 0}";
}
);
layerId = "B61D43DE-5272-4FF4-A680-608B6BF5ED9E";
paths = (
{
closed = 1;
nodes = (
"1146 1236 OFFCURVE",
"1284 1362 OFFCURVE",
"1284 1526 CURVE SMOOTH",
"1284 1608 OFFCURVE",
"1280 1638 OFFCURVE",
"1270 1670 CURVE",
"1062 1670 LINE",
"1074 1638 OFFCURVE",
"1078 1610 OFFCURVE",
"1078 1556 CURVE SMOOTH",
"1078 1442 OFFCURVE",
"1010 1366 OFFCURVE",
"904 1366 CURVE",
"1032 1236 LINE"
);
}
);
width = 1316;
}
);
leftKerningGroup = O;
rightKerningGroup = O;
unicode = 1EE0;
},
{
color = 4;
glyphname = Oogonek;
lastChange = "2021-12-06 03:55:46 +0000";
layers = (
{
anchors = (
{
name = btm;
position = "{660, 0}";
},
{
name = top;
position = "{658, 1660}";
}
);
layerId = "B61D43DE-5272-4FF4-A680-608B6BF5ED9E";
paths = (
{
closed = 1;
nodes = (
"1088 62 OFFCURVE",
"1238 324 OFFCURVE",
"1238 698 CURVE SMOOTH",
"1238 1126 OFFCURVE",
"1044 1418 OFFCURVE",
"654 1418 CURVE SMOOTH",
"280 1418 OFFCURVE",
"78 1132 OFFCURVE",
"78 698 CURVE SMOOTH",
"78 303 OFFCURVE",
"244 33 OFFCURVE",
"554 -16 CURVE",
"438 -68 OFFCURVE",
"360 -168 OFFCURVE",
"360 -256 CURVE SMOOTH",
"360 -398 OFFCURVE",
"468 -480 OFFCURVE",
"658 -480 CURVE SMOOTH",
"728 -480 OFFCURVE",
"786 -468 OFFCURVE",
"826 -448 CURVE",
"826 -268 LINE",
"778 -292 OFFCURVE",
"756 -298 OFFCURVE",
"716 -298 CURVE SMOOTH",
"656 -298 OFFCURVE",
"604 -284 OFFCURVE",
"604 -216 CURVE SMOOTH",
"604 -133 OFFCURVE",
"697 -60 OFFCURVE",
"812 -6 CURVE"
);
},
{
closed = 1;
nodes = (
"346 1038 OFFCURVE",
"460 1210 OFFCURVE",
"654 1210 CURVE SMOOTH",
"852 1210 OFFCURVE",
"972 1038 OFFCURVE",
"972 704 CURVE SMOOTH",
"972 356 OFFCURVE",
"834 190 OFFCURVE",
"660 190 CURVE SMOOTH",
"472 190 OFFCURVE",
"346 354 OFFCURVE",
"346 702 CURVE SMOOTH"
);
}
);
width = 1316;
}
);
leftKerningGroup = Oogonek;
rightKerningGroup = Oogonek;
unicode = 01EA;
},
{
color = 1;
glyphname = Oopen;
lastChange = "2021-12-06 03:53:06 +0000";
layers = (
{
anchors = (
{
name = btm;
position = "{456, 0}";
},
{
name = top;
position = "{416, 1660}";
},
{
name = vslash;
position = "{420, 690}";
}
);
layerId = "B61D43DE-5272-4FF4-A680-608B6BF5ED9E";
paths = (
{
closed = 1;
nodes = (
"704 -24 OFFCURVE",
"980 208 OFFCURVE",
"980 716 CURVE SMOOTH",
"980 1172 OFFCURVE",
"716 1418 OFFCURVE",
"392 1418 CURVE SMOOTH",
"172 1418 OFFCURVE",
"86 1342 OFFCURVE",
"34 1294 CURVE",
"146 1084 LINE",
"204 1146 OFFCURVE",
"248 1188 OFFCURVE",
"382 1188 CURVE SMOOTH",
"586 1188 OFFCURVE",
"702 996 OFFCURVE",
"702 730 CURVE SMOOTH",
"702 382 OFFCURVE",
"568 204 OFFCURVE",
"404 204 CURVE SMOOTH",
"278 204 OFFCURVE",
"186 246 OFFCURVE",
"142 292 CURVE",
"32 94 LINE",
"88 48 OFFCURVE",
"190 -24 OFFCURVE",
"414 -24 CURVE SMOOTH"
);
}
);
width = 1054;
}
);
leftMetricsKey = "=|C";
rightMetricsKey = "=|C";
unicode = 0186;
},
{
glyphname = Oslash;
lastChange = "2019-10-28 18:28:25 +0000";
layers = (
{
anchors = (
{
name = btm;
position = "{660, 0}";
},
{
name = top;
position = "{658, 1660}";
}
);
layerId = "B61D43DE-5272-4FF4-A680-608B6BF5ED9E";
paths = (
{
closed = 1;
nodes = (
"408 124 LINE",
"434 196 LINE",
"970 1200 LINE",
"1026 1236 LINE",
"1150 1458 LINE",
"1010 1530 LINE",
"890 1322 LINE",
"866 1238 LINE",
"356 266 LINE",
"294 238 LINE",
"126 -44 LINE",
"264 -120 LINE"
);
},
{
closed = 1;
nodes = (
"1032 -26 OFFCURVE",
"1238 258 OFFCURVE",
"1238 696 CURVE SMOOTH",
"1238 1124 OFFCURVE",
"1044 1418 OFFCURVE",
"654 1418 CURVE SMOOTH",
"280 1418 OFFCURVE",
"78 1130 OFFCURVE",
"78 696 CURVE SMOOTH",
"78 258 OFFCURVE",
"282 -26 OFFCURVE",
"660 -26 CURVE SMOOTH"
);
},
{
closed = 1;
nodes = (
"472 184 OFFCURVE",
"346 352 OFFCURVE",
"346 700 CURVE SMOOTH",
"346 1036 OFFCURVE",
"460 1214 OFFCURVE",
"654 1214 CURVE SMOOTH",
"852 1214 OFFCURVE",
"972 1036 OFFCURVE",
"972 702 CURVE SMOOTH",
"972 354 OFFCURVE",
"834 184 OFFCURVE",
"660 184 CURVE SMOOTH"
);
}
);
width = 1316;
}
);
leftKerningGroup = O;
leftMetricsKey = O;
rightKerningGroup = O;
rightMetricsKey = O;
unicode = 00D8;
},
{
glyphname = OE;
lastChange = "2019-10-28 18:28:25 +0000";
layers = (
{
anchors = (
{
name = btm;
position = "{2578, 0}";
},
{
name = top;
position = "{2576, 1660}";
}
);
layerId = "B61D43DE-5272-4FF4-A680-608B6BF5ED9E";
paths = (
{
closed = 1;
nodes = (
"1038 -26 OFFCURVE",
"1138 198 OFFCURVE",
"1138 696 CURVE SMOOTH",
"1138 1184 OFFCURVE",
"1044 1418 OFFCURVE",
"654 1418 CURVE SMOOTH",
"280 1418 OFFCURVE",
"78 1130 OFFCURVE",
"78 696 CURVE SMOOTH",
"78 258 OFFCURVE",
"282 -26 OFFCURVE",
"660 -26 CURVE SMOOTH"
);
},
{
closed = 1;
nodes = (
"472 184 OFFCURVE",
"346 352 OFFCURVE",
"346 700 CURVE SMOOTH",
"346 1036 OFFCURVE",
"460 1214 OFFCURVE",
"654 1214 CURVE SMOOTH",
"852 1214 OFFCURVE",
"972 1036 OFFCURVE",
"972 702 CURVE SMOOTH",
"972 354 OFFCURVE",
"834 184 OFFCURVE",
"660 184 CURVE SMOOTH"
);
},
{
closed = 1;
nodes = (
"1742 0 LINE",
"1742 220 LINE",
"1172 220 LINE",
"1204 182 LINE",
"1204 672 LINE",
"1168 638 LINE",
"1604 638 LINE",
"1604 850 LINE",
"1168 850 LINE",
"1204 816 LINE",
"1204 1210 LINE",
"1172 1182 LINE",
"1702 1182 LINE",
"1702 1394 LINE",
"980 1394 LINE",
"980 0 LINE"
);
}
);
width = 1824;
}
);
leftKerningGroup = O;
leftMetricsKey = O;
rightKerningGroup = E;
rightMetricsKey = E;
unicode = 0152;
userData = {
com.typemytype.robofont.mark = (
0.6,
1,
0.628,
1
);
};
},
{
glyphname = P;
lastChange = "2019-10-28 18:28:25 +0000";
layers = (
{
anchors = (
{
name = top;
position = "{604, 1660}";
}
);
layerId = "B61D43DE-5272-4FF4-A680-608B6BF5ED9E";
paths = (
{
closed = 1;
nodes = (
"426 0 LINE",
"426 476 LINE",
"356 374 LINE",
"550 374 LINE SMOOTH",
"904 374 OFFCURVE",
"1054 632 OFFCURVE",
"1054 906 CURVE SMOOTH",
"1054 1284 OFFCURVE",
"826 1394 OFFCURVE",
"542 1394 CURVE SMOOTH",
"168 1394 LINE",
"168 0 LINE"
);
},
{
closed = 1;
nodes = (
"426 1228 LINE",
"396 1192 LINE",
"526 1192 LINE SMOOTH",
"726 1192 OFFCURVE",
"796 1096 OFFCURVE",
"796 892 CURVE SMOOTH",
"796 692 OFFCURVE",
"708 584 OFFCURVE",
"532 584 CURVE SMOOTH",
"390 584 LINE",
"426 560 LINE"
);
}
);
width = 1094;
}
);
leftKerningGroup = H;
leftMetricsKey = H;
rightKerningGroup = P;
unicode = 0050;
},
{
color = 1;
glyphname = Phook;
lastChange = "2021-12-06 07:25:54 +0000";
layers = (
{
anchors = (
{
name = top;
position = "{869, 1660}";
}
);
layerId = "B61D43DE-5272-4FF4-A680-608B6BF5ED9E";
paths = (
{
closed = 1;
nodes = (
"691 0 LINE",
"691 476 LINE",
"621 374 LINE",
"815 374 LINE SMOOTH",
"1169 374 OFFCURVE",
"1319 632 OFFCURVE",
"1319 906 CURVE SMOOTH",
"1319 1284 OFFCURVE",
"1091 1394 OFFCURVE",
"807 1394 CURVE SMOOTH",
"433 1394 LINE",
"433 0 LINE"
);
},
{
closed = 1;
nodes = (
"691 1228 LINE",
"661 1192 LINE",
"791 1192 LINE SMOOTH",
"991 1192 OFFCURVE",
"1061 1096 OFFCURVE",
"1061 892 CURVE SMOOTH",
"1061 692 OFFCURVE",
"973 584 OFFCURVE",
"797 584 CURVE SMOOTH",
"655 584 LINE",
"691 560 LINE"
);
},
{
closed = 1;
nodes = (
"129 1394 OFFCURVE",
"10 1255 OFFCURVE",
"10 1066 CURVE SMOOTH",
"10 945 OFFCURVE",
"69 847 OFFCURVE",
"99 823 CURVE",
"320 862 LINE",
"292 902 OFFCURVE",
"257 945 OFFCURVE",
"257 1036 CURVE SMOOTH",
"257 1121 OFFCURVE",
"303 1176 OFFCURVE",
"433 1176 CURVE",
"520 1271 LINE",
"433 1394 LINE"
);
}
);
width = 1359;
}
);
leftMetricsKey = Hhook;
rightMetricsKey = P;
unicode = 01A4;
},
{
glyphname = Thorn;
lastChange = "2019-10-28 18:28:25 +0000";
layers = (
{
layerId = "B61D43DE-5272-4FF4-A680-608B6BF5ED9E";
paths = (
{
closed = 1;
nodes = (
"416 0 LINE",
"416 334 LINE",
"304 212 LINE",
"518 212 LINE SMOOTH",
"926 212 OFFCURVE",
"1080 440 OFFCURVE",
"1080 696 CURVE SMOOTH",
"1080 1056 OFFCURVE",
"854 1176 OFFCURVE",
"540 1176 CURVE SMOOTH",
"304 1176 LINE",
"416 1054 LINE",
"416 1394 LINE",
"168 1394 LINE",
"168 0 LINE"
);
},
{
closed = 1;
nodes = (
"416 1096 LINE",
"304 974 LINE",
"534 974 LINE SMOOTH",
"758 974 OFFCURVE",
"822 860 OFFCURVE",
"822 682 CURVE SMOOTH",
"822 508 OFFCURVE",
"748 416 OFFCURVE",
"524 416 CURVE SMOOTH",
"304 416 LINE",
"416 294 LINE"
);
}
);
width = 1120;
}
);
leftKerningGroup = H;
leftMetricsKey = H;
rightKerningGroup = Thorn;
rightMetricsKey = P;
unicode = 00DE;
},
{
glyphname = Q;
lastChange = "2019-10-28 18:28:25 +0000";
layers = (
{
anchors = (
{
name = top;
position = "{694, 1660}";
}
);
components = (
{
name = O;
}
);
layerId = "B61D43DE-5272-4FF4-A680-608B6BF5ED9E";
paths = (
{
closed = 1;
nodes = (
"1062 -222 LINE",
"878 80 LINE",
"674 -12 LINE",
"832 -346 LINE"
);
}
);
width = 1316;
}
);
leftKerningGroup = O;
rightKerningGroup = O;
unicode = 0051;
},
{
glyphname = R;
lastChange = "2019-10-28 18:28:25 +0000";
layers = (
{
anchors = (
{
name = btm;
position = "{588, 0}";
},
{
name = top;
position = "{620, 1660}";
}
);
background = {
paths = (
{
closed = 1;
nodes = (
"1574 0 LINE",
"1574 528 LINE",
"1570 510 LINE",
"1932 0 LINE",
"2242 0 LINE",
"1856 518 LINE",
"1702 470 LINE",
"1718 470 OFFCURVE",
"1732 468 OFFCURVE",
"1746 468 CURVE SMOOTH",
"2092 468 OFFCURVE",
"2204 738 OFFCURVE",
"2204 950 CURVE SMOOTH",
"2204 1284 OFFCURVE",
"1992 1394 OFFCURVE",
"1708 1394 CURVE SMOOTH",
"1320 1394 LINE",
"1320 0 LINE"
);
},
{
closed = 1;
nodes = (
"1574 1226 LINE",
"1538 1194 LINE",
"1674 1194 LINE SMOOTH",
"1874 1194 OFFCURVE",
"1948 1106 OFFCURVE",
"1948 926 CURVE",
"1948 770 OFFCURVE",
"1856 630 OFFCURVE",
"1680 630 CURVE",
"1534 630 LINE",
"1574 608 LINE"
);
}
);
};
layerId = "B61D43DE-5272-4FF4-A680-608B6BF5ED9E";
paths = (
{
closed = 1;
nodes = (
"730 484 LINE",
"970 544 OFFCURVE",
"1052 768 OFFCURVE",
"1052 950 CURVE SMOOTH",
"1052 1284 OFFCURVE",
"840 1394 OFFCURVE",
"556 1394 CURVE SMOOTH",
"168 1394 LINE",
"168 0 LINE",
"422 0 LINE",
"422 504 LINE",
"780 0 LINE",
"1090 0 LINE"
);
},
{
closed = 1;
nodes = (
"422 1194 LINE",
"522 1194 LINE SMOOTH",
"722 1194 OFFCURVE",
"796 1106 OFFCURVE",
"796 926 CURVE SMOOTH",
"796 770 OFFCURVE",
"704 630 OFFCURVE",
"528 630 CURVE SMOOTH",
"422 630 LINE"
);
}
);
width = 1154;
}
);
leftKerningGroup = H;
leftMetricsKey = H;
rightKerningGroup = R;
unicode = 0052;
},
{
color = 1;
glyphname = Rstroke;
lastChange = "2022-05-07 02:50:23 +0000";
layers = (
{
anchors = (
{
name = btm;
position = "{618, 0}";
},
{
name = top;
position = "{650, 1660}";
}
);
layerId = "B61D43DE-5272-4FF4-A680-608B6BF5ED9E";
paths = (
{
closed = 1;
nodes = (
"370 526 LINE",
"370 726 LINE",
"42 726 LINE",
"42 526 LINE"
);
},
{
closed = 1;
nodes = (
"760 544 LINE",
"1000 604 OFFCURVE",
"1082 828 OFFCURVE",
"1082 980 CURVE SMOOTH",
"1082 1284 OFFCURVE",
"870 1394 OFFCURVE",
"586 1394 CURVE SMOOTH",
"198 1394 LINE",
"198 0 LINE",
"452 0 LINE",
"452 564 LINE",
"810 0 LINE",
"1120 0 LINE"
);
},
{
closed = 1;
nodes = (
"452 1194 LINE",
"552 1194 LINE SMOOTH",
"752 1194 OFFCURVE",
"826 1106 OFFCURVE",
"826 956 CURVE SMOOTH",
"826 830 OFFCURVE",
"734 690 OFFCURVE",
"558 690 CURVE SMOOTH",
"452 690 LINE"
);
}
);
width = 1184;
}
);
leftMetricsKey = Eth;
rightMetricsKey = R;
unicode = "024C,024D";
},
{
color = 1;
glyphname = Rtail;
lastChange = "2021-12-06 03:53:06 +0000";
layers = (
{
anchors = (
{
name = btm;
position = "{588, 0}";
},
{
name = top;
position = "{620, 1660}";
}
);
layerId = "B61D43DE-5272-4FF4-A680-608B6BF5ED9E";
paths = (
{
closed = 1;
nodes = (
"730 514 LINE",
"970 574 OFFCURVE",
"1052 788 OFFCURVE",
"1052 960 CURVE SMOOTH",
"1052 1294 OFFCURVE",
"840 1394 OFFCURVE",
"556 1394 CURVE SMOOTH",
"168 1394 LINE",
"168 0 LINE",
"422 0 LINE",
"422 534 LINE",
"800 0 LINE",
"1110 0 LINE"
);
},
{
closed = 1;
nodes = (
"422 1194 LINE",
"522 1194 LINE SMOOTH",
"722 1194 OFFCURVE",
"796 1116 OFFCURVE",
"796 936 CURVE SMOOTH",
"796 790 OFFCURVE",
"704 660 OFFCURVE",
"528 660 CURVE SMOOTH",
"422 660 LINE"
);
},
{
closed = 1;
nodes = (
"168 -304 OFFCURVE",
"261 -387 OFFCURVE",
"510 -387 CURVE SMOOTH",
"611 -387 OFFCURVE",
"695 -351 OFFCURVE",
"719 -321 CURVE",
"667 -94 LINE",
"627 -122 OFFCURVE",
"599 -148 OFFCURVE",
"528 -148 CURVE SMOOTH",
"443 -148 OFFCURVE",
"418 -105 OFFCURVE",
"418 0 CURVE",
"291 87 LINE",
"168 0 LINE"
);
}
);
width = 1174;
}
);
leftMetricsKey = H;
rightMetricsKey = R;
unicode = 2C64;
},
{
glyphname = S;
lastChange = "2021-12-06 03:56:03 +0000";
layers = (
{
anchors = (
{
name = bottom;
position = "{518, 0}";
},
{
name = top;
position = "{538, 1660}";
}
);
layerId = "B61D43DE-5272-4FF4-A680-608B6BF5ED9E";
paths = (
{
closed = 1;
nodes = (
"774 -22 OFFCURVE",
"938 124 OFFCURVE",
"938 368 CURVE SMOOTH",
"938 612 OFFCURVE",
"774 704 OFFCURVE",
"586 816 CURVE SMOOTH",
"472 884 OFFCURVE",
"382 942 OFFCURVE",
"382 1050 CURVE SMOOTH",
"382 1134 OFFCURVE",
"436 1206 OFFCURVE",
"544 1206 CURVE SMOOTH",
"660 1206 OFFCURVE",
"750 1124 OFFCURVE",
"778 1084 CURVE",
"890 1288 LINE",
"846 1328 OFFCURVE",
"738 1418 OFFCURVE",
"534 1418 CURVE SMOOTH",
"266 1418 OFFCURVE",
"122 1260 OFFCURVE",
"122 1040 CURVE SMOOTH",
"122 794 OFFCURVE",
"300 694 OFFCURVE",
"462 596 CURVE SMOOTH",
"594 516 OFFCURVE",
"676 468 OFFCURVE",
"676 360 CURVE SMOOTH",
"676 250 OFFCURVE",
"590 194 OFFCURVE",
"490 194 CURVE SMOOTH",
"360 194 OFFCURVE",
"234 286 OFFCURVE",
"192 340 CURVE",
"90 130 LINE",
"158 58 OFFCURVE",
"312 -22 OFFCURVE",
"508 -22 CURVE SMOOTH"
);
}
);
width = 1008;
}
);
leftKerningGroup = S;
rightKerningGroup = S;
unicode = 0053;
},
{
color = 1;
glyphname = Saltillo;
lastChange = "2021-12-06 03:53:06 +0000";
layers = (
{
layerId = "B61D43DE-5272-4FF4-A680-608B6BF5ED9E";
paths = (
{
closed = 1;
nodes = (
"422 696 LINE",
"422 1394 LINE",
"162 1394 LINE",
"162 696 LINE"
);
}
);
width = 584;
}
);
leftMetricsKey = I;
rightMetricsKey = "=|";
unicode = A78B;
},
{
glyphname = Germandbls;
lastChange = "2019-10-28 18:28:25 +0000";
layers = (
{
layerId = "B61D43DE-5272-4FF4-A680-608B6BF5ED9E";
paths = (
{
closed = 1;
nodes = (
"1138 1394 LINE",
"684 1394 LINE SMOOTH",
"352 1394 OFFCURVE",
"132 1174 OFFCURVE",
"132 670 CURVE SMOOTH",
"132 0 LINE",
"384 0 LINE",
"384 692 LINE SMOOTH",
"384 956 OFFCURVE",
"458 1192 OFFCURVE",
"696 1192 CURVE SMOOTH",
"796 1192 LINE",
"540 672 LINE",
"734 672 OFFCURVE",
"884 610 OFFCURVE",
"884 452 CURVE SMOOTH",
"884 214 OFFCURVE",
"718 204 OFFCURVE",
"588 204 CURVE SMOOTH",
"560 204 OFFCURVE",
"512 208 OFFCURVE",
"484 214 CURVE",
"478 -4 LINE",
"522 -10 OFFCURVE",
"596 -12 OFFCURVE",
"636 -12 CURVE SMOOTH",
"962 -12 OFFCURVE",
"1154 160 OFFCURVE",
"1154 472 CURVE SMOOTH",
"1154 650 OFFCURVE",
"1048 786 OFFCURVE",
"860 832 CURVE",
"1150 1376 LINE"
);
}
);
width = 1286;
}
);
leftKerningGroup = Germandbls;
leftMetricsKey = U;
rightKerningGroup = U;
rightMetricsKey = U;
unicode = 1E9E;
},
{
glyphname = Schwa;
lastChange = "2019-10-28 18:28:25 +0000";
layers = (
{
anchors = (
{
name = top;
position = "{614, 1660}";
}
);
layerId = "B61D43DE-5272-4FF4-A680-608B6BF5ED9E";
paths = (
{
closed = 1;
nodes = (
"434 1418 OFFCURVE",
"274 1342 OFFCURVE",
"174 1254 CURVE",
"286 1048 LINE",
"328 1100 OFFCURVE",
"434 1196 OFFCURVE",
"598 1196 CURVE SMOOTH",
"786 1196 OFFCURVE",
"908 1038 OFFCURVE",
"922 770 CURVE",
"78 770 LINE",
"78 668 LINE SMOOTH",
"78 258 OFFCURVE",
"256 -20 OFFCURVE",
"626 -20 CURVE SMOOTH",
"972 -20 OFFCURVE",
"1188 268 OFFCURVE",
"1188 728 CURVE SMOOTH",
"1188 1158 OFFCURVE",
"972 1418 OFFCURVE",
"630 1418 CURVE SMOOTH"
);
},
{
closed = 1;
nodes = (
"422 184 OFFCURVE",
"346 392 OFFCURVE",
"346 572 CURVE",
"916 572 LINE",
"888 330 OFFCURVE",
"784 184 OFFCURVE",
"634 184 CURVE SMOOTH"
);
}
);
width = 1266;
}
);
leftKerningGroup = O;
leftMetricsKey = O;
rightKerningGroup = O;
rightMetricsKey = O;
unicode = 018F;
userData = {
com.typemytype.robofont.mark = (
0.6,
1,
0.628,
1
);
};
},
{
glyphname = T;
lastChange = "2021-12-06 03:56:21 +0000";
layers = (
{
anchors = (
{
name = bottom;
position = "{488, 0}";
},
{
name = top;
position = "{488, 1660}";
}
);
layerId = "B61D43DE-5272-4FF4-A680-608B6BF5ED9E";
paths = (
{
closed = 1;
nodes = (
"616 0 LINE",
"616 1214 LINE",
"586 1168 LINE",
"938 1168 LINE",
"938 1394 LINE",
"36 1394 LINE",
"36 1168 LINE",
"382 1168 LINE",
"358 1214 LINE",
"358 0 LINE"
);
}
);
width = 974;
}
);
leftKerningGroup = T;
rightKerningGroup = T;
unicode = 0054;
},
{
glyphname = Tbar;
lastChange = "2019-10-28 18:28:25 +0000";
layers = (
{
components = (
{
name = T;
}
);
layerId = "B61D43DE-5272-4FF4-A680-608B6BF5ED9E";
paths = (
{
closed = 1;
nodes = (
"876 632 LINE",
"876 802 LINE",
"142 802 LINE",
"142 632 LINE"
);
}
);
width = 974;
}
);
leftKerningGroup = T;
leftMetricsKey = T;
rightKerningGroup = T;
rightMetricsKey = T;
unicode = 0166;
},
{
color = 1;
glyphname = Thook;
lastChange = "2021-12-06 07:25:54 +0000";
layers = (
{
anchors = (
{
name = bottom;
position = "{706, 0}";
},
{
name = top;
position = "{706, 1660}";
}
);
layerId = "B61D43DE-5272-4FF4-A680-608B6BF5ED9E";
paths = (
{
closed = 1;
nodes = (
"834 0 LINE",
"834 1214 LINE",
"804 1168 LINE",
"1156 1168 LINE",
"1156 1394 LINE",
"433 1394 LINE",
"433 1168 LINE",
"600 1168 LINE",
"576 1214 LINE",
"576 0 LINE"
);
},
{
closed = 1;
nodes = (
"129 1394 OFFCURVE",
"10 1255 OFFCURVE",
"10 1066 CURVE SMOOTH",
"10 945 OFFCURVE",
"69 847 OFFCURVE",
"99 823 CURVE",
"320 862 LINE",
"292 902 OFFCURVE",
"257 945 OFFCURVE",
"257 1036 CURVE SMOOTH",
"257 1121 OFFCURVE",
"303 1168 OFFCURVE",
"433 1168 CURVE",
"520 1271 LINE",
"433 1394 LINE"
);
}
);
width = 1192;
}
);
leftMetricsKey = Hhook;
unicode = 01AC;
},
{
color = 1;
glyphname = Tretroflexhook;
lastChange = "2021-12-06 07:27:05 +0000";
layers = (
{
anchors = (
{
name = bottom;
position = "{488, 0}";
},
{
name = top;
position = "{488, 1660}";
}
);
layerId = "B61D43DE-5272-4FF4-A680-608B6BF5ED9E";
paths = (
{
closed = 1;
nodes = (
"616 0 LINE",
"616 1214 LINE",
"586 1168 LINE",
"938 1168 LINE",
"938 1394 LINE",
"36 1394 LINE",
"36 1168 LINE",
"382 1168 LINE",
"358 1214 LINE",
"358 0 LINE"
);
},
{
closed = 1;
nodes = (
"356 -249 OFFCURVE",
"435 -377 OFFCURVE",
"710 -377 CURVE SMOOTH",
"811 -377 OFFCURVE",
"895 -321 OFFCURVE",
"919 -285 CURVE",
"867 -84 LINE",
"827 -112 OFFCURVE",
"799 -138 OFFCURVE",
"714 -138 CURVE SMOOTH",
"648 -138 OFFCURVE",
"616 -105 OFFCURVE",
"616 0 CURVE",
"491 107 LINE",
"358 0 LINE"
);
}
);
width = 974;
}
);
unicode = 01AE;
},
{
glyphname = U;
lastChange = "2019-10-28 18:28:25 +0000";
layers = (
{
anchors = (
{
name = btm;
position = "{624, 0}";
},
{
name = top;
position = "{620, 1660}";
}
);
layerId = "B61D43DE-5272-4FF4-A680-608B6BF5ED9E";
paths = (
{
closed = 1;
nodes = (
"894 -26 OFFCURVE",
"1110 98 OFFCURVE",
"1110 498 CURVE SMOOTH",
"1110 1394 LINE",
"850 1394 LINE",
"850 470 LINE SMOOTH",
"850 232 OFFCURVE",
"722 192 OFFCURVE",
"624 192 CURVE SMOOTH",
"530 192 OFFCURVE",
"392 234 OFFCURVE",
"392 470 CURVE SMOOTH",
"392 1394 LINE",
"132 1394 LINE",
"132 498 LINE SMOOTH",
"132 98 OFFCURVE",
"354 -26 OFFCURVE",
"628 -26 CURVE SMOOTH"
);
}
);
width = 1242;
}
);
leftKerningGroup = U;
rightKerningGroup = U;
unicode = 0055;
},
{
glyphname = Uhorn;
lastChange = "2019-10-28 18:28:25 +0000";
layers = (
{
anchors = (
{
name = btm;
position = "{632, 0}";
},
{
name = top;
position = "{628, 1660}";
}
);
components = (
{
name = U;
}
);
layerId = "B61D43DE-5272-4FF4-A680-608B6BF5ED9E";
paths = (
{
closed = 1;
nodes = (
"1134 1264 OFFCURVE",
"1272 1362 OFFCURVE",
"1272 1526 CURVE SMOOTH",
"1272 1608 OFFCURVE",
"1268 1638 OFFCURVE",
"1258 1670 CURVE",
"1050 1670 LINE",
"1062 1638 OFFCURVE",
"1066 1610 OFFCURVE",
"1066 1556 CURVE SMOOTH",
"1066 1442 OFFCURVE",
"998 1394 OFFCURVE",
"892 1394 CURVE",
"1020 1264 LINE"
);
}
);
width = 1258;
}
);
leftKerningGroup = U;
rightKerningGroup = U;
unicode = 01AF;
},
{
color = 3;
glyphname = Uogonek;
lastChange = "2021-12-06 03:52:22 +0000";
layers = (
{
anchors = (
{
name = btm;
position = "{624, 0}";
},
{
name = top;
position = "{620, 1660}";
}
);
layerId = "B61D43DE-5272-4FF4-A680-608B6BF5ED9E";
paths = (
{
closed = 1;
nodes = (
"850 232 OFFCURVE",
"722 192 OFFCURVE",
"624 192 CURVE SMOOTH",
"530 192 OFFCURVE",
"392 234 OFFCURVE",
"392 470 CURVE SMOOTH",
"392 1394 LINE",
"132 1394 LINE",
"132 498 LINE SMOOTH",
"132 140 OFFCURVE",
"310 3 OFFCURVE",
"543 -22 CURVE",
"434 -76 OFFCURVE",
"362 -171 OFFCURVE",
"362 -256 CURVE SMOOTH",
"362 -398 OFFCURVE",
"470 -480 OFFCURVE",
"660 -480 CURVE SMOOTH",
"730 -480 OFFCURVE",
"788 -468 OFFCURVE",
"828 -448 CURVE",
"828 -268 LINE",
"780 -292 OFFCURVE",
"758 -298 OFFCURVE",
"718 -298 CURVE SMOOTH",
"658 -298 OFFCURVE",
"606 -284 OFFCURVE",
"606 -216 CURVE SMOOTH",
"606 -130 OFFCURVE",
"706 -54 OFFCURVE",
"828 0 CURVE",
"824 2 LINE",
"992 58 OFFCURVE",
"1110 203 OFFCURVE",
"1110 498 CURVE SMOOTH",
"1110 1394 LINE",
"850 1394 LINE",
"850 470 LINE SMOOTH"
);
}
);
width = 1242;
}
);
leftKerningGroup = U;
leftMetricsKey = U;
rightKerningGroup = U;
rightMetricsKey = U;
unicode = 0172;
},
{
color = 1;
glyphname = Upsilonafrican;
lastChange = "2021-12-06 03:53:06 +0000";
layers = (
{
background = {
components = (
{
name = O;
transform = "{1, 0, 0, 1, 64, 0}";
}
);
};
layerId = "B61D43DE-5272-4FF4-A680-608B6BF5ED9E";
paths = (
{
closed = 1;
nodes = (
"888 1394 LINE",
"888 1176 LINE",
"1016 1042 OFFCURVE",
"1156 898 OFFCURVE",
"1156 648 CURVE SMOOTH",
"1156 440 OFFCURVE",
"1076 191 OFFCURVE",
"782 191 CURVE SMOOTH",
"490 191 OFFCURVE",
"410 452 OFFCURVE",
"410 648 CURVE SMOOTH",
"410 898 OFFCURVE",
"550 1042 OFFCURVE",
"678 1176 CURVE",
"678 1394 LINE",
"98 1394 LINE",
"98 1134 LINE",
"458 1164 LINE",
"382 1114 OFFCURVE",
"146 978 OFFCURVE",
"146 618 CURVE SMOOTH",
"146 246 OFFCURVE",
"406 -34 OFFCURVE",
"780 -34 CURVE SMOOTH",
"1152 -34 OFFCURVE",
"1420 240 OFFCURVE",
"1420 618 CURVE SMOOTH",
"1420 978 OFFCURVE",
"1184 1114 OFFCURVE",
"1108 1164 CURVE",
"1468 1134 LINE",
"1468 1394 LINE"
);
}
);
width = 1566;
}
);
leftMetricsKey = Omega;
rightMetricsKey = "=|";
unicode = 01B1;
},
{
glyphname = V;
lastChange = "2022-05-07 02:51:57 +0000";
layers = (
{
anchors = (
{
name = bottom;
position = "{549, 0}";
},
{
name = top;
position = "{548, 1660}";
}
);
layerId = "B61D43DE-5272-4FF4-A680-608B6BF5ED9E";
paths = (
{
closed = 1;
nodes = (
"566 -7 LINE",
"1118 1394 LINE",
"844 1394 LINE",
"632 780 LINE",
"516 429 LINE",
"594 429 LINE",
"478 780 LINE",
"258 1394 LINE",
"-20 1394 LINE",
"534 -7 LINE"
);
}
);
width = 1098;
}
);
leftKerningGroup = V;
rightKerningGroup = V;
unicode = 0056;
userData = {
com.typemytype.robofont.mark = (
0.6,
1,
0.628,
1
);
};
},
{
color = 1;
glyphname = Gammaafrican;
lastChange = "2021-12-06 07:45:59 +0000";
layers = (
{
anchors = (
{
name = top;
position = "{550, 1660}";
}
);
background = {
paths = (
{
closed = 1;
nodes = (
"568 -7 LINE",
"1120 1394 LINE",
"846 1394 LINE",
"634 780 LINE",
"518 429 LINE",
"596 429 LINE",
"480 780 LINE",
"260 1394 LINE",
"-18 1394 LINE",
"536 -7 LINE"
);
}
);
};
layerId = "B61D43DE-5272-4FF4-A680-608B6BF5ED9E";
paths = (
{
closed = 1;
nodes = (
"649 500 LINE",
"1131 1394 LINE",
"841 1394 LINE",
"631 944 LINE",
"475 628 LINE",
"635 628 LINE",
"481 944 LINE",
"273 1394 LINE",
"-20 1394 LINE",
"448 500 LINE"
);
},
{
closed = 1;
nodes = (
"448 666 LINE",
"350 496 OFFCURVE",
"149 359 OFFCURVE",
"149 90 CURVE SMOOTH",
"149 -144 OFFCURVE",
"338 -261 OFFCURVE",
"557 -261 CURVE SMOOTH",
"775 -261 OFFCURVE",
"963 -144 OFFCURVE",
"963 90 CURVE SMOOTH",
"963 359 OFFCURVE",
"761 496 OFFCURVE",
"661 653 CURVE"
);
},
{
closed = 1;
nodes = (
"407 198 OFFCURVE",
"486 344 OFFCURVE",
"555 435 CURVE",
"625 344 OFFCURVE",
"705 198 OFFCURVE",
"705 90 CURVE SMOOTH",
"705 47 OFFCURVE",
"685 -66 OFFCURVE",
"557 -66 CURVE SMOOTH",
"429 -66 OFFCURVE",
"407 47 OFFCURVE",
"407 90 CURVE SMOOTH"
);
}
);
width = 1111;
}
);
leftMetricsKey = V;
rightMetricsKey = "=|";
unicode = 0194;
},
{
color = 1;
glyphname = Vhook;
lastChange = "2021-12-06 07:19:41 +0000";
layers = (
{
anchors = (
{
name = btm;
position = "{634, 0}";
},
{
name = top;
position = "{630, 1660}";
}
);
layerId = "B61D43DE-5272-4FF4-A680-608B6BF5ED9E";
paths = (
{
closed = 1;
nodes = (
"914 -26 OFFCURVE",
"1130 99 OFFCURVE",
"1130 498 CURVE SMOOTH",
"1130 1167 LINE",
"955 1203 LINE",
"871 1111 LINE",
"870 470 LINE SMOOTH",
"870 232 OFFCURVE",
"732 192 OFFCURVE",
"634 192 CURVE SMOOTH",
"530 192 OFFCURVE",
"392 234 OFFCURVE",
"392 470 CURVE SMOOTH",
"392 1394 LINE",
"132 1394 LINE",
"132 498 LINE SMOOTH",
"132 98 OFFCURVE",
"354 -26 OFFCURVE",
"638 -26 CURVE SMOOTH"
);
},
{
closed = 1;
nodes = (
"1130 1167 LINE",
"1130 1373 OFFCURVE",
"981 1449 OFFCURVE",
"806 1449 CURVE SMOOTH",
"661 1449 OFFCURVE",
"584 1393 OFFCURVE",
"553 1356 CURVE",
"650 1142 LINE",
"672 1184 OFFCURVE",
"721 1216 OFFCURVE",
"765 1216 CURVE SMOOTH",
"841 1216 OFFCURVE",
"871 1186 OFFCURVE",
"871 1111 CURVE"
);
}
);
width = 1262;
}
);
leftMetricsKey = U;
rightMetricsKey = U;
unicode = 01B2;
},
{
glyphname = Vturned;
lastChange = "2021-12-06 03:49:59 +0000";
layers = (
{
anchors = (
{
name = bottom;
position = "{550, -266}";
}
);
layerId = "B61D43DE-5272-4FF4-A680-608B6BF5ED9E";
paths = (
{
closed = 1;
nodes = (
"532 1401 LINE",
"-20 0 LINE",
"254 0 LINE",
"466 614 LINE",
"582 965 LINE",
"504 965 LINE",
"620 614 LINE",
"840 0 LINE",
"1118 0 LINE",
"564 1401 LINE"
);
}
);
width = 1098;
}
);
unicode = 0245;
},
{
glyphname = W;
lastChange = "2019-10-28 18:29:47 +0000";
layers = (
{
anchors = (
{
name = top;
position = "{800, 1660}";
}
);
layerId = "B61D43DE-5272-4FF4-A680-608B6BF5ED9E";
paths = (
{
closed = 1;
nodes = (
"1160 -3 LINE",
"1622 1394 LINE",
"1348 1394 LINE",
"1068 409 LINE",
"1184 409 LINE",
"824 1394 LINE",
"790 1394 LINE",
"450 447 LINE",
"548 423 LINE",
"256 1394 LINE",
"-20 1394 LINE",
"446 -1 LINE",
"480 -1 LINE",
"836 883 LINE",
"766 883 LINE",
"1128 -3 LINE"
);
}
);
width = 1602;
}
);
leftKerningGroup = W;
rightKerningGroup = W;
unicode = 0057;
userData = {
com.typemytype.robofont.guides = (
{
angle = 0;
isGlobal = 0;
magnetic = 5;
x = 0;
y = 615;
}
);
};
},
{
color = 1;
glyphname = Whook;
lastChange = "2021-12-06 07:01:01 +0000";
layers = (
{
anchors = (
{
name = top;
position = "{800, 1660}";
}
);
layerId = "B61D43DE-5272-4FF4-A680-608B6BF5ED9E";
paths = (
{
closed = 1;
nodes = (
"1406 1417 OFFCURVE",
"1324 1311 OFFCURVE",
"1266 1105 CURVE SMOOTH",
"1119 588 LINE",
"824 1394 LINE",
"790 1394 LINE",
"499 585 LINE",
"256 1394 LINE",
"-20 1394 LINE",
"446 -1 LINE",
"480 -1 LINE",
"801 797 LINE",
"1128 -3 LINE",
"1160 -3 LINE",
"1522 1090 LINE",
"1543 1145 OFFCURVE",
"1579 1164 OFFCURVE",
"1637 1164 CURVE SMOOTH",
"1711 1164 OFFCURVE",
"1775 1090 OFFCURVE",
"1782 1060 CURVE",
"1894 1264 LINE",
"1863 1331 OFFCURVE",
"1786 1417 OFFCURVE",
"1591 1417 CURVE SMOOTH"
);
}
);
width = 1884;
}
);
leftMetricsKey = W;
unicode = 2C72;
},
{
glyphname = X;
lastChange = "2019-10-28 18:28:25 +0000";
layers = (
{
anchors = (
{
name = top;
position = "{566, 1660}";
}
);
layerId = "B61D43DE-5272-4FF4-A680-608B6BF5ED9E";
paths = (
{
closed = 1;
nodes = (
"318 0 LINE",
"582 596 LINE",
"530 596 LINE",
"806 0 LINE",
"1114 0 LINE",
"722 726 LINE",
"724 662 LINE",
"1104 1394 LINE",
"810 1394 LINE",
"544 798 LINE",
"602 798 LINE",
"326 1394 LINE",
"26 1394 LINE",
"410 674 LINE",
"408 760 LINE",
"20 0 LINE"
);
}
);
width = 1134;
}
);
leftKerningGroup = X;
rightKerningGroup = X;
unicode = 0058;
userData = {
com.typemytype.robofont.mark = (
0.6,
1,
0.628,
1
);
};
},
{
glyphname = Y;
lastChange = "2019-10-28 18:28:25 +0000";
layers = (
{
anchors = (
{
name = btm;
position = "{544, 0}";
},
{
name = top;
position = "{564, 1660}";
}
);
layerId = "B61D43DE-5272-4FF4-A680-608B6BF5ED9E";
paths = (
{
closed = 1;
nodes = (
"666 0 LINE",
"666 664 LINE",
"410 664 LINE",
"410 0 LINE"
);
},
{
closed = 1;
nodes = (
"1106 1394 LINE",
"826 1394 LINE",
"508 708 LINE",
"584 708 LINE",
"252 1394 LINE",
"-30 1394 LINE",
"544 310 LINE"
);
}
);
width = 1076;
}
);
leftKerningGroup = Y;
rightKerningGroup = Y;
unicode = 0059;
},
{
color = 1;
glyphname = Yhook;
lastChange = "2021-12-06 07:30:06 +0000";
layers = (
{
anchors = (
{
name = btm;
position = "{544, 0}";
},
{
name = top;
position = "{564, 1660}";
}
);
layerId = "B61D43DE-5272-4FF4-A680-608B6BF5ED9E";
paths = (
{
closed = 1;
nodes = (
"666 0 LINE",
"666 553 LINE",
"952 1122 LINE SMOOTH",
"992 1202 OFFCURVE",
"1033 1215 OFFCURVE",
"1091 1215 CURVE SMOOTH",
"1165 1215 OFFCURVE",
"1229 1142 OFFCURVE",
"1236 1112 CURVE",
"1348 1306 LINE",
"1317 1373 OFFCURVE",
"1228 1449 OFFCURVE",
"1065 1449 CURVE SMOOTH",
"880 1449 OFFCURVE",
"786 1342 OFFCURVE",
"696 1137 CURVE SMOOTH",
"544 790 LINE",
"252 1394 LINE",
"-30 1394 LINE",
"410 563 LINE",
"410 0 LINE"
);
}
);
width = 1358;
}
);
leftMetricsKey = Y;
unicode = 01B3;
},
{
glyphname = Z;
lastChange = "2022-05-07 02:52:46 +0000";
layers = (
{
anchors = (
{
name = btm;
position = "{508, 0}";
},
{
name = center;
position = "{532, 701}";
},
{
name = top;
position = "{560, 1660}";
}
);
layerId = "B61D43DE-5272-4FF4-A680-608B6BF5ED9E";
paths = (
{
closed = 1;
nodes = (
"966 0 LINE",
"966 216 LINE",
"304 216 LINE",
"384 88 LINE",
"992 1394 LINE",
"126 1394 LINE",
"126 1178 LINE",
"676 1178 LINE",
"666 1286 LINE",
"60 0 LINE"
);
}
);
width = 1048;
}
);
leftKerningGroup = Z;
rightKerningGroup = Z;
unicode = 005A;
},
{
glyphname = a;
lastChange = "2019-10-28 18:28:25 +0000";
layers = (
{
anchors = (
{
name = btm;
position = "{444, 0}";
},
{
name = top;
position = "{494, 1660}";
}
);
layerId = "B61D43DE-5272-4FF4-A680-608B6BF5ED9E";
paths = (
{
closed = 1;
nodes = (
"476 -28 OFFCURVE",
"572 28 OFFCURVE",
"642 142 CURVE",
"660 0 LINE",
"874 0 LINE",
"874 654 LINE SMOOTH",
"874 876 OFFCURVE",
"792 1020 OFFCURVE",
"496 1020 CURVE SMOOTH",
"332 1020 OFFCURVE",
"192 964 OFFCURVE",
"112 910 CURVE",
"192 718 LINE",
"238 770 OFFCURVE",
"350 810 OFFCURVE",
"454 810 CURVE SMOOTH",
"596 810 OFFCURVE",
"632 736 OFFCURVE",
"632 638 CURVE",
"632 592 LINE",
"176 592 OFFCURVE",
"76 394 OFFCURVE",
"76 272 CURVE SMOOTH",
"76 108 OFFCURVE",
"164 -28 OFFCURVE",
"348 -28 CURVE SMOOTH"
);
},
{
closed = 1;
nodes = (
"366 164 OFFCURVE",
"324 200 OFFCURVE",
"324 296 CURVE SMOOTH",
"324 406 OFFCURVE",
"474 438 OFFCURVE",
"584 438 CURVE SMOOTH",
"604 438 OFFCURVE",
"618 438 OFFCURVE",
"632 436 CURVE",
"632 294 LINE",
"592 218 OFFCURVE",
"514 164 OFFCURVE",
"454 164 CURVE SMOOTH"
);
}
);
width = 994;
}
);
leftKerningGroup = a;
rightKerningGroup = n;
unicode = 0061;
userData = {
com.typemytype.robofont.mark = (
0.6,
1,
0.628,
1
);
};
},
{
glyphname = "alpha-latin";
lastChange = "2021-12-06 07:25:43 +0000";
layers = (
{
layerId = "B61D43DE-5272-4FF4-A680-608B6BF5ED9E";
paths = (
{
closed = 1;
nodes = (
"608 -28 OFFCURVE",
"696 54 OFFCURVE",
"736 204 CURVE",
"736 0 LINE",
"968 0 LINE",
"968 996 LINE",
"736 996 LINE",
"736 824 LINE",
"708 950 OFFCURVE",
"610 1020 OFFCURVE",
"472 1020 CURVE SMOOTH",
"212 1020 OFFCURVE",
"86 804 OFFCURVE",
"86 496 CURVE SMOOTH",
"86 180 OFFCURVE",
"232 -28 OFFCURVE",
"476 -28 CURVE SMOOTH"
);
},
{
closed = 1;
nodes = (
"424 170 OFFCURVE",
"348 276 OFFCURVE",
"348 496 CURVE SMOOTH",
"348 742 OFFCURVE",
"446 818 OFFCURVE",
"540 818 CURVE SMOOTH",
"662 818 OFFCURVE",
"720 700 OFFCURVE",
"720 492 CURVE SMOOTH",
"720 264 OFFCURVE",
"630 170 OFFCURVE",
"534 170 CURVE SMOOTH"
);
}
);
width = 1116;
}
);
leftMetricsKey = d;
rightMetricsKey = "=|n";
unicode = 0251;
},
{
color = 3;
glyphname = aogonek;
lastChange = "2019-10-28 18:28:25 +0000";
layers = (
{
components = (
{
name = a;
}
);
guideLines = (
{
angle = 270;
position = "{438, 159}";
}
);
layerId = "B61D43DE-5272-4FF4-A680-608B6BF5ED9E";
paths = (
{
closed = 1;
nodes = (
"776 -480 OFFCURVE",
"834 -468 OFFCURVE",
"874 -448 CURVE",
"874 -268 LINE",
"826 -292 OFFCURVE",
"804 -298 OFFCURVE",
"764 -298 CURVE SMOOTH",
"704 -298 OFFCURVE",
"652 -284 OFFCURVE",
"652 -216 CURVE SMOOTH",
"652 -130 OFFCURVE",
"752 -54 OFFCURVE",
"874 0 CURVE",
"744 66 LINE",
"660 0 LINE",
"522 -46 OFFCURVE",
"408 -158 OFFCURVE",
"408 -256 CURVE SMOOTH",
"408 -398 OFFCURVE",
"516 -480 OFFCURVE",
"706 -480 CURVE SMOOTH"
);
}
);
width = 994;
}
);
leftKerningGroup = a;
leftMetricsKey = a;
rightKerningGroup = n;
rightMetricsKey = a;
unicode = 0105;
},
{
glyphname = aringacute;
lastChange = "2019-10-28 18:28:25 +0000";
layers = (
{
anchors = (
{
name = _top;
position = "{484, 2256}";
},
{
name = top;
position = "{484, 2754}";
}
);
components = (
{
name = a;
}
);
layerId = "B61D43DE-5272-4FF4-A680-608B6BF5ED9E";
paths = (
{
closed = 1;
nodes = (
"590 1646 LINE",
"780 1954 LINE",
"546 1954 LINE",
"410 1646 LINE"
);
},
{
closed = 1;
nodes = (
"640 1168 OFFCURVE",
"776 1284 OFFCURVE",
"776 1446 CURVE SMOOTH",
"776 1610 OFFCURVE",
"640 1724 OFFCURVE",
"484 1724 CURVE SMOOTH",
"328 1724 OFFCURVE",
"194 1612 OFFCURVE",
"194 1446 CURVE SMOOTH",
"194 1284 OFFCURVE",
"328 1168 OFFCURVE",
"484 1168 CURVE SMOOTH"
);
},
{
closed = 1;
nodes = (
"412 1304 OFFCURVE",
"350 1350 OFFCURVE",
"350 1448 CURVE SMOOTH",
"350 1552 OFFCURVE",
"412 1590 OFFCURVE",
"484 1590 CURVE SMOOTH",
"556 1590 OFFCURVE",
"620 1552 OFFCURVE",
"620 1448 CURVE SMOOTH",
"620 1350 OFFCURVE",
"556 1304 OFFCURVE",
"484 1304 CURVE SMOOTH"
);
}
);
width = 980;
}
);
leftKerningGroup = a;
rightKerningGroup = n;
unicode = 01FB;
},
{
glyphname = ae;
lastChange = "2019-10-28 18:28:25 +0000";
layers = (
{
anchors = (
{
name = btm;
position = "{760, 0}";
},
{
name = top;
position = "{842, 1660}";
}
);
layerId = "B61D43DE-5272-4FF4-A680-608B6BF5ED9E";
paths = (
{
closed = 1;
nodes = (
"1448 826 OFFCURVE",
"1344 1020 OFFCURVE",
"1046 1020 CURVE SMOOTH",
"922 1020 OFFCURVE",
"830 978 OFFCURVE",
"764 908 CURVE",
"716 978 OFFCURVE",
"632 1020 OFFCURVE",
"490 1020 CURVE SMOOTH",
"332 1020 OFFCURVE",
"192 964 OFFCURVE",
"112 910 CURVE",
"192 718 LINE",
"238 770 OFFCURVE",
"350 810 OFFCURVE",
"448 810 CURVE SMOOTH",
"580 810 OFFCURVE",
"610 736 OFFCURVE",
"610 638 CURVE",
"612 592 LINE",
"162 592 OFFCURVE",
"76 394 OFFCURVE",
"76 264 CURVE SMOOTH",
"76 100 OFFCURVE",
"164 -28 OFFCURVE",
"348 -28 CURVE SMOOTH",
"454 -28 OFFCURVE",
"610 10 OFFCURVE",
"704 146 CURVE",
"764 40 OFFCURVE",
"870 -28 OFFCURVE",
"1050 -28 CURVE SMOOTH",
"1246 -28 OFFCURVE",
"1356 30 OFFCURVE",
"1410 66 CURVE",
"1330 256 LINE",
"1284 204 OFFCURVE",
"1174 162 OFFCURVE",
"1092 162 CURVE SMOOTH",
"930 162 OFFCURVE",
"852 258 OFFCURVE",
"844 416 CURVE",
"1446 416 LINE",
"1448 446 OFFCURVE",
"1448 482 OFFCURVE",
"1448 510 CURVE SMOOTH"
);
},
{
closed = 1;
nodes = (
"850 714 OFFCURVE",
"916 830 OFFCURVE",
"1052 830 CURVE SMOOTH",
"1134 830 OFFCURVE",
"1196 784 OFFCURVE",
"1196 574 CURVE",
"842 572 LINE"
);
},
{
closed = 1;
nodes = (
"572 218 OFFCURVE",
"508 164 OFFCURVE",
"448 164 CURVE SMOOTH",
"366 164 OFFCURVE",
"318 200 OFFCURVE",
"318 296 CURVE SMOOTH",
"318 406 OFFCURVE",
"458 438 OFFCURVE",
"568 438 CURVE SMOOTH",
"584 438 OFFCURVE",
"600 438 OFFCURVE",
"614 436 CURVE",
"612 294 LINE"
);
}
);
width = 1536;
}
);
leftKerningGroup = a;
leftMetricsKey = a;
rightKerningGroup = e;
rightMetricsKey = e;
unicode = 00E6;
userData = {
com.typemytype.robofont.mark = (
0.6,
1,
0.628,
1
);
};
},
{
color = 3;
glyphname = b;
lastChange = "2021-12-06 07:02:59 +0000";
layers = (
{
anchors = (
{
name = bottom;
position = "{644, 0}";
},
{
name = top;
position = "{748, 1660}";
}
);
background = {
paths = (
{
closed = 1;
nodes = (
"398 -436 LINE",
"398 10 LINE",
"374 198 LINE",
"406 80 OFFCURVE",
"494 -28 OFFCURVE",
"642 -28 CURVE SMOOTH",
"880 -28 OFFCURVE",
"1042 164 OFFCURVE",
"1042 512 CURVE SMOOTH",
"1042 822 OFFCURVE",
"926 1022 OFFCURVE",
"662 1022 CURVE SMOOTH",
"526 1022 OFFCURVE",
"398 938 OFFCURVE",
"374 824 CURVE",
"394 964 LINE",
"394 996 LINE",
"156 996 LINE",
"156 -436 LINE"
);
},
{
closed = 1;
nodes = (
"468 170 OFFCURVE",
"398 298 OFFCURVE",
"398 486 CURVE SMOOTH",
"398 674 OFFCURVE",
"464 818 OFFCURVE",
"588 818 CURVE SMOOTH",
"690 818 OFFCURVE",
"780 726 OFFCURVE",
"780 502 CURVE SMOOTH",
"780 260 OFFCURVE",
"680 170 OFFCURVE",
"584 170 CURVE SMOOTH"
);
}
);
};
layerId = "B61D43DE-5272-4FF4-A680-608B6BF5ED9E";
paths = (
{
closed = 1;
nodes = (
"864 -28 OFFCURVE",
"1042 144 OFFCURVE",
"1042 502 CURVE SMOOTH",
"1042 844 OFFCURVE",
"914 1022 OFFCURVE",
"666 1022 CURVE SMOOTH",
"552 1022 OFFCURVE",
"408 960 OFFCURVE",
"376 824 CURVE",
"396 996 LINE",
"396 1520 LINE",
"156 1520 LINE",
"156 0 LINE",
"376 0 LINE",
"376 198 LINE",
"406 78 OFFCURVE",
"500 -28 OFFCURVE",
"644 -28 CURVE SMOOTH"
);
},
{
closed = 1;
nodes = (
"470 170 OFFCURVE",
"400 298 OFFCURVE",
"400 486 CURVE SMOOTH",
"400 674 OFFCURVE",
"466 818 OFFCURVE",
"590 818 CURVE SMOOTH",
"692 818 OFFCURVE",
"780 726 OFFCURVE",
"780 502 CURVE SMOOTH",
"780 260 OFFCURVE",
"684 170 OFFCURVE",
"586 170 CURVE SMOOTH"
);
}
);
width = 1128;
}
);
leftKerningGroup = h;
leftMetricsKey = h;
rightKerningGroup = o;
unicode = 0062;
userData = {
com.typemytype.robofont.mark = (
0.6,
1,
0.628,
1
);
};
},
{
color = 1;
glyphname = bhook;
lastChange = "2021-12-06 05:18:41 +0000";
layers = (
{
anchors = (
{
name = top;
position = "{748, 1660}";
}
);
layerId = "B61D43DE-5272-4FF4-A680-608B6BF5ED9E";
paths = (
{
closed = 1;
nodes = (
"864 -28 OFFCURVE",
"1042 144 OFFCURVE",
"1042 502 CURVE SMOOTH",
"1042 844 OFFCURVE",
"914 1022 OFFCURVE",
"666 1022 CURVE SMOOTH",
"552 1022 OFFCURVE",
"408 960 OFFCURVE",
"376 824 CURVE",
"396 996 LINE",
"396 1140 LINE",
"156 1143 LINE",
"156 0 LINE",
"376 0 LINE",
"376 198 LINE",
"406 78 OFFCURVE",
"500 -28 OFFCURVE",
"644 -28 CURVE SMOOTH"
);
},
{
closed = 1;
nodes = (
"470 170 OFFCURVE",
"400 298 OFFCURVE",
"400 486 CURVE SMOOTH",
"400 674 OFFCURVE",
"466 818 OFFCURVE",
"590 818 CURVE SMOOTH",
"692 818 OFFCURVE",
"780 726 OFFCURVE",
"780 502 CURVE SMOOTH",
"780 260 OFFCURVE",
"684 170 OFFCURVE",
"586 170 CURVE SMOOTH"
);
},
{
closed = 1;
nodes = (
"289 1068 LINE",
"396 1140 LINE",
"396 1272 OFFCURVE",
"466 1340 OFFCURVE",
"575 1340 CURVE SMOOTH",
"685 1340 OFFCURVE",
"730 1284 OFFCURVE",
"782 1244 CURVE",
"831 1456 LINE",
"795 1492 OFFCURVE",
"704 1552 OFFCURVE",
"551 1552 CURVE SMOOTH",
"296 1552 OFFCURVE",
"156 1388 OFFCURVE",
"156 1143 CURVE"
);
}
);
width = 1128;
}
);
unicode = 0253;
},
{
color = 3;
glyphname = c;
lastChange = "2019-10-28 18:28:25 +0000";
layers = (
{
anchors = (
{
name = btm;
position = "{510, 0}";
},
{
name = top;
position = "{542, 1660}";
}
);
background = {
paths = (
{
closed = 1;
nodes = (
"838 -20 OFFCURVE",
"1004 184 OFFCURVE",
"1004 500 CURVE SMOOTH",
"1004 816 OFFCURVE",
"846 1020 OFFCURVE",
"552 1020 CURVE SMOOTH",
"258 1020 OFFCURVE",
"84 828 OFFCURVE",
"84 500 CURVE SMOOTH",
"84 174 OFFCURVE",
"250 -20 OFFCURVE",
"544 -20 CURVE SMOOTH"
);
},
{
closed = 1;
nodes = (
"422 180 OFFCURVE",
"350 270 OFFCURVE",
"350 500 CURVE SMOOTH",
"350 730 OFFCURVE",
"422 822 OFFCURVE",
"548 822 CURVE SMOOTH",
"672 822 OFFCURVE",
"738 712 OFFCURVE",
"738 500 CURVE SMOOTH",
"738 288 OFFCURVE",
"672 180 OFFCURVE",
"548 180 CURVE SMOOTH"
);
}
);
};
layerId = "B61D43DE-5272-4FF4-A680-608B6BF5ED9E";
paths = (
{
closed = 1;
nodes = (
"702 -24 OFFCURVE",
"816 48 OFFCURVE",
"854 88 CURVE",
"778 266 LINE",
"740 224 OFFCURVE",
"664 180 OFFCURVE",
"568 180 CURVE SMOOTH",
"422 180 OFFCURVE",
"350 274 OFFCURVE",
"350 496 CURVE SMOOTH",
"350 704 OFFCURVE",
"420 812 OFFCURVE",
"568 812 CURVE SMOOTH",
"636 812 OFFCURVE",
"724 778 OFFCURVE",
"764 718 CURVE",
"846 930 LINE",
"758 1002 OFFCURVE",
"668 1020 OFFCURVE",
"554 1020 CURVE SMOOTH",
"246 1020 OFFCURVE",
"86 770 OFFCURVE",
"86 494 CURVE SMOOTH",
"86 216 OFFCURVE",
"222 -24 OFFCURVE",
"540 -24 CURVE SMOOTH"
);
}
);
width = 902;
}
);
leftKerningGroup = o;
rightKerningGroup = c;
unicode = 0063;
},
{
color = 1;
glyphname = chook;
lastChange = "2021-12-06 05:24:07 +0000";
layers = (
{
anchors = (
{
name = btm;
position = "{510, 0}";
},
{
name = top;
position = "{542, 1660}";
}
);
layerId = "B61D43DE-5272-4FF4-A680-608B6BF5ED9E";
paths = (
{
closed = 1;
nodes = (
"718 906 LINE",
"876 930 LINE",
"797 1198 OFFCURVE",
"863 1340 OFFCURVE",
"967 1340 CURVE SMOOTH",
"1039 1340 OFFCURVE",
"1091 1314 OFFCURVE",
"1113 1270 CURVE",
"1162 1482 LINE",
"1126 1518 OFFCURVE",
"1039 1552 OFFCURVE",
"947 1552 CURVE SMOOTH",
"696 1552 OFFCURVE",
"580 1374 OFFCURVE",
"646 971 CURVE"
);
},
{
closed = 1;
nodes = (
"702 -24 OFFCURVE",
"816 48 OFFCURVE",
"854 88 CURVE",
"778 266 LINE",
"740 224 OFFCURVE",
"664 180 OFFCURVE",
"568 180 CURVE SMOOTH",
"422 180 OFFCURVE",
"350 274 OFFCURVE",
"350 496 CURVE SMOOTH",
"350 704 OFFCURVE",
"420 812 OFFCURVE",
"568 812 CURVE SMOOTH",
"636 812 OFFCURVE",
"724 778 OFFCURVE",
"764 718 CURVE",
"876 930 LINE",
"768 1002 OFFCURVE",
"668 1020 OFFCURVE",
"554 1020 CURVE SMOOTH",
"246 1020 OFFCURVE",
"86 770 OFFCURVE",
"86 494 CURVE SMOOTH",
"86 216 OFFCURVE",
"222 -24 OFFCURVE",
"540 -24 CURVE SMOOTH"
);
}
);
width = 1154;
}
);
leftMetricsKey = c;
rightMetricsKey = f;
unicode = 0188;
},
{
glyphname = d;
lastChange = "2021-12-06 03:16:01 +0000";
layers = (
{
anchors = (
{
name = bottom;
position = "{552, 0}";
},
{
name = car;
position = "{1176, 1660}";
},
{
name = top;
position = "{396, 1660}";
}
);
layerId = "B61D43DE-5272-4FF4-A680-608B6BF5ED9E";
paths = (
{
closed = 1;
nodes = (
"622 -28 OFFCURVE",
"714 66 OFFCURVE",
"750 204 CURVE",
"750 0 LINE",
"968 0 LINE",
"968 1520 LINE",
"732 1520 LINE",
"732 970 LINE",
"750 824 LINE",
"722 950 OFFCURVE",
"622 1020 OFFCURVE",
"486 1020 CURVE SMOOTH",
"220 1020 OFFCURVE",
"86 824 OFFCURVE",
"86 496 CURVE SMOOTH",
"86 180 OFFCURVE",
"240 -28 OFFCURVE",
"482 -28 CURVE SMOOTH"
);
},
{
closed = 1;
nodes = (
"430 170 OFFCURVE",
"344 276 OFFCURVE",
"344 496 CURVE SMOOTH",
"344 742 OFFCURVE",
"452 818 OFFCURVE",
"546 818 CURVE SMOOTH",
"668 818 OFFCURVE",
"726 700 OFFCURVE",
"726 492 CURVE SMOOTH",
"726 264 OFFCURVE",
"636 170 OFFCURVE",
"540 170 CURVE SMOOTH"
);
}
);
width = 1124;
}
);
leftKerningGroup = o;
rightKerningGroup = l;
unicode = 0064;
userData = {
com.typemytype.robofont.mark = (
0.6,
1,
0.628,
1
);
};
},
{
glyphname = eth;
lastChange = "2019-10-28 18:28:25 +0000";
layers = (
{
anchors = (
{
name = btm;
position = "{558, 0}";
}
);
background = {
paths = (
{
closed = 1;
nodes = (
"758 -20 OFFCURVE",
"986 138 OFFCURVE",
"986 562 CURVE SMOOTH",
"986 894 OFFCURVE",
"870 1220 OFFCURVE",
"594 1386 CURVE",
"512 1430 LINE",
"430 1468 OFFCURVE",
"334 1502 OFFCURVE",
"274 1506 CURVE",
"212 1336 LINE",
"256 1334 OFFCURVE",
"340 1302 OFFCURVE",
"412 1262 CURVE SMOOTH",
"482 1220 LINE",
"600 1130 OFFCURVE",
"722 960 OFFCURVE",
"738 780 CURVE",
"720 854 OFFCURVE",
"646 950 OFFCURVE",
"502 950 CURVE SMOOTH",
"250 950 OFFCURVE",
"92 748 OFFCURVE",
"92 460 CURVE SMOOTH",
"92 182 OFFCURVE",
"278 -20 OFFCURVE",
"524 -20 CURVE SMOOTH"
);
},
{
closed = 1;
nodes = (
"416 164 OFFCURVE",
"340 286 OFFCURVE",
"340 472 CURVE SMOOTH",
"340 638 OFFCURVE",
"414 774 OFFCURVE",
"540 774 CURVE SMOOTH",
"654 774 OFFCURVE",
"714 694 OFFCURVE",
"732 610 CURVE SMOOTH",
"738 572 OFFCURVE",
"738 524 OFFCURVE",
"738 476 CURVE SMOOTH",
"738 300 OFFCURVE",
"676 164 OFFCURVE",
"540 164 CURVE SMOOTH"
);
},
{
closed = 1;
nodes = (
"564 1252 LINE",
"622 1314 LINE",
"748 1480 LINE",
"602 1578 LINE",
"474 1418 LINE",
"412 1332 LINE",
"280 1162 LINE",
"426 1068 LINE"
);
}
);
};
layerId = "B61D43DE-5272-4FF4-A680-608B6BF5ED9E";
paths = (
{
closed = 1;
nodes = (
"758 -20 OFFCURVE",
"986 138 OFFCURVE",
"986 562 CURVE SMOOTH",
"986 894 OFFCURVE",
"870 1220 OFFCURVE",
"594 1386 CURVE",
"512 1430 LINE",
"430 1468 OFFCURVE",
"334 1502 OFFCURVE",
"274 1506 CURVE",
"212 1336 LINE",
"256 1334 OFFCURVE",
"340 1302 OFFCURVE",
"412 1262 CURVE SMOOTH",
"482 1220 LINE",
"600 1130 OFFCURVE",
"722 960 OFFCURVE",
"738 780 CURVE",
"720 854 OFFCURVE",
"646 950 OFFCURVE",
"502 950 CURVE SMOOTH",
"250 950 OFFCURVE",
"92 748 OFFCURVE",
"92 460 CURVE SMOOTH",
"92 182 OFFCURVE",
"278 -20 OFFCURVE",
"524 -20 CURVE SMOOTH"
);
},
{
closed = 1;
nodes = (
"416 164 OFFCURVE",
"340 286 OFFCURVE",
"340 472 CURVE SMOOTH",
"340 638 OFFCURVE",
"414 774 OFFCURVE",
"540 774 CURVE SMOOTH",
"612 774 OFFCURVE",
"668 736 OFFCURVE",
"698 694 CURVE SMOOTH",
"728 652 OFFCURVE",
"738 600 OFFCURVE",
"738 476 CURVE SMOOTH",
"738 300 OFFCURVE",
"676 164 OFFCURVE",
"540 164 CURVE SMOOTH"
);
},
{
closed = 1;
nodes = (
"564 1252 LINE",
"622 1314 LINE",
"748 1480 LINE",
"602 1578 LINE",
"474 1418 LINE",
"412 1332 LINE",
"280 1162 LINE",
"426 1068 LINE"
);
}
);
width = 1080;
}
);
leftKerningGroup = eth;
rightKerningGroup = eth;
unicode = 00F0;
userData = {
com.typemytype.robofont.mark = (
0.6,
1,
0.628,
1
);
};
},
{
glyphname = dhook;
lastChange = "2021-12-06 03:25:40 +0000";
layers = (
{
anchors = (
{
name = bottom;
position = "{552, 0}";
},
{
name = car;
position = "{1176, 1660}";
},
{
name = top;
position = "{396, 1660}";
}
);
layerId = "B61D43DE-5272-4FF4-A680-608B6BF5ED9E";
paths = (
{
closed = 1;
nodes = (
"622 -28 OFFCURVE",
"714 66 OFFCURVE",
"750 204 CURVE",
"750 0 LINE",
"968 0 LINE",
"968 1232 LINE",
"732 1232 LINE",
"732 970 LINE",
"750 824 LINE",
"722 950 OFFCURVE",
"622 1020 OFFCURVE",
"486 1020 CURVE SMOOTH",
"220 1020 OFFCURVE",
"86 824 OFFCURVE",
"86 496 CURVE SMOOTH",
"86 180 OFFCURVE",
"240 -28 OFFCURVE",
"482 -28 CURVE SMOOTH"
);
},
{
closed = 1;
nodes = (
"430 170 OFFCURVE",
"344 276 OFFCURVE",
"344 496 CURVE SMOOTH",
"344 742 OFFCURVE",
"452 818 OFFCURVE",
"546 818 CURVE SMOOTH",
"668 818 OFFCURVE",
"726 700 OFFCURVE",
"726 492 CURVE SMOOTH",
"726 264 OFFCURVE",
"636 170 OFFCURVE",
"540 170 CURVE SMOOTH"
);
},
{
closed = 1;
nodes = (
"865 1157 LINE",
"968 1232 LINE",
"968 1364 OFFCURVE",
"1017 1402 OFFCURVE",
"1088 1402 CURVE SMOOTH",
"1173 1402 OFFCURVE",
"1201 1376 OFFCURVE",
"1241 1348 CURVE",
"1293 1539 LINE",
"1269 1575 OFFCURVE",
"1185 1611 OFFCURVE",
"1084 1611 CURVE SMOOTH",
"809 1611 OFFCURVE",
"730 1451 OFFCURVE",
"732 1232 CURVE"
);
}
);
width = 1124;
}
);
unicode = 0257;
},
{
color = 4;
glyphname = dtail;
lastChange = "2021-12-06 07:08:46 +0000";
layers = (
{
anchors = (
{
name = bottom;
position = "{552, 0}";
},
{
name = car;
position = "{1176, 1660}";
},
{
name = top;
position = "{396, 1660}";
}
);
layerId = "B61D43DE-5272-4FF4-A680-608B6BF5ED9E";
paths = (
{
closed = 1;
nodes = (
"622 -28 OFFCURVE",
"714 66 OFFCURVE",
"750 204 CURVE",
"750 20 LINE",
"968 0 LINE",
"968 1520 LINE",
"732 1520 LINE",
"732 970 LINE",
"750 824 LINE",
"722 950 OFFCURVE",
"622 1020 OFFCURVE",
"486 1020 CURVE SMOOTH",
"220 1020 OFFCURVE",
"86 824 OFFCURVE",
"86 496 CURVE SMOOTH",
"86 180 OFFCURVE",
"240 -28 OFFCURVE",
"482 -28 CURVE SMOOTH"
);
},
{
closed = 1;
nodes = (
"430 170 OFFCURVE",
"344 276 OFFCURVE",
"344 496 CURVE SMOOTH",
"344 742 OFFCURVE",
"452 818 OFFCURVE",
"546 818 CURVE SMOOTH",
"668 818 OFFCURVE",
"726 700 OFFCURVE",
"726 492 CURVE SMOOTH",
"726 264 OFFCURVE",
"636 170 OFFCURVE",
"540 170 CURVE SMOOTH"
);
},
{
closed = 1;
nodes = (
"748 -219 OFFCURVE",
"827 -347 OFFCURVE",
"1072 -347 CURVE SMOOTH",
"1173 -347 OFFCURVE",
"1257 -311 OFFCURVE",
"1281 -275 CURVE",
"1229 -84 LINE",
"1189 -112 OFFCURVE",
"1161 -138 OFFCURVE",
"1076 -138 CURVE SMOOTH",
"995 -138 OFFCURVE",
"968 -105 OFFCURVE",
"968 0 CURVE",
"883 107 LINE",
"750 20 LINE"
);
}
);
width = 1301;
}
);
rightMetricsKey = "=|esh";
unicode = 0256;
},
{
glyphname = e;
lastChange = "2019-10-28 18:28:25 +0000";
layers = (
{
anchors = (
{
name = btm;
position = "{568, 0}";
},
{
name = top;
position = "{554, 1660}";
}
);
layerId = "B61D43DE-5272-4FF4-A680-608B6BF5ED9E";
paths = (
{
closed = 1;
nodes = (
"748 -26 OFFCURVE",
"858 32 OFFCURVE",
"912 68 CURVE",
"832 258 LINE",
"786 206 OFFCURVE",
"676 164 OFFCURVE",
"594 164 CURVE SMOOTH",
"432 164 OFFCURVE",
"354 258 OFFCURVE",
"346 416 CURVE",
"946 416 LINE",
"948 446 OFFCURVE",
"950 496 OFFCURVE",
"950 524 CURVE SMOOTH",
"950 840 OFFCURVE",
"846 1020 OFFCURVE",
"548 1020 CURVE SMOOTH",
"248 1020 OFFCURVE",
"84 776 OFFCURVE",
"84 486 CURVE SMOOTH",
"84 210 OFFCURVE",
"216 -26 OFFCURVE",
"552 -26 CURVE SMOOTH"
);
},
{
closed = 1;
nodes = (
"352 714 OFFCURVE",
"418 830 OFFCURVE",
"554 830 CURVE SMOOTH",
"636 830 OFFCURVE",
"696 782 OFFCURVE",
"696 572 CURVE",
"344 572 LINE"
);
}
);
width = 1038;
}
);
leftKerningGroup = o;
leftMetricsKey = o;
rightKerningGroup = e;
unicode = 0065;
userData = {
com.typemytype.robofont.guides = (
{
angle = 0;
isGlobal = 0;
magnetic = 5;
x = 0;
y = 869;
}
);
};
},
{
color = 4;
glyphname = eogonek;
lastChange = "2021-12-06 03:16:15 +0000";
layers = (
{
anchors = (
{
name = btm;
position = "{568, 0}";
},
{
name = top;
position = "{554, 1660}";
}
);
background = {
paths = (
{
closed = 1;
nodes = (
"648 -480 OFFCURVE",
"706 -468 OFFCURVE",
"746 -448 CURVE",
"746 -268 LINE",
"698 -292 OFFCURVE",
"676 -298 OFFCURVE",
"636 -298 CURVE SMOOTH",
"576 -298 OFFCURVE",
"524 -284 OFFCURVE",
"524 -216 CURVE SMOOTH",
"524 -130 OFFCURVE",
"624 -54 OFFCURVE",
"746 0 CURVE",
"616 66 LINE",
"514 0 LINE",
"376 -46 OFFCURVE",
"280 -158 OFFCURVE",
"280 -256 CURVE SMOOTH",
"280 -398 OFFCURVE",
"388 -480 OFFCURVE",
"578 -480 CURVE SMOOTH"
);
},
{
closed = 1;
nodes = (
"748 -26 OFFCURVE",
"858 32 OFFCURVE",
"912 68 CURVE",
"832 258 LINE",
"786 206 OFFCURVE",
"676 164 OFFCURVE",
"594 164 CURVE SMOOTH",
"432 164 OFFCURVE",
"354 258 OFFCURVE",
"346 416 CURVE",
"946 416 LINE",
"948 446 OFFCURVE",
"950 496 OFFCURVE",
"950 524 CURVE SMOOTH",
"950 840 OFFCURVE",
"846 1020 OFFCURVE",
"548 1020 CURVE SMOOTH",
"248 1020 OFFCURVE",
"84 776 OFFCURVE",
"84 486 CURVE SMOOTH",
"84 210 OFFCURVE",
"216 -26 OFFCURVE",
"552 -26 CURVE SMOOTH"
);
},
{
closed = 1;
nodes = (
"352 714 OFFCURVE",
"418 830 OFFCURVE",
"554 830 CURVE SMOOTH",
"636 830 OFFCURVE",
"696 782 OFFCURVE",
"696 572 CURVE",
"344 572 LINE"
);
}
);
};
layerId = "B61D43DE-5272-4FF4-A680-608B6BF5ED9E";
paths = (
{
closed = 1;
nodes = (
"950 840 OFFCURVE",
"846 1020 OFFCURVE",
"548 1020 CURVE SMOOTH",
"248 1020 OFFCURVE",
"84 776 OFFCURVE",
"84 486 CURVE SMOOTH",
"84 235 OFFCURVE",
"193 18 OFFCURVE",
"464 -20 CURVE",
"354 -74 OFFCURVE",
"280 -170 OFFCURVE",
"280 -256 CURVE SMOOTH",
"280 -398 OFFCURVE",
"388 -480 OFFCURVE",
"578 -480 CURVE SMOOTH",
"648 -480 OFFCURVE",
"706 -468 OFFCURVE",
"746 -448 CURVE",
"746 -268 LINE",
"698 -292 OFFCURVE",
"676 -298 OFFCURVE",
"636 -298 CURVE SMOOTH",
"576 -298 OFFCURVE",
"524 -284 OFFCURVE",
"524 -216 CURVE SMOOTH",
"524 -134 OFFCURVE",
"615 -61 OFFCURVE",
"729 -8 CURVE",
"819 12 OFFCURVE",
"877 45 OFFCURVE",
"912 68 CURVE",
"832 258 LINE",
"786 206 OFFCURVE",
"676 164 OFFCURVE",
"594 164 CURVE SMOOTH",
"432 164 OFFCURVE",
"354 258 OFFCURVE",
"346 416 CURVE",
"946 416 LINE",
"948 446 OFFCURVE",
"950 496 OFFCURVE",
"950 524 CURVE SMOOTH"
);
},
{
closed = 1;
nodes = (
"352 714 OFFCURVE",
"418 830 OFFCURVE",
"554 830 CURVE SMOOTH",
"636 830 OFFCURVE",
"696 782 OFFCURVE",
"696 572 CURVE",
"344 572 LINE"
);
}
);
width = 1038;
}
);
leftKerningGroup = o;
leftMetricsKey = e;
rightKerningGroup = e;
rightMetricsKey = e;
unicode = 0119;
},
{
glyphname = eopen;
lastChange = "2021-12-06 05:27:17 +0000";
layers = (
{
background = {
paths = (
{
closed = 1;
nodes = (
"238 1018 OFFCURVE",
"60 908 OFFCURVE",
"60 720 CURVE SMOOTH",
"60 604 OFFCURVE",
"162 492 OFFCURVE",
"302 492 CURVE",
"182 466 OFFCURVE",
"92 338 OFFCURVE",
"92 232 CURVE SMOOTH",
"92 72 OFFCURVE",
"238 -20 OFFCURVE",
"462 -20 CURVE SMOOTH",
"600 -20 OFFCURVE",
"716 24 OFFCURVE",
"780 74 CURVE",
"716 242 LINE",
"654 186 OFFCURVE",
"574 170 OFFCURVE",
"492 170 CURVE SMOOTH",
"410 170 OFFCURVE",
"322 200 OFFCURVE",
"322 274 CURVE SMOOTH",
"322 340 OFFCURVE",
"386 404 OFFCURVE",
"520 404 CURVE SMOOTH",
"608 404 LINE",
"608 582 LINE",
"530 582 LINE SMOOTH",
"402 582 OFFCURVE",
"284 602 OFFCURVE",
"284 702 CURVE SMOOTH",
"284 770 OFFCURVE",
"346 832 OFFCURVE",
"492 832 CURVE SMOOTH",
"580 832 OFFCURVE",
"658 800 OFFCURVE",
"718 750 CURVE",
"790 936 LINE",
"698 992 OFFCURVE",
"596 1018 OFFCURVE",
"472 1018 CURVE SMOOTH"
);
}
);
};
layerId = "B61D43DE-5272-4FF4-A680-608B6BF5ED9E";
paths = (
{
closed = 1;
nodes = (
"596 -20 OFFCURVE",
"698 6 OFFCURVE",
"790 62 CURVE",
"718 252 LINE",
"658 202 OFFCURVE",
"580 170 OFFCURVE",
"492 170 CURVE SMOOTH",
"346 170 OFFCURVE",
"284 232 OFFCURVE",
"284 296 CURVE SMOOTH",
"284 396 OFFCURVE",
"402 413 OFFCURVE",
"530 413 CURVE SMOOTH",
"608 413 LINE",
"608 591 LINE",
"520 591 LINE SMOOTH",
"386 591 OFFCURVE",
"322 658 OFFCURVE",
"322 724 CURVE SMOOTH",
"322 798 OFFCURVE",
"410 828 OFFCURVE",
"492 828 CURVE SMOOTH",
"574 828 OFFCURVE",
"658 800 OFFCURVE",
"718 750 CURVE",
"790 936 LINE",
"708 986 OFFCURVE",
"600 1019 OFFCURVE",
"472 1019 CURVE SMOOTH",
"238 1019 OFFCURVE",
"92 926 OFFCURVE",
"92 766 CURVE SMOOTH",
"92 660 OFFCURVE",
"182 532 OFFCURVE",
"302 506 CURVE",
"162 506 OFFCURVE",
"60 394 OFFCURVE",
"60 278 CURVE SMOOTH",
"60 90 OFFCURVE",
"238 -20 OFFCURVE",
"472 -20 CURVE SMOOTH"
);
}
);
width = 810;
}
);
unicode = 025B;
},
{
color = 1;
glyphname = esh;
lastChange = "2021-12-06 07:21:53 +0000";
layers = (
{
anchors = (
{
name = btm;
position = "{457, 0}";
},
{
name = car;
position = "{833, 1660}";
},
{
name = top;
position = "{507, 1800}";
}
);
layerId = "B61D43DE-5272-4FF4-A680-608B6BF5ED9E";
paths = (
{
closed = 1;
nodes = (
"581 0 LINE",
"581 1264 LINE",
"345 1264 LINE",
"345 0 LINE"
);
},
{
closed = 1;
nodes = (
"478 1157 LINE",
"581 1264 LINE",
"581 1396 OFFCURVE",
"630 1402 OFFCURVE",
"701 1402 CURVE SMOOTH",
"786 1402 OFFCURVE",
"814 1376 OFFCURVE",
"854 1348 CURVE",
"906 1539 LINE",
"882 1575 OFFCURVE",
"798 1611 OFFCURVE",
"697 1611 CURVE SMOOTH",
"422 1611 OFFCURVE",
"343 1483 OFFCURVE",
"345 1264 CURVE"
);
},
{
closed = 1;
nodes = (
"448 107 LINE",
"345 0 LINE",
"345 -105 OFFCURVE",
"316 -138 OFFCURVE",
"225 -138 CURVE SMOOTH",
"140 -138 OFFCURVE",
"112 -112 OFFCURVE",
"72 -84 CURVE",
"20 -275 LINE",
"44 -311 OFFCURVE",
"128 -347 OFFCURVE",
"229 -347 CURVE SMOOTH",
"504 -347 OFFCURVE",
"583 -219 OFFCURVE",
"581 0 CURVE"
);
}
);
width = 926;
}
);
unicode = 0283;
},
{
glyphname = schwa;
lastChange = "2019-10-28 18:28:25 +0000";
layers = (
{
anchors = (
{
name = bottom;
position = "{484, -664}";
},
{
name = btm;
position = "{470, 996}";
},
{
name = top;
position = "{558, 1660}";
}
);
layerId = "B61D43DE-5272-4FF4-A680-608B6BF5ED9E";
paths = (
{
closed = 1;
nodes = (
"790 -24 OFFCURVE",
"954 220 OFFCURVE",
"954 510 CURVE SMOOTH",
"954 786 OFFCURVE",
"822 1032 OFFCURVE",
"486 1032 CURVE SMOOTH",
"290 1032 OFFCURVE",
"180 974 OFFCURVE",
"126 938 CURVE",
"206 748 LINE",
"252 800 OFFCURVE",
"362 842 OFFCURVE",
"444 842 CURVE SMOOTH",
"606 842 OFFCURVE",
"684 738 OFFCURVE",
"692 580 CURVE",
"90 580 LINE",
"88 550 OFFCURVE",
"88 514 OFFCURVE",
"88 486 CURVE SMOOTH",
"88 170 OFFCURVE",
"192 -24 OFFCURVE",
"490 -24 CURVE SMOOTH"
);
},
{
closed = 1;
nodes = (
"402 166 OFFCURVE",
"340 214 OFFCURVE",
"340 424 CURVE",
"694 424 LINE",
"686 282 OFFCURVE",
"620 166 OFFCURVE",
"484 166 CURVE SMOOTH"
);
}
);
width = 1050;
}
);
leftKerningGroup = o;
rightKerningGroup = o;
unicode = 0259;
userData = {
com.typemytype.robofont.guides = (
{
angle = 0;
isGlobal = 0;
magnetic = 5;
x = 0;
y = 869;
}
);
};
},
{
color = 1;
glyphname = ezh;
lastChange = "2021-12-06 06:57:46 +0000";
layers = (
{
anchors = (
{
name = bottom;
position = "{467, 0}";
},
{
name = btm;
position = "{550, 0}";
},
{
name = top;
position = "{467, 1661}";
}
);
background = {
components = (
{
name = g;
transform = "{1, 0, 0, 1, -116, 0}";
}
);
};
layerId = "B61D43DE-5272-4FF4-A680-608B6BF5ED9E";
paths = (
{
closed = 1;
nodes = (
"237 265 LINE",
"443 286 OFFCURVE",
"666 248 OFFCURVE",
"666 25 CURVE SMOOTH",
"666 -146 OFFCURVE",
"594 -240 OFFCURVE",
"390 -240 CURVE SMOOTH",
"248 -240 OFFCURVE",
"180 -212 OFFCURVE",
"132 -182 CURVE",
"20 -360 LINE",
"80 -396 OFFCURVE",
"202 -448 OFFCURVE",
"414 -448 CURVE SMOOTH",
"714 -448 OFFCURVE",
"890 -249 OFFCURVE",
"890 10 CURVE SMOOTH",
"890 251 OFFCURVE",
"789 499 OFFCURVE",
"237 427 CURVE"
);
},
{
closed = 1;
nodes = (
"488 418 LINE",
"934 996 LINE",
"62 996 LINE",
"62 782 LINE",
"654 782 LINE",
"624 904 LINE",
"237 427 LINE"
);
}
);
width = 934;
}
);
unicode = 0292;
},
{
glyphname = f;
lastChange = "2022-05-07 02:15:00 +0000";
layers = (
{
anchors = (
{
name = top;
position = "{226, 2060}";
}
);
layerId = "B61D43DE-5272-4FF4-A680-608B6BF5ED9E";
paths = (
{
closed = 1;
nodes = (
"404 0 LINE",
"404 786 LINE",
"646 786 LINE",
"646 996 LINE",
"404 996 LINE",
"404 1186 LINE SMOOTH",
"404 1320 OFFCURVE",
"488 1346 OFFCURVE",
"562 1346 CURVE SMOOTH",
"604 1346 OFFCURVE",
"676 1328 OFFCURVE",
"706 1290 CURVE",
"706 1508 LINE",
"694 1520 OFFCURVE",
"630 1552 OFFCURVE",
"500 1552 CURVE SMOOTH",
"366 1552 OFFCURVE",
"162 1488 OFFCURVE",
"162 1180 CURVE SMOOTH",
"162 996 LINE",
"28 996 LINE",
"28 786 LINE",
"162 786 LINE",
"162 0 LINE"
);
}
);
width = 698;
}
);
leftKerningGroup = f;
rightKerningGroup = f;
unicode = 0066;
userData = {
com.typemytype.robofont.mark = (
0.6,
1,
0.628,
1
);
};
},
{
glyphname = g;
lastChange = "2019-10-28 18:28:25 +0000";
layers = (
{
anchors = (
{
name = top;
position = "{570, 1660}";
}
);
background = {
paths = (
{
closed = 1;
nodes = (
"622 -28 OFFCURVE",
"714 66 OFFCURVE",
"750 204 CURVE",
"750 0 LINE",
"968 0 LINE",
"968 1520 LINE",
"732 1520 LINE",
"732 970 LINE",
"750 824 LINE",
"722 950 OFFCURVE",
"622 1020 OFFCURVE",
"486 1020 CURVE SMOOTH",
"220 1020 OFFCURVE",
"86 824 OFFCURVE",
"86 496 CURVE SMOOTH",
"86 180 OFFCURVE",
"240 -28 OFFCURVE",
"482 -28 CURVE SMOOTH"
);
},
{
closed = 1;
nodes = (
"430 170 OFFCURVE",
"348 276 OFFCURVE",
"348 496 CURVE SMOOTH",
"348 742 OFFCURVE",
"452 818 OFFCURVE",
"546 818 CURVE SMOOTH",
"668 818 OFFCURVE",
"726 700 OFFCURVE",
"726 492 CURVE SMOOTH",
"726 264 OFFCURVE",
"636 170 OFFCURVE",
"540 170 CURVE SMOOTH"
);
}
);
};
layerId = "B61D43DE-5272-4FF4-A680-608B6BF5ED9E";
paths = (
{
closed = 1;
nodes = (
"174 -360 LINE",
"234 -396 OFFCURVE",
"356 -448 OFFCURVE",
"518 -448 CURVE SMOOTH",
"818 -448 OFFCURVE",
"974 -258 OFFCURVE",
"974 48 CURVE SMOOTH",
"974 996 LINE",
"778 996 LINE",
"750 824 LINE",
"732 920 OFFCURVE",
"648 1020 OFFCURVE",
"484 1020 CURVE SMOOTH",
"264 1020 OFFCURVE",
"86 864 OFFCURVE",
"86 496 CURVE SMOOTH",
"86 134 OFFCURVE",
"264 -12 OFFCURVE",
"490 -12 CURVE SMOOTH",
"652 -12 OFFCURVE",
"722 102 OFFCURVE",
"750 204 CURVE",
"750 48 LINE SMOOTH",
"750 -146 OFFCURVE",
"664 -230 OFFCURVE",
"494 -230 CURVE SMOOTH",
"402 -230 OFFCURVE",
"334 -202 OFFCURVE",
"286 -172 CURVE"
);
},
{
closed = 1;
nodes = (
"426 184 OFFCURVE",
"344 282 OFFCURVE",
"344 498 CURVE SMOOTH",
"344 736 OFFCURVE",
"446 818 OFFCURVE",
"548 818 CURVE SMOOTH",
"670 818 OFFCURVE",
"726 690 OFFCURVE",
"726 500 CURVE SMOOTH",
"726 298 OFFCURVE",
"656 184 OFFCURVE",
"540 184 CURVE SMOOTH"
);
}
);
width = 1116;
}
);
leftKerningGroup = o;
leftMetricsKey = d;
rightKerningGroup = g;
unicode = 0067;
},
{
color = 1;
glyphname = "gamma-latin";
lastChange = "2021-12-06 07:44:05 +0000";
layers = (
{
anchors = (
{
name = top;
position = "{548, 1660}";
}
);
background = {
paths = (
{
closed = 1;
nodes = (
"1030 996 LINE",
"785 996 LINE",
"611 634 LINE",
"482 380 LINE",
"625 380 LINE",
"486 634 LINE",
"310 996 LINE",
"68 996 LINE",
"471 277 LINE",
"639 277 LINE"
);
},
{
closed = 1;
nodes = (
"377 334 OFFCURVE",
"208 164 OFFCURVE",
"208 -53 CURVE SMOOTH",
"208 -241 OFFCURVE",
"365 -335 OFFCURVE",
"557 -335 CURVE SMOOTH",
"731 -335 OFFCURVE",
"888 -241 OFFCURVE",
"888 -53 CURVE SMOOTH",
"888 164 OFFCURVE",
"714 304 OFFCURVE",
"639 380 CURVE",
"461 380 LINE"
);
},
{
closed = 1;
nodes = (
"672 -88 OFFCURVE",
"655 -178 OFFCURVE",
"557 -178 CURVE SMOOTH",
"441 -178 OFFCURVE",
"424 -88 OFFCURVE",
"424 -53 CURVE SMOOTH",
"424 34 OFFCURVE",
"481 152 OFFCURVE",
"549 225 CURVE",
"609 152 OFFCURVE",
"672 34 OFFCURVE",
"672 -53 CURVE SMOOTH"
);
}
);
};
layerId = "B61D43DE-5272-4FF4-A680-608B6BF5ED9E";
paths = (
{
closed = 1;
nodes = (
"627 277 LINE",
"1030 996 LINE",
"788 996 LINE",
"612 634 LINE",
"482 380 LINE",
"616 380 LINE",
"487 634 LINE",
"313 996 LINE",
"68 996 LINE",
"459 277 LINE"
);
},
{
closed = 1;
nodes = (
"459 410 LINE",
"377 274 OFFCURVE",
"209 164 OFFCURVE",
"209 -53 CURVE SMOOTH",
"209 -241 OFFCURVE",
"367 -335 OFFCURVE",
"550 -335 CURVE SMOOTH",
"733 -335 OFFCURVE",
"890 -241 OFFCURVE",
"890 -53 CURVE SMOOTH",
"890 164 OFFCURVE",
"721 274 OFFCURVE",
"637 400 CURVE"
);
},
{
closed = 1;
nodes = (
"425 34 OFFCURVE",
"491 152 OFFCURVE",
"549 225 CURVE",
"607 152 OFFCURVE",
"674 34 OFFCURVE",
"674 -53 CURVE SMOOTH",
"674 -88 OFFCURVE",
"657 -178 OFFCURVE",
"550 -178 CURVE SMOOTH",
"443 -178 OFFCURVE",
"425 -88 OFFCURVE",
"425 -53 CURVE SMOOTH"
);
}
);
width = 1098;
}
);
unicode = 0263;
},
{
color = 4;
glyphname = ghook;
lastChange = "2021-12-06 03:29:20 +0000";
layers = (
{
anchors = (
{
name = top;
position = "{570, 1660}";
}
);
layerId = "B61D43DE-5272-4FF4-A680-608B6BF5ED9E";
paths = (
{
closed = 1;
nodes = (
"174 -360 LINE",
"234 -396 OFFCURVE",
"356 -448 OFFCURVE",
"518 -448 CURVE SMOOTH",
"818 -448 OFFCURVE",
"974 -258 OFFCURVE",
"974 48 CURVE SMOOTH",
"974 1030 LINE",
"750 1030 LINE",
"750 824 LINE",
"732 920 OFFCURVE",
"648 1020 OFFCURVE",
"484 1020 CURVE SMOOTH",
"264 1020 OFFCURVE",
"86 864 OFFCURVE",
"86 496 CURVE SMOOTH",
"86 134 OFFCURVE",
"264 -12 OFFCURVE",
"490 -12 CURVE SMOOTH",
"652 -12 OFFCURVE",
"722 102 OFFCURVE",
"750 204 CURVE",
"750 48 LINE SMOOTH",
"750 -146 OFFCURVE",
"664 -230 OFFCURVE",
"494 -230 CURVE SMOOTH",
"402 -230 OFFCURVE",
"334 -202 OFFCURVE",
"286 -172 CURVE"
);
},
{
closed = 1;
nodes = (
"426 184 OFFCURVE",
"344 282 OFFCURVE",
"344 498 CURVE SMOOTH",
"344 736 OFFCURVE",
"446 818 OFFCURVE",
"548 818 CURVE SMOOTH",
"670 818 OFFCURVE",
"726 690 OFFCURVE",
"726 500 CURVE SMOOTH",
"726 298 OFFCURVE",
"656 184 OFFCURVE",
"540 184 CURVE SMOOTH"
);
},
{
closed = 1;
nodes = (
"871 889 LINE",
"974 1030 LINE",
"974 1192 OFFCURVE",
"1023 1209 OFFCURVE",
"1094 1209 CURVE SMOOTH",
"1179 1209 OFFCURVE",
"1207 1172 OFFCURVE",
"1247 1144 CURVE",
"1299 1335 LINE",
"1275 1371 OFFCURVE",
"1191 1418 OFFCURVE",
"1090 1418 CURVE SMOOTH",
"815 1418 OFFCURVE",
"748 1279 OFFCURVE",
"750 1030 CURVE"
);
}
);
width = 1116;
}
);
unicode = 0260;
},
{
glyphname = glottalstop;
lastChange = "2021-12-06 03:23:05 +0000";
layers = (
{
layerId = "B61D43DE-5272-4FF4-A680-608B6BF5ED9E";
paths = (
{
closed = 1;
nodes = (
"326 0 LINE",
"569 0 LINE",
"569 399 LINE",
"569 513 OFFCURVE",
"569 623 OFFCURVE",
"656 679 CURVE SMOOTH",
"785 762 OFFCURVE",
"845 877 OFFCURVE",
"845 1046 CURVE SMOOTH",
"845 1265 OFFCURVE",
"706 1418 OFFCURVE",
"432 1418 CURVE SMOOTH",
"279 1418 OFFCURVE",
"156 1358 OFFCURVE",
"120 1322 CURVE",
"199 1113 LINE",
"251 1153 OFFCURVE",
"296 1209 OFFCURVE",
"426 1209 CURVE SMOOTH",
"535 1209 OFFCURVE",
"595 1126 OFFCURVE",
"595 1039 CURVE SMOOTH",
"595 924 OFFCURVE",
"576 875 OFFCURVE",
"440 787 CURVE SMOOTH",
"312 705 OFFCURVE",
"326 528 OFFCURVE",
"326 399 CURVE"
);
}
);
width = 965;
}
);
unicode = 0294;
},
{
glyphname = glottalstopreversed;
lastChange = "2021-12-06 03:22:44 +0000";
layers = (
{
layerId = "B61D43DE-5272-4FF4-A680-608B6BF5ED9E";
paths = (
{
closed = 1;
nodes = (
"639 528 OFFCURVE",
"653 705 OFFCURVE",
"525 787 CURVE SMOOTH",
"389 875 OFFCURVE",
"370 924 OFFCURVE",
"370 1039 CURVE SMOOTH",
"370 1126 OFFCURVE",
"430 1209 OFFCURVE",
"539 1209 CURVE SMOOTH",
"669 1209 OFFCURVE",
"714 1153 OFFCURVE",
"766 1113 CURVE",
"845 1322 LINE",
"809 1358 OFFCURVE",
"686 1418 OFFCURVE",
"533 1418 CURVE SMOOTH",
"259 1418 OFFCURVE",
"120 1265 OFFCURVE",
"120 1046 CURVE SMOOTH",
"120 877 OFFCURVE",
"180 762 OFFCURVE",
"309 679 CURVE SMOOTH",
"396 623 OFFCURVE",
"396 513 OFFCURVE",
"396 399 CURVE",
"396 0 LINE",
"639 0 LINE",
"639 399 LINE"
);
}
);
width = 965;
}
);
unicode = 0295;
},
{
glyphname = glottalstopsmall;
lastChange = "2021-12-06 03:23:17 +0000";
layers = (
{
anchors = (
{
name = top;
position = "{412, 1660}";
}
);
layerId = "B61D43DE-5272-4FF4-A680-608B6BF5ED9E";
paths = (
{
closed = 1;
nodes = (
"569 0 LINE",
"569 114 OFFCURVE",
"569 224 OFFCURVE",
"656 280 CURVE SMOOTH",
"785 363 OFFCURVE",
"845 478 OFFCURVE",
"845 647 CURVE SMOOTH",
"845 866 OFFCURVE",
"706 1019 OFFCURVE",
"432 1019 CURVE SMOOTH",
"279 1019 OFFCURVE",
"156 959 OFFCURVE",
"120 923 CURVE",
"199 714 LINE",
"251 754 OFFCURVE",
"296 810 OFFCURVE",
"426 810 CURVE SMOOTH",
"535 810 OFFCURVE",
"595 727 OFFCURVE",
"595 640 CURVE SMOOTH",
"595 525 OFFCURVE",
"576 476 OFFCURVE",
"440 388 CURVE SMOOTH",
"312 306 OFFCURVE",
"326 129 OFFCURVE",
"326 0 CURVE"
);
}
);
width = 965;
}
);
unicode = 0242;
},
{
glyphname = h;
lastChange = "2019-10-28 18:28:25 +0000";
layers = (
{
anchors = (
{
name = btm;
position = "{564, 0}";
},
{
name = top;
position = "{616, 1744}";
}
);
layerId = "B61D43DE-5272-4FF4-A680-608B6BF5ED9E";
paths = (
{
closed = 1;
nodes = (
"402 0 LINE",
"402 632 LINE SMOOTH",
"402 742 OFFCURVE",
"488 818 OFFCURVE",
"582 818 CURVE SMOOTH",
"676 818 OFFCURVE",
"732 742 OFFCURVE",
"732 632 CURVE SMOOTH",
"732 0 LINE",
"988 0 LINE",
"988 658 LINE SMOOTH",
"988 884 OFFCURVE",
"890 1020 OFFCURVE",
"690 1020 CURVE SMOOTH",
"494 1020 OFFCURVE",
"402 910 OFFCURVE",
"356 816 CURVE",
"384 776 LINE",
"392 1020 LINE",
"392 1524 LINE",
"156 1524 LINE",
"156 0 LINE"
);
}
);
width = 1144;
}
);
leftKerningGroup = h;
rightKerningGroup = n;
unicode = 0068;
},
{
color = 1;
glyphname = hhook;
lastChange = "2021-12-06 05:18:09 +0000";
layers = (
{
anchors = (
{
name = btm;
position = "{564, 0}";
},
{
name = top;
position = "{616, 1744}";
}
);
layerId = "B61D43DE-5272-4FF4-A680-608B6BF5ED9E";
paths = (
{
closed = 1;
nodes = (
"402 0 LINE",
"402 632 LINE SMOOTH",
"402 742 OFFCURVE",
"488 818 OFFCURVE",
"582 818 CURVE SMOOTH",
"676 818 OFFCURVE",
"732 742 OFFCURVE",
"732 632 CURVE SMOOTH",
"732 0 LINE",
"988 0 LINE",
"988 658 LINE SMOOTH",
"988 884 OFFCURVE",
"890 1020 OFFCURVE",
"690 1020 CURVE SMOOTH",
"494 1020 OFFCURVE",
"402 910 OFFCURVE",
"356 816 CURVE",
"384 776 LINE",
"392 1020 LINE",
"392 1140 LINE",
"156 1143 LINE",
"156 0 LINE"
);
},
{
closed = 1;
nodes = (
"289 1068 LINE",
"392 1140 LINE",
"392 1272 OFFCURVE",
"466 1340 OFFCURVE",
"575 1340 CURVE SMOOTH",
"685 1340 OFFCURVE",
"730 1284 OFFCURVE",
"782 1244 CURVE",
"831 1456 LINE",
"795 1492 OFFCURVE",
"704 1552 OFFCURVE",
"551 1552 CURVE SMOOTH",
"296 1552 OFFCURVE",
"156 1388 OFFCURVE",
"156 1143 CURVE"
);
}
);
width = 1144;
}
);
unicode = 0266;
},
{
glyphname = i;
lastChange = "2019-10-28 18:28:25 +0000";
layers = (
{
anchors = (
{
name = btm;
position = "{286, 0}";
}
);
layerId = "B61D43DE-5272-4FF4-A680-608B6BF5ED9E";
paths = (
{
closed = 1;
nodes = (
"410 0 LINE",
"410 996 LINE",
"150 996 LINE",
"150 0 LINE"
);
},
{
closed = 1;
nodes = (
"420 1158 LINE",
"420 1424 LINE",
"140 1424 LINE",
"140 1158 LINE"
);
}
);
width = 560;
}
);
leftKerningGroup = i;
rightKerningGroup = i;
unicode = 0069;
},
{
glyphname = idotless;
lastChange = "2019-10-28 18:28:25 +0000";
layers = (
{
anchors = (
{
name = btm;
position = "{284, 0}";
},
{
name = top;
position = "{280, 1660}";
}
);
layerId = "B61D43DE-5272-4FF4-A680-608B6BF5ED9E";
paths = (
{
closed = 1;
nodes = (
"410 0 LINE",
"410 996 LINE",
"150 996 LINE",
"150 0 LINE"
);
}
);
width = 560;
}
);
leftKerningGroup = i;
rightKerningGroup = i;
unicode = 0131;
},
{
color = 4;
glyphname = iogonek;
lastChange = "2021-12-06 03:51:46 +0000";
layers = (
{
anchors = (
{
name = btm;
position = "{284, 0}";
},
{
name = top;
position = "{280, 1660}";
}
);
layerId = "B61D43DE-5272-4FF4-A680-608B6BF5ED9E";
paths = (
{
closed = 1;
nodes = (
"420 1158 LINE",
"420 1424 LINE",
"140 1424 LINE",
"140 1158 LINE"
);
},
{
closed = 1;
nodes = (
"410 996 LINE",
"150 996 LINE",
"150 0 LINE",
"29 -42 OFFCURVE",
"-49 -134 OFFCURVE",
"-49 -256 CURVE SMOOTH",
"-49 -398 OFFCURVE",
"41 -480 OFFCURVE",
"249 -480 CURVE SMOOTH",
"318 -480 OFFCURVE",
"377 -468 OFFCURVE",
"417 -449 CURVE",
"417 -268 LINE",
"369 -291 OFFCURVE",
"321 -298 OFFCURVE",
"281 -298 CURVE SMOOTH",
"203 -298 OFFCURVE",
"157 -270 OFFCURVE",
"157 -202 CURVE SMOOTH",
"157 -125 OFFCURVE",
"267 -37 OFFCURVE",
"410 4 CURVE"
);
}
);
width = 560;
}
);
leftKerningGroup = i;
rightKerningGroup = i;
unicode = 012F;
},
{
glyphname = "iota-latin";
lastChange = "2021-12-06 03:38:02 +0000";
layers = (
{
anchors = (
{
name = bottom;
position = "{374, -1064}";
},
{
name = top;
position = "{265, 1552}";
}
);
layerId = "B61D43DE-5272-4FF4-A680-608B6BF5ED9E";
paths = (
{
closed = 1;
nodes = (
"150 321 LINE SMOOTH",
"150 64 OFFCURVE",
"301 0 OFFCURVE",
"466 0 CURVE SMOOTH",
"534 0 OFFCURVE",
"604 32 OFFCURVE",
"609 44 CURVE",
"609 272 LINE",
"595 254 OFFCURVE",
"561 236 OFFCURVE",
"521 236 CURVE SMOOTH",
"442 236 OFFCURVE",
"392 262 OFFCURVE",
"392 396 CURVE SMOOTH",
"392 1020 LINE",
"150 1020 LINE"
);
}
);
width = 629;
}
);
leftMetricsKey = idotless;
unicode = 0269;
},
{
glyphname = j;
lastChange = "2019-10-28 18:28:25 +0000";
layers = (
{
anchors = (
{
name = _top;
position = "{278, 1660}";
},
{
name = top;
position = "{270, 1664}";
}
);
layerId = "B61D43DE-5272-4FF4-A680-608B6BF5ED9E";
paths = (
{
closed = 1;
nodes = (
"418 1158 LINE",
"418 1424 LINE",
"138 1424 LINE",
"138 1158 LINE"
);
},
{
closed = 1;
nodes = (
"282 -488 OFFCURVE",
"394 -384 OFFCURVE",
"400 -126 CURVE SMOOTH",
"400 996 LINE",
"152 996 LINE",
"152 -116 LINE SMOOTH",
"152 -248 OFFCURVE",
"94 -346 OFFCURVE",
"10 -348 CURVE",
"96 -500 LINE"
);
}
);
width = 552;
}
);
leftKerningGroup = j;
rightKerningGroup = j;
unicode = 006A;
},
{
glyphname = jdotless;
lastChange = "2019-10-28 18:28:25 +0000";
layers = (
{
anchors = (
{
name = top;
position = "{272, 1664}";
}
);
layerId = "B61D43DE-5272-4FF4-A680-608B6BF5ED9E";
paths = (
{
closed = 1;
nodes = (
"282 -488 OFFCURVE",
"400 -360 OFFCURVE",
"400 -102 CURVE SMOOTH",
"400 996 LINE",
"154 996 LINE",
"154 -116 LINE SMOOTH",
"154 -248 OFFCURVE",
"94 -346 OFFCURVE",
"10 -348 CURVE",
"96 -500 LINE"
);
}
);
width = 552;
}
);
leftKerningGroup = j;
leftMetricsKey = j;
widthMetricsKey = j;
rightKerningGroup = j;
unicode = 0237;
},
{
glyphname = k;
lastChange = "2019-10-28 18:28:25 +0000";
layers = (
{
anchors = (
{
name = btm;
position = "{528, 0}";
},
{
name = top;
position = "{582, 1660}";
}
);
layerId = "B61D43DE-5272-4FF4-A680-608B6BF5ED9E";
paths = (
{
closed = 1;
nodes = (
"392 0 LINE",
"392 238 LINE",
"384 482 LINE",
"706 0 LINE",
"1008 0 LINE",
"626 538 LINE",
"974 996 LINE",
"690 996 LINE",
"384 540 LINE",
"392 774 LINE",
"392 1520 LINE",
"156 1520 LINE",
"156 0 LINE"
);
}
);
width = 1014;
}
);
leftKerningGroup = h;
leftMetricsKey = h;
rightKerningGroup = k;
unicode = 006B;
userData = {
com.typemytype.robofont.mark = (
0.6,
1,
0.628,
1
);
};
},
{
glyphname = kgreenlandic;
lastChange = "2019-10-28 18:28:25 +0000";
layers = (
{
anchors = (
{
name = btm;
position = "{574, -166}";
},
{
name = top;
position = "{574, 1660}";
}
);
layerId = "B61D43DE-5272-4FF4-A680-608B6BF5ED9E";
paths = (
{
closed = 1;
nodes = (
"390 0 LINE",
"390 226 LINE",
"382 470 LINE",
"706 0 LINE",
"1008 0 LINE",
"618 538 LINE",
"966 996 LINE",
"682 996 LINE",
"382 552 LINE",
"390 774 LINE",
"390 996 LINE",
"148 996 LINE",
"148 0 LINE"
);
}
);
width = 1014;
}
);
leftKerningGroup = h;
leftMetricsKey = n;
rightKerningGroup = k;
rightMetricsKey = k;
unicode = 0138;
userData = {
com.typemytype.robofont.mark = (
0.6,
1,
0.628,
1
);
};
},
{
color = 1;
glyphname = khook;
lastChange = "2021-12-06 03:51:54 +0000";
layers = (
{
anchors = (
{
name = btm;
position = "{528, 0}";
},
{
name = top;
position = "{582, 1660}";
}
);
layerId = "B61D43DE-5272-4FF4-A680-608B6BF5ED9E";
paths = (
{
closed = 1;
nodes = (
"392 0 LINE",
"392 238 LINE",
"384 482 LINE",
"706 0 LINE",
"1008 0 LINE",
"626 538 LINE",
"974 996 LINE",
"690 996 LINE",
"384 540 LINE",
"392 774 LINE",
"392 1169 LINE",
"263 1324 LINE",
"156 1173 LINE",
"156 0 LINE"
);
},
{
closed = 1;
nodes = (
"289 1098 LINE",
"392 1170 LINE",
"392 1302 OFFCURVE",
"466 1340 OFFCURVE",
"575 1340 CURVE SMOOTH",
"685 1340 OFFCURVE",
"730 1284 OFFCURVE",
"782 1244 CURVE",
"831 1456 LINE",
"795 1492 OFFCURVE",
"704 1552 OFFCURVE",
"551 1552 CURVE SMOOTH",
"296 1552 OFFCURVE",
"154 1392 OFFCURVE",
"156 1173 CURVE"
);
}
);
width = 1014;
}
);
unicode = 0199;
},
{
glyphname = l;
lastChange = "2021-12-06 03:50:43 +0000";
layers = (
{
anchors = (
{
name = bottom;
position = "{273, 0}";
},
{
name = car;
position = "{640, 1660}";
},
{
name = top;
position = "{314, 1800}";
}
);
layerId = "B61D43DE-5272-4FF4-A680-608B6BF5ED9E";
paths = (
{
closed = 1;
nodes = (
"396 0 LINE",
"396 1520 LINE",
"152 1520 LINE",
"152 0 LINE"
);
}
);
width = 548;
}
);
leftKerningGroup = h;
rightKerningGroup = l;
unicode = 006C;
},
{
glyphname = ldot;
lastChange = "2019-10-28 18:28:25 +0000";
layers = (
{
components = (
{
name = l;
}
);
layerId = "B61D43DE-5272-4FF4-A680-608B6BF5ED9E";
paths = (
{
closed = 1;
nodes = (
"890 628 LINE",
"890 886 LINE",
"664 886 LINE",
"664 628 LINE"
);
}
);
width = 1006;
}
);
leftKerningGroup = h;
rightKerningGroup = l;
rightMetricsKey = periodcentered.loclCAT.case;
unicode = 0140;
},
{
glyphname = lslash;
lastChange = "2019-10-28 18:28:25 +0000";
layers = (
{
components = (
{
name = l;
transform = "{1, 0, 0, 1, 16, 0}";
}
);
layerId = "B61D43DE-5272-4FF4-A680-608B6BF5ED9E";
paths = (
{
closed = 1;
nodes = (
"584 790 LINE",
"584 1012 LINE",
"20 688 LINE",
"20 466 LINE"
);
}
);
width = 604;
}
);
leftKerningGroup = lslash;
rightKerningGroup = lslash;
unicode = 0142;
},
{
glyphname = m;
lastChange = "2019-10-28 18:28:25 +0000";
layers = (
{
anchors = (
{
name = btm;
position = "{856, 0}";
},
{
name = top;
position = "{884, 1660}";
}
);
layerId = "B61D43DE-5272-4FF4-A680-608B6BF5ED9E";
paths = (
{
closed = 1;
nodes = (
"404 0 LINE",
"404 632 LINE SMOOTH",
"404 742 OFFCURVE",
"484 822 OFFCURVE",
"580 822 CURVE SMOOTH",
"674 822 OFFCURVE",
"724 742 OFFCURVE",
"724 632 CURVE SMOOTH",
"724 0 LINE",
"980 0 LINE",
"980 652 LINE SMOOTH",
"980 880 OFFCURVE",
"880 1020 OFFCURVE",
"678 1020 CURVE SMOOTH",
"492 1020 OFFCURVE",
"404 910 OFFCURVE",
"356 816 CURVE",
"388 776 LINE",
"378 996 LINE",
"148 996 LINE",
"148 0 LINE"
);
},
{
closed = 1;
nodes = (
"1554 0 LINE",
"1554 658 LINE SMOOTH",
"1554 884 OFFCURVE",
"1456 1020 OFFCURVE",
"1256 1020 CURVE SMOOTH",
"1070 1020 OFFCURVE",
"982 916 OFFCURVE",
"934 826 CURVE",
"928 740 LINE",
"980 632 LINE",
"980 742 OFFCURVE",
"1070 818 OFFCURVE",
"1164 818 CURVE SMOOTH",
"1260 818 OFFCURVE",
"1300 742 OFFCURVE",
"1300 632 CURVE SMOOTH",
"1300 0 LINE"
);
}
);
width = 1694;
}
);
leftKerningGroup = n;
leftMetricsKey = n;
rightKerningGroup = n;
rightMetricsKey = n;
unicode = 006D;
},
{
glyphname = n;
lastChange = "2021-12-06 01:56:43 +0000";
layers = (
{
anchors = (
{
name = bottom;
position = "{568, 0}";
},
{
name = top;
position = "{588, 1660}";
}
);
layerId = "B61D43DE-5272-4FF4-A680-608B6BF5ED9E";
paths = (
{
closed = 1;
nodes = (
"404 0 LINE",
"404 636 LINE SMOOTH",
"404 746 OFFCURVE",
"486 822 OFFCURVE",
"580 822 CURVE SMOOTH",
"676 822 OFFCURVE",
"722 746 OFFCURVE",
"722 636 CURVE SMOOTH",
"722 0 LINE",
"978 0 LINE",
"978 658 LINE SMOOTH",
"978 884 OFFCURVE",
"880 1020 OFFCURVE",
"678 1020 CURVE SMOOTH",
"494 1020 OFFCURVE",
"404 910 OFFCURVE",
"356 816 CURVE",
"388 776 LINE",
"380 996 LINE",
"148 996 LINE",
"148 0 LINE"
);
}
);
width = 1118;
}
);
leftKerningGroup = n;
rightKerningGroup = n;
unicode = 006E;
},
{
glyphname = eng;
lastChange = "2019-10-28 18:28:25 +0000";
layers = (
{
anchors = (
{
name = btm;
position = "{568, 0}";
},
{
name = top;
position = "{588, 1660}";
}
);
layerId = "B61D43DE-5272-4FF4-A680-608B6BF5ED9E";
paths = (
{
closed = 1;
nodes = (
"860 -488 OFFCURVE",
"972 -384 OFFCURVE",
"978 -126 CURVE SMOOTH",
"978 658 LINE SMOOTH",
"978 884 OFFCURVE",
"880 1020 OFFCURVE",
"678 1020 CURVE SMOOTH",
"526 1020 OFFCURVE",
"438 944 OFFCURVE",
"384 866 CURVE",
"380 996 LINE",
"148 996 LINE",
"148 0 LINE",
"404 0 LINE",
"404 636 LINE SMOOTH",
"404 746 OFFCURVE",
"486 822 OFFCURVE",
"580 822 CURVE SMOOTH",
"676 822 OFFCURVE",
"722 746 OFFCURVE",
"722 636 CURVE SMOOTH",
"722 -116 LINE SMOOTH",
"722 -248 OFFCURVE",
"672 -346 OFFCURVE",
"588 -348 CURVE",
"674 -500 LINE"
);
}
);
width = 1118;
}
);
leftKerningGroup = n;
leftMetricsKey = n;
rightKerningGroup = j;
rightMetricsKey = n;
unicode = 014B;
},
{
glyphname = nhookleft;
lastChange = "2021-12-06 05:17:14 +0000";
layers = (
{
anchors = (
{
name = bottom;
position = "{761, 0}";
},
{
name = top;
position = "{781, 1660}";
}
);
layerId = "B61D43DE-5272-4FF4-A680-608B6BF5ED9E";
paths = (
{
closed = 1;
nodes = (
"597 0 LINE",
"597 636 LINE SMOOTH",
"597 746 OFFCURVE",
"679 822 OFFCURVE",
"773 822 CURVE SMOOTH",
"869 822 OFFCURVE",
"915 746 OFFCURVE",
"915 636 CURVE SMOOTH",
"915 0 LINE",
"1171 0 LINE",
"1171 658 LINE SMOOTH",
"1171 884 OFFCURVE",
"1073 1020 OFFCURVE",
"871 1020 CURVE SMOOTH",
"687 1020 OFFCURVE",
"597 910 OFFCURVE",
"549 816 CURVE",
"581 776 LINE",
"573 996 LINE",
"341 996 LINE",
"341 0 LINE"
);
},
{
closed = 1;
nodes = (
"448 107 LINE",
"341 0 LINE",
"341 -101 OFFCURVE",
"317 -138 OFFCURVE",
"225 -138 CURVE SMOOTH",
"140 -138 OFFCURVE",
"112 -112 OFFCURVE",
"72 -84 CURVE",
"20 -275 LINE",
"44 -311 OFFCURVE",
"128 -347 OFFCURVE",
"229 -347 CURVE SMOOTH",
"504 -347 OFFCURVE",
"599 -219 OFFCURVE",
"597 0 CURVE"
);
}
);
width = 1311;
}
);
leftMetricsKey = esh;
unicode = 0272;
},
{
glyphname = o;
lastChange = "2019-10-28 18:28:25 +0000";
layers = (
{
anchors = (
{
name = btm;
position = "{548, 0}";
},
{
name = top;
position = "{544, 1660}";
}
);
layerId = "B61D43DE-5272-4FF4-A680-608B6BF5ED9E";
paths = (
{
closed = 1;
nodes = (
"838 -20 OFFCURVE",
"1004 184 OFFCURVE",
"1004 500 CURVE SMOOTH",
"1004 816 OFFCURVE",
"846 1020 OFFCURVE",
"552 1020 CURVE SMOOTH",
"258 1020 OFFCURVE",
"84 828 OFFCURVE",
"84 500 CURVE SMOOTH",
"84 174 OFFCURVE",
"250 -20 OFFCURVE",
"544 -20 CURVE SMOOTH"
);
},
{
closed = 1;
nodes = (
"422 180 OFFCURVE",
"350 270 OFFCURVE",
"350 500 CURVE SMOOTH",
"350 730 OFFCURVE",
"422 822 OFFCURVE",
"548 822 CURVE SMOOTH",
"672 822 OFFCURVE",
"738 712 OFFCURVE",
"738 500 CURVE SMOOTH",
"738 288 OFFCURVE",
"672 180 OFFCURVE",
"548 180 CURVE SMOOTH"
);
}
);
width = 1088;
}
);
leftKerningGroup = o;
rightKerningGroup = o;
unicode = 006F;
},
{
glyphname = ohorn;
lastChange = "2019-10-28 18:28:25 +0000";
layers = (
{
anchors = (
{
name = btm;
position = "{556, 0}";
},
{
name = top;
position = "{550, 1660}";
}
);
components = (
{
name = o;
}
);
layerId = "B61D43DE-5272-4FF4-A680-608B6BF5ED9E";
paths = (
{
closed = 1;
nodes = (
"996 850 OFFCURVE",
"1120 948 OFFCURVE",
"1120 1070 CURVE SMOOTH",
"1120 1152 OFFCURVE",
"1116 1182 OFFCURVE",
"1106 1214 CURVE",
"908 1214 LINE",
"920 1182 OFFCURVE",
"924 1168 OFFCURVE",
"924 1114 CURVE SMOOTH",
"924 1020 OFFCURVE",
"870 974 OFFCURVE",
"752 974 CURVE",
"880 850 LINE"
);
}
);
width = 1112;
}
);
leftKerningGroup = o;
leftMetricsKey = o;
rightKerningGroup = o;
unicode = 01A1;
},
{
glyphname = ohornacute;
lastChange = "2019-10-28 18:28:25 +0000";
layers = (
{
components = (
{
name = o;
},
{
name = acutecomb;
transform = "{1, 0, 0, 1, 550, 0}";
}
);
layerId = "B61D43DE-5272-4FF4-A680-608B6BF5ED9E";
paths = (
{
closed = 1;
nodes = (
"996 850 OFFCURVE",
"1120 948 OFFCURVE",
"1120 1070 CURVE SMOOTH",
"1120 1152 OFFCURVE",
"1116 1182 OFFCURVE",
"1106 1214 CURVE",
"908 1214 LINE",
"920 1182 OFFCURVE",
"924 1168 OFFCURVE",
"924 1114 CURVE SMOOTH",
"924 1020 OFFCURVE",
"870 974 OFFCURVE",
"752 974 CURVE",
"880 850 LINE"
);
}
);
width = 1112;
}
);
leftKerningGroup = o;
rightKerningGroup = o;
unicode = 1EDB;
},
{
glyphname = ohorndotbelow;
lastChange = "2019-10-28 18:28:25 +0000";
layers = (
{
components = (
{
name = o;
},
{
name = dotbelowcomb;
transform = "{1, 0, 0, 1, 556, 0}";
}
);
layerId = "B61D43DE-5272-4FF4-A680-608B6BF5ED9E";
paths = (
{
closed = 1;
nodes = (
"996 850 OFFCURVE",
"1120 948 OFFCURVE",
"1120 1070 CURVE SMOOTH",
"1120 1152 OFFCURVE",
"1116 1182 OFFCURVE",
"1106 1214 CURVE",
"908 1214 LINE",
"920 1182 OFFCURVE",
"924 1168 OFFCURVE",
"924 1114 CURVE SMOOTH",
"924 1020 OFFCURVE",
"870 974 OFFCURVE",
"752 974 CURVE",
"880 850 LINE"
);
}
);
width = 1112;
}
);
leftKerningGroup = o;
rightKerningGroup = o;
unicode = 1EE3;
},
{
glyphname = ohorngrave;
lastChange = "2019-10-28 18:28:25 +0000";
layers = (
{
components = (
{
name = o;
},
{
name = gravecomb;
transform = "{1, 0, 0, 1, 550, 0}";
}
);
layerId = "B61D43DE-5272-4FF4-A680-608B6BF5ED9E";
paths = (
{
closed = 1;
nodes = (
"996 850 OFFCURVE",
"1120 948 OFFCURVE",
"1120 1070 CURVE SMOOTH",
"1120 1152 OFFCURVE",
"1116 1182 OFFCURVE",
"1106 1214 CURVE",
"908 1214 LINE",
"920 1182 OFFCURVE",
"924 1168 OFFCURVE",
"924 1114 CURVE SMOOTH",
"924 1020 OFFCURVE",
"870 974 OFFCURVE",
"752 974 CURVE",
"880 850 LINE"
);
}
);
width = 1112;
}
);
leftKerningGroup = o;
rightKerningGroup = o;
unicode = 1EDD;
},
{
glyphname = ohornhookabove;
lastChange = "2019-10-28 18:28:25 +0000";
layers = (
{
components = (
{
name = o;
},
{
name = hookabovecomb;
transform = "{1, 0, 0, 1, 550, 0}";
}
);
layerId = "B61D43DE-5272-4FF4-A680-608B6BF5ED9E";
paths = (
{
closed = 1;
nodes = (
"996 850 OFFCURVE",
"1120 948 OFFCURVE",
"1120 1070 CURVE SMOOTH",
"1120 1152 OFFCURVE",
"1116 1182 OFFCURVE",
"1106 1214 CURVE",
"908 1214 LINE",
"920 1182 OFFCURVE",
"924 1168 OFFCURVE",
"924 1114 CURVE SMOOTH",
"924 1020 OFFCURVE",
"870 974 OFFCURVE",
"752 974 CURVE",
"880 850 LINE"
);
}
);
width = 1112;
}
);
leftKerningGroup = o;
rightKerningGroup = o;
unicode = 1EDF;
},
{
glyphname = ohorntilde;
lastChange = "2019-10-28 18:28:25 +0000";
layers = (
{
components = (
{
name = o;
},
{
name = tildecomb;
transform = "{1, 0, 0, 1, 550, 0}";
}
);
layerId = "B61D43DE-5272-4FF4-A680-608B6BF5ED9E";
paths = (
{
closed = 1;
nodes = (
"996 850 OFFCURVE",
"1120 948 OFFCURVE",
"1120 1070 CURVE SMOOTH",
"1120 1152 OFFCURVE",
"1116 1182 OFFCURVE",
"1106 1214 CURVE",
"908 1214 LINE",
"920 1182 OFFCURVE",
"924 1168 OFFCURVE",
"924 1114 CURVE SMOOTH",
"924 1020 OFFCURVE",
"870 974 OFFCURVE",
"752 974 CURVE",
"880 850 LINE"
);
}
);
width = 1112;
}
);
leftKerningGroup = o;
rightKerningGroup = o;
unicode = 1EE1;
},
{
color = 4;
glyphname = oogonek;
lastChange = "2021-12-06 03:15:40 +0000";
layers = (
{
anchors = (
{
name = btm;
position = "{0, 0}";
},
{
name = top;
position = "{544, 1660}";
}
);
layerId = "B61D43DE-5272-4FF4-A680-608B6BF5ED9E";
paths = (
{
closed = 1;
nodes = (
"891 54 OFFCURVE",
"1004 239 OFFCURVE",
"1004 500 CURVE SMOOTH",
"1004 816 OFFCURVE",
"846 1020 OFFCURVE",
"552 1020 CURVE SMOOTH",
"258 1020 OFFCURVE",
"84 828 OFFCURVE",
"84 500 CURVE SMOOTH",
"84 218 OFFCURVE",
"208 34 OFFCURVE",
"433 -10 CURVE",
"332 -68 OFFCURVE",
"280 -173 OFFCURVE",
"280 -256 CURVE SMOOTH",
"280 -398 OFFCURVE",
"388 -480 OFFCURVE",
"578 -480 CURVE SMOOTH",
"648 -480 OFFCURVE",
"706 -468 OFFCURVE",
"746 -448 CURVE",
"746 -268 LINE",
"698 -292 OFFCURVE",
"676 -298 OFFCURVE",
"636 -298 CURVE SMOOTH",
"576 -298 OFFCURVE",
"524 -284 OFFCURVE",
"524 -216 CURVE SMOOTH",
"524 -139 OFFCURVE",
"585 -57 OFFCURVE",
"686 -2 CURVE"
);
},
{
closed = 1;
nodes = (
"350 730 OFFCURVE",
"422 822 OFFCURVE",
"548 822 CURVE SMOOTH",
"672 822 OFFCURVE",
"738 712 OFFCURVE",
"738 500 CURVE SMOOTH",
"738 288 OFFCURVE",
"672 180 OFFCURVE",
"548 180 CURVE SMOOTH",
"422 180 OFFCURVE",
"350 270 OFFCURVE",
"350 500 CURVE SMOOTH"
);
}
);
width = 1088;
}
);
leftKerningGroup = o;
rightKerningGroup = o;
unicode = 01EB;
},
{
color = 1;
glyphname = oopen;
lastChange = "2021-12-06 03:51:59 +0000";
layers = (
{
anchors = (
{
name = bottom;
position = "{360, -664}";
},
{
name = btm;
position = "{392, 996}";
}
);
layerId = "B61D43DE-5272-4FF4-A680-608B6BF5ED9E";
paths = (
{
closed = 1;
nodes = (
"200 1020 OFFCURVE",
"86 948 OFFCURVE",
"48 908 CURVE",
"124 730 LINE",
"162 772 OFFCURVE",
"238 816 OFFCURVE",
"334 816 CURVE SMOOTH",
"480 816 OFFCURVE",
"552 722 OFFCURVE",
"552 500 CURVE SMOOTH",
"552 292 OFFCURVE",
"482 184 OFFCURVE",
"334 184 CURVE SMOOTH",
"266 184 OFFCURVE",
"178 218 OFFCURVE",
"138 278 CURVE",
"56 66 LINE",
"144 -6 OFFCURVE",
"234 -24 OFFCURVE",
"348 -24 CURVE SMOOTH",
"656 -24 OFFCURVE",
"816 226 OFFCURVE",
"816 502 CURVE SMOOTH",
"816 780 OFFCURVE",
"680 1020 OFFCURVE",
"362 1020 CURVE SMOOTH"
);
}
);
width = 902;
}
);
leftMetricsKey = "=|c";
rightMetricsKey = "=|c";
unicode = 0254;
},
{
glyphname = oslash;
lastChange = "2019-10-28 18:28:25 +0000";
layers = (
{
components = (
{
name = o;
transform = "{1, 0, 0, 1, -2, 0}";
}
);
layerId = "B61D43DE-5272-4FF4-A680-608B6BF5ED9E";
paths = (
{
closed = 1;
nodes = (
"374 124 LINE",
"402 176 LINE",
"788 790 LINE",
"858 824 LINE",
"1000 1048 LINE",
"882 1124 LINE",
"744 912 LINE",
"692 828 LINE",
"340 246 LINE",
"278 238 LINE",
"98 -42 LINE",
"216 -122 LINE"
);
}
);
width = 1106;
}
);
leftKerningGroup = o;
rightKerningGroup = o;
unicode = 00F8;
},
{
glyphname = oslashacute;
lastChange = "2019-10-28 18:28:25 +0000";
layers = (
{
components = (
{
name = o;
transform = "{1, 0, 0, 1, -2, 0}";
},
{
name = acutecomb;
transform = "{1, 0, 0, 1, 550, 0}";
}
);
layerId = "B61D43DE-5272-4FF4-A680-608B6BF5ED9E";
paths = (
{
closed = 1;
nodes = (
"374 124 LINE",
"402 176 LINE",
"788 790 LINE",
"858 824 LINE",
"1000 1048 LINE",
"882 1124 LINE",
"744 912 LINE",
"692 828 LINE",
"340 246 LINE",
"278 238 LINE",
"98 -42 LINE",
"216 -122 LINE"
);
}
);
width = 1106;
}
);
leftKerningGroup = o;
rightKerningGroup = o;
unicode = 01FF;
},
{
glyphname = oe;
lastChange = "2019-10-28 18:28:25 +0000";
layers = (
{
anchors = (
{
name = btm;
position = "{1680, 0}";
},
{
name = top;
position = "{1666, 1660}";
}
);
layerId = "B61D43DE-5272-4FF4-A680-608B6BF5ED9E";
paths = (
{
closed = 1;
nodes = (
"838 -20 OFFCURVE",
"934 234 OFFCURVE",
"934 500 CURVE SMOOTH",
"934 808 OFFCURVE",
"846 1020 OFFCURVE",
"552 1020 CURVE SMOOTH",
"258 1020 OFFCURVE",
"84 828 OFFCURVE",
"84 500 CURVE SMOOTH",
"84 174 OFFCURVE",
"250 -20 OFFCURVE",
"544 -20 CURVE SMOOTH"
);
},
{
closed = 1;
nodes = (
"422 180 OFFCURVE",
"348 270 OFFCURVE",
"348 500 CURVE SMOOTH",
"348 730 OFFCURVE",
"422 822 OFFCURVE",
"548 822 CURVE SMOOTH",
"672 822 OFFCURVE",
"734 712 OFFCURVE",
"734 500 CURVE SMOOTH",
"734 288 OFFCURVE",
"672 180 OFFCURVE",
"548 180 CURVE SMOOTH"
);
},
{
closed = 1;
nodes = (
"1406 -22 OFFCURVE",
"1516 36 OFFCURVE",
"1570 72 CURVE",
"1490 262 LINE",
"1444 210 OFFCURVE",
"1334 168 OFFCURVE",
"1252 168 CURVE SMOOTH",
"1090 168 OFFCURVE",
"1012 258 OFFCURVE",
"1004 416 CURVE",
"1606 416 LINE",
"1608 446 OFFCURVE",
"1608 482 OFFCURVE",
"1608 510 CURVE SMOOTH",
"1608 826 OFFCURVE",
"1504 1020 OFFCURVE",
"1206 1020 CURVE SMOOTH",
"906 1020 OFFCURVE",
"780 776 OFFCURVE",
"780 486 CURVE SMOOTH",
"780 210 OFFCURVE",
"874 -22 OFFCURVE",
"1210 -22 CURVE SMOOTH"
);
},
{
closed = 1;
nodes = (
"1010 714 OFFCURVE",
"1076 830 OFFCURVE",
"1212 830 CURVE SMOOTH",
"1294 830 OFFCURVE",
"1356 784 OFFCURVE",
"1356 574 CURVE",
"1002 572 LINE"
);
}
);
width = 1696;
}
);
leftKerningGroup = o;
leftMetricsKey = o;
rightKerningGroup = e;
rightMetricsKey = e;
unicode = 0153;
userData = {
com.typemytype.robofont.mark = (
0.6,
1,
0.628,
1
);
};
},
{
color = 3;
glyphname = p;
lastChange = "2019-10-28 18:28:25 +0000";
layers = (
{
anchors = (
{
name = top;
position = "{644, 1660}";
}
);
layerId = "B61D43DE-5272-4FF4-A680-608B6BF5ED9E";
paths = (
{
closed = 1;
nodes = (
"394 -436 LINE",
"394 10 LINE",
"370 198 LINE",
"402 80 OFFCURVE",
"490 -28 OFFCURVE",
"638 -28 CURVE SMOOTH",
"876 -28 OFFCURVE",
"1038 164 OFFCURVE",
"1038 512 CURVE SMOOTH",
"1038 822 OFFCURVE",
"922 1022 OFFCURVE",
"658 1022 CURVE SMOOTH",
"522 1022 OFFCURVE",
"394 938 OFFCURVE",
"370 824 CURVE",
"390 964 LINE",
"390 996 LINE",
"152 996 LINE",
"152 -436 LINE"
);
},
{
closed = 1;
nodes = (
"464 170 OFFCURVE",
"394 298 OFFCURVE",
"394 486 CURVE SMOOTH",
"394 674 OFFCURVE",
"460 818 OFFCURVE",
"584 818 CURVE SMOOTH",
"686 818 OFFCURVE",
"776 726 OFFCURVE",
"776 502 CURVE SMOOTH",
"776 260 OFFCURVE",
"676 170 OFFCURVE",
"580 170 CURVE SMOOTH"
);
}
);
width = 1124;
}
);
leftKerningGroup = p;
rightKerningGroup = o;
unicode = 0070;
userData = {
com.typemytype.robofont.mark = (
0.6,
1,
0.628,
1
);
};
},
{
color = 4;
glyphname = phook;
lastChange = "2021-12-06 03:39:02 +0000";
layers = (
{
anchors = (
{
name = top;
position = "{644, 1660}";
}
);
layerId = "B61D43DE-5272-4FF4-A680-608B6BF5ED9E";
paths = (
{
closed = 1;
nodes = (
"394 -436 LINE",
"394 10 LINE",
"370 198 LINE",
"402 80 OFFCURVE",
"490 -28 OFFCURVE",
"638 -28 CURVE SMOOTH",
"876 -28 OFFCURVE",
"1038 164 OFFCURVE",
"1038 512 CURVE SMOOTH",
"1038 822 OFFCURVE",
"922 1022 OFFCURVE",
"658 1022 CURVE SMOOTH",
"522 1022 OFFCURVE",
"394 938 OFFCURVE",
"370 824 CURVE",
"390 964 LINE",
"392 1170 LINE",
"154 1173 LINE",
"152 -436 LINE"
);
},
{
closed = 1;
nodes = (
"464 170 OFFCURVE",
"394 298 OFFCURVE",
"394 486 CURVE SMOOTH",
"394 674 OFFCURVE",
"460 818 OFFCURVE",
"584 818 CURVE SMOOTH",
"686 818 OFFCURVE",
"776 726 OFFCURVE",
"776 502 CURVE SMOOTH",
"776 260 OFFCURVE",
"676 170 OFFCURVE",
"580 170 CURVE SMOOTH"
);
},
{
closed = 1;
nodes = (
"289 1098 LINE",
"392 1170 LINE",
"392 1302 OFFCURVE",
"466 1340 OFFCURVE",
"575 1340 CURVE SMOOTH",
"685 1340 OFFCURVE",
"730 1284 OFFCURVE",
"782 1244 CURVE",
"831 1456 LINE",
"795 1492 OFFCURVE",
"704 1552 OFFCURVE",
"551 1552 CURVE SMOOTH",
"296 1552 OFFCURVE",
"152 1392 OFFCURVE",
"154 1173 CURVE"
);
}
);
width = 1124;
}
);
unicode = 01A5;
},
{
color = 3;
glyphname = thorn;
lastChange = "2019-10-28 18:28:25 +0000";
layers = (
{
anchors = (
{
name = top;
position = "{614, 1660}";
}
);
components = (
{
name = b;
}
);
layerId = "B61D43DE-5272-4FF4-A680-608B6BF5ED9E";
paths = (
{
closed = 1;
nodes = (
"398 -436 LINE",
"398 10 LINE",
"378 198 LINE",
"156 170 LINE",
"156 -436 LINE"
);
}
);
width = 1128;
}
);
leftKerningGroup = thorn;
leftMetricsKey = h;
rightKerningGroup = o;
rightMetricsKey = b;
unicode = 00FE;
userData = {
com.typemytype.robofont.mark = (
0.6,
1,
0.628,
1
);
};
},
{
glyphname = q;
lastChange = "2019-10-28 18:28:25 +0000";
layers = (
{
anchors = (
{
name = top;
position = "{540, 1660}";
}
);
background = {
paths = (
{
closed = 1;
nodes = (
"972 996 LINE",
"734 996 LINE",
"734 964 LINE",
"754 824 LINE",
"730 938 OFFCURVE",
"602 1022 OFFCURVE",
"466 1022 CURVE SMOOTH",
"202 1022 OFFCURVE",
"86 822 OFFCURVE",
"86 512 CURVE SMOOTH",
"86 164 OFFCURVE",
"248 -28 OFFCURVE",
"486 -28 CURVE SMOOTH",
"634 -28 OFFCURVE",
"722 80 OFFCURVE",
"754 198 CURVE",
"730 10 LINE",
"730 -436 LINE",
"972 -436 LINE"
);
},
{
closed = 1;
nodes = (
"448 170 OFFCURVE",
"348 260 OFFCURVE",
"348 502 CURVE SMOOTH",
"348 726 OFFCURVE",
"438 818 OFFCURVE",
"540 818 CURVE SMOOTH",
"664 818 OFFCURVE",
"730 674 OFFCURVE",
"730 486 CURVE SMOOTH",
"730 298 OFFCURVE",
"660 170 OFFCURVE",
"544 170 CURVE SMOOTH"
);
}
);
};
layerId = "B61D43DE-5272-4FF4-A680-608B6BF5ED9E";
paths = (
{
closed = 1;
nodes = (
"972 -436 LINE",
"976 996 LINE",
"750 996 LINE",
"750 824 LINE",
"726 934 OFFCURVE",
"638 1020 OFFCURVE",
"490 1020 CURVE SMOOTH",
"258 1020 OFFCURVE",
"86 866 OFFCURVE",
"86 496 CURVE SMOOTH",
"86 164 OFFCURVE",
"254 -28 OFFCURVE",
"476 -28 CURVE SMOOTH",
"600 -28 OFFCURVE",
"712 48 OFFCURVE",
"750 204 CURVE",
"730 10 LINE",
"730 -436 LINE"
);
},
{
closed = 1;
nodes = (
"430 170 OFFCURVE",
"348 276 OFFCURVE",
"348 496 CURVE SMOOTH",
"348 742 OFFCURVE",
"452 818 OFFCURVE",
"546 818 CURVE SMOOTH",
"668 818 OFFCURVE",
"726 700 OFFCURVE",
"726 492 CURVE SMOOTH",
"726 264 OFFCURVE",
"636 170 OFFCURVE",
"540 170 CURVE SMOOTH"
);
}
);
width = 1132;
}
);
leftKerningGroup = o;
rightKerningGroup = q;
unicode = 0071;
userData = {
com.typemytype.robofont.mark = (
0.6,
1,
0.628,
1
);
};
},
{
color = 4;
glyphname = qhooktail;
lastChange = "2021-12-06 03:44:01 +0000";
layers = (
{
anchors = (
{
name = top;
position = "{540, 1660}";
}
);
layerId = "B61D43DE-5272-4FF4-A680-608B6BF5ED9E";
paths = (
{
closed = 1;
nodes = (
"972 -257 LINE",
"976 996 LINE",
"750 996 LINE",
"750 824 LINE",
"726 934 OFFCURVE",
"638 1020 OFFCURVE",
"490 1020 CURVE SMOOTH",
"258 1020 OFFCURVE",
"86 866 OFFCURVE",
"86 496 CURVE SMOOTH",
"86 164 OFFCURVE",
"254 -28 OFFCURVE",
"476 -28 CURVE SMOOTH",
"600 -28 OFFCURVE",
"712 48 OFFCURVE",
"750 204 CURVE",
"730 10 LINE",
"793 -61 LINE"
);
},
{
closed = 1;
nodes = (
"430 170 OFFCURVE",
"348 276 OFFCURVE",
"348 496 CURVE SMOOTH",
"348 742 OFFCURVE",
"452 818 OFFCURVE",
"546 818 CURVE SMOOTH",
"668 818 OFFCURVE",
"726 700 OFFCURVE",
"726 492 CURVE SMOOTH",
"726 264 OFFCURVE",
"636 170 OFFCURVE",
"540 170 CURVE SMOOTH"
);
},
{
closed = 1;
nodes = (
"730 -274 OFFCURVE",
"823 -367 OFFCURVE",
"1002 -367 CURVE SMOOTH",
"1133 -367 OFFCURVE",
"1217 -331 OFFCURVE",
"1241 -301 CURVE",
"1189 -74 LINE",
"1149 -102 OFFCURVE",
"1121 -128 OFFCURVE",
"1070 -128 CURVE SMOOTH",
"1005 -128 OFFCURVE",
"975 -85 OFFCURVE",
"975 10 CURVE",
"853 107 LINE",
"730 10 LINE"
);
}
);
width = 1241;
}
);
leftMetricsKey = q;
rightMetricsKey = rhook;
unicode = 024B;
},
{
glyphname = r;
lastChange = "2019-10-28 18:28:25 +0000";
layers = (
{
anchors = (
{
name = btm;
position = "{282, 0}";
},
{
name = top;
position = "{436, 1660}";
}
);
layerId = "B61D43DE-5272-4FF4-A680-608B6BF5ED9E";
paths = (
{
closed = 1;
nodes = (
"388 0 LINE",
"388 600 LINE SMOOTH",
"388 642 OFFCURVE",
"456 762 OFFCURVE",
"610 762 CURVE SMOOTH",
"656 762 OFFCURVE",
"686 752 OFFCURVE",
"708 730 CURVE",
"764 992 LINE",
"738 1002 OFFCURVE",
"710 1008 OFFCURVE",
"672 1008 CURVE SMOOTH",
"484 1008 OFFCURVE",
"408 898 OFFCURVE",
"376 820 CURVE",
"364 996 LINE",
"138 996 LINE",
"138 0 LINE"
);
}
);
width = 764;
}
);
leftKerningGroup = n;
rightKerningGroup = r;
unicode = 0072;
},
{
glyphname = rfishhook;
lastChange = "2021-12-06 03:30:30 +0000";
layers = (
{
anchors = (
{
name = btm;
position = "{276, 0}";
}
);
layerId = "B61D43DE-5272-4FF4-A680-608B6BF5ED9E";
paths = (
{
closed = 1;
nodes = (
"400 0 LINE",
"400 633 LINE",
"140 653 LINE",
"140 0 LINE"
);
},
{
closed = 1;
nodes = (
"273 546 LINE",
"400 633 LINE",
"400 728 OFFCURVE",
"425 771 OFFCURVE",
"510 771 CURVE SMOOTH",
"581 771 OFFCURVE",
"609 745 OFFCURVE",
"649 717 CURVE",
"701 954 LINE",
"677 984 OFFCURVE",
"593 1020 OFFCURVE",
"492 1020 CURVE SMOOTH",
"243 1020 OFFCURVE",
"138 892 OFFCURVE",
"140 653 CURVE"
);
}
);
width = 721;
}
);
leftMetricsKey = i;
unicode = 027E;
},
{
color = 1;
glyphname = rhook;
lastChange = "2021-12-06 03:51:59 +0000";
layers = (
{
anchors = (
{
name = btm;
position = "{282, 0}";
},
{
name = top;
position = "{436, 1660}";
}
);
layerId = "B61D43DE-5272-4FF4-A680-608B6BF5ED9E";
paths = (
{
closed = 1;
nodes = (
"138 -264 OFFCURVE",
"231 -367 OFFCURVE",
"480 -367 CURVE SMOOTH",
"581 -367 OFFCURVE",
"665 -331 OFFCURVE",
"689 -301 CURVE",
"637 -74 LINE",
"597 -102 OFFCURVE",
"569 -128 OFFCURVE",
"498 -128 CURVE SMOOTH",
"413 -128 OFFCURVE",
"388 -85 OFFCURVE",
"388 20 CURVE",
"261 107 LINE",
"138 20 LINE"
);
},
{
closed = 1;
nodes = (
"388 20 LINE",
"388 600 LINE SMOOTH",
"388 642 OFFCURVE",
"456 762 OFFCURVE",
"610 762 CURVE SMOOTH",
"656 762 OFFCURVE",
"686 752 OFFCURVE",
"708 730 CURVE",
"764 992 LINE",
"738 1002 OFFCURVE",
"710 1008 OFFCURVE",
"672 1008 CURVE SMOOTH",
"484 1008 OFFCURVE",
"408 898 OFFCURVE",
"376 820 CURVE",
"364 996 LINE",
"138 996 LINE",
"138 20 LINE"
);
}
);
width = 764;
}
);
unicode = 027D;
},
{
glyphname = s;
lastChange = "2019-10-28 18:28:25 +0000";
layers = (
{
anchors = (
{
name = btm;
position = "{418, 0}";
},
{
name = top;
position = "{462, 1660}";
}
);
background = {
paths = (
{
closed = 1;
nodes = (
"696 -18 OFFCURVE",
"802 132 OFFCURVE",
"802 296 CURVE SMOOTH",
"802 434 OFFCURVE",
"702 520 OFFCURVE",
"558 584 CURVE SMOOTH",
"444 634 OFFCURVE",
"342 666 OFFCURVE",
"342 740 CURVE SMOOTH",
"342 798 OFFCURVE",
"376 824 OFFCURVE",
"478 824 CURVE SMOOTH",
"570 824 OFFCURVE",
"654 780 OFFCURVE",
"706 740 CURVE",
"774 920 LINE",
"738 956 OFFCURVE",
"624 1016 OFFCURVE",
"470 1016 CURVE SMOOTH",
"228 1016 OFFCURVE",
"92 900 OFFCURVE",
"92 720 CURVE SMOOTH",
"92 534 OFFCURVE",
"252 470 OFFCURVE",
"354 422 CURVE SMOOTH",
"478 364 OFFCURVE",
"554 328 OFFCURVE",
"554 266 CURVE SMOOTH",
"554 220 OFFCURVE",
"520 178 OFFCURVE",
"426 178 CURVE SMOOTH",
"304 178 OFFCURVE",
"212 236 OFFCURVE",
"154 284 CURVE",
"80 94 LINE",
"110 58 OFFCURVE",
"202 -18 OFFCURVE",
"420 -18 CURVE SMOOTH"
);
}
);
};
layerId = "B61D43DE-5272-4FF4-A680-608B6BF5ED9E";
paths = (
{
closed = 1;
nodes = (
"696 -18 OFFCURVE",
"802 132 OFFCURVE",
"802 296 CURVE SMOOTH",
"802 442 OFFCURVE",
"690 532 OFFCURVE",
"524 598 CURVE SMOOTH",
"424 638 OFFCURVE",
"342 674 OFFCURVE",
"342 740 CURVE SMOOTH",
"342 798 OFFCURVE",
"376 824 OFFCURVE",
"478 824 CURVE SMOOTH",
"570 824 OFFCURVE",
"654 780 OFFCURVE",
"706 740 CURVE",
"774 920 LINE",
"738 956 OFFCURVE",
"624 1016 OFFCURVE",
"470 1016 CURVE SMOOTH",
"228 1016 OFFCURVE",
"92 900 OFFCURVE",
"92 720 CURVE SMOOTH",
"92 544 OFFCURVE",
"236 474 OFFCURVE",
"338 430 CURVE SMOOTH",
"452 380 OFFCURVE",
"554 332 OFFCURVE",
"554 270 CURVE SMOOTH",
"554 224 OFFCURVE",
"520 178 OFFCURVE",
"426 178 CURVE SMOOTH",
"304 178 OFFCURVE",
"212 236 OFFCURVE",
"154 284 CURVE",
"80 94 LINE",
"110 58 OFFCURVE",
"202 -18 OFFCURVE",
"420 -18 CURVE SMOOTH"
);
}
);
width = 874;
}
);
leftKerningGroup = s;
rightKerningGroup = s;
unicode = 0073;
},
{
color = 1;
glyphname = saltillo;
lastChange = "2021-12-06 01:51:38 +0000";
layers = (
{
anchors = (
{
name = btm;
position = "{284, 0}";
},
{
name = top;
position = "{280, 1660}";
}
);
layerId = "B61D43DE-5272-4FF4-A680-608B6BF5ED9E";
paths = (
{
closed = 1;
nodes = (
"410 820 LINE",
"410 1418 LINE",
"150 1418 LINE",
"150 820 LINE"
);
}
);
width = 560;
}
);
unicode = A78C;
},
{
glyphname = germandbls;
lastChange = "2019-10-28 18:28:25 +0000";
layers = (
{
layerId = "B61D43DE-5272-4FF4-A680-608B6BF5ED9E";
paths = (
{
closed = 1;
nodes = (
"1002 -10 OFFCURVE",
"1108 232 OFFCURVE",
"1108 474 CURVE SMOOTH",
"1108 700 OFFCURVE",
"946 854 OFFCURVE",
"746 854 CURVE",
"746 836 LINE",
"900 836 OFFCURVE",
"996 996 OFFCURVE",
"996 1184 CURVE SMOOTH",
"996 1388 OFFCURVE",
"896 1552 OFFCURVE",
"600 1552 CURVE SMOOTH",
"410 1552 OFFCURVE",
"146 1418 OFFCURVE",
"146 1088 CURVE SMOOTH",
"146 0 LINE",
"398 0 LINE",
"398 1108 LINE SMOOTH",
"398 1202 OFFCURVE",
"446 1356 OFFCURVE",
"588 1356 CURVE SMOOTH",
"668 1356 OFFCURVE",
"748 1326 OFFCURVE",
"748 1168 CURVE SMOOTH",
"748 932 OFFCURVE",
"636 898 OFFCURVE",
"552 898 CURVE",
"552 712 LINE",
"746 712 OFFCURVE",
"836 616 OFFCURVE",
"836 450 CURVE SMOOTH",
"836 288 OFFCURVE",
"788 194 OFFCURVE",
"664 194 CURVE SMOOTH",
"612 194 OFFCURVE",
"576 200 OFFCURVE",
"544 212 CURVE",
"566 12 LINE",
"610 -8 OFFCURVE",
"666 -10 OFFCURVE",
"696 -10 CURVE SMOOTH"
);
},
{
closed = 1;
nodes = (
"186 788 LINE",
"186 996 LINE",
"44 996 LINE",
"44 788 LINE"
);
}
);
width = 1188;
}
);
leftKerningGroup = h;
rightKerningGroup = germandbls;
unicode = 00DF;
userData = {
com.typemytype.robofont.mark = (
0.6,
1,
0.628,
1
);
};
},
{
color = 6;
glyphname = longs;
lastChange = "2022-05-07 02:27:49 +0000";
layers = (
{
layerId = "B61D43DE-5272-4FF4-A680-608B6BF5ED9E";
paths = (
{
closed = 1;
nodes = (
"404 0 LINE",
"404 1186 LINE",
"404 1320 OFFCURVE",
"488 1346 OFFCURVE",
"562 1346 CURVE SMOOTH",
"604 1346 OFFCURVE",
"676 1328 OFFCURVE",
"706 1290 CURVE",
"706 1508 LINE",
"694 1520 OFFCURVE",
"630 1552 OFFCURVE",
"500 1552 CURVE SMOOTH",
"366 1552 OFFCURVE",
"162 1488 OFFCURVE",
"162 1180 CURVE",
"162 0 LINE"
);
}
);
width = 698;
}
);
unicode = 017F;
},
{
glyphname = t;
lastChange = "2019-10-28 18:28:25 +0000";
layers = (
{
anchors = (
{
name = btm;
position = "{420, 0}";
},
{
name = car;
position = "{662, 1660}";
},
{
name = top;
position = "{304, 1890}";
}
);
layerId = "B61D43DE-5272-4FF4-A680-608B6BF5ED9E";
paths = (
{
closed = 1;
nodes = (
"542 -30 OFFCURVE",
"678 0 OFFCURVE",
"740 44 CURVE",
"692 246 LINE",
"654 214 OFFCURVE",
"580 176 OFFCURVE",
"522 176 CURVE SMOOTH",
"464 176 OFFCURVE",
"430 214 OFFCURVE",
"430 330 CURVE SMOOTH",
"430 786 LINE",
"676 786 LINE",
"676 996 LINE",
"430 996 LINE",
"430 1300 LINE",
"212 1206 LINE",
"198 996 LINE",
"58 996 LINE",
"58 786 LINE",
"188 786 LINE",
"188 324 LINE SMOOTH",
"188 86 OFFCURVE",
"250 -30 OFFCURVE",
"476 -30 CURVE SMOOTH"
);
}
);
width = 778;
}
);
leftKerningGroup = t;
rightKerningGroup = t;
unicode = 0074;
},
{
glyphname = tbar;
lastChange = "2019-10-28 18:28:25 +0000";
layers = (
{
anchors = (
{
name = btm;
position = "{416, 0}";
},
{
name = car;
position = "{658, 1660}";
},
{
name = top;
position = "{300, 1890}";
}
);
layerId = "B61D43DE-5272-4FF4-A680-608B6BF5ED9E";
paths = (
{
closed = 1;
nodes = (
"664 428 LINE",
"664 638 LINE",
"46 638 LINE",
"46 428 LINE"
);
},
{
closed = 1;
nodes = (
"538 -30 OFFCURVE",
"674 0 OFFCURVE",
"736 44 CURVE",
"688 246 LINE",
"650 214 OFFCURVE",
"576 176 OFFCURVE",
"518 176 CURVE SMOOTH",
"460 176 OFFCURVE",
"426 214 OFFCURVE",
"426 330 CURVE SMOOTH",
"426 786 LINE",
"672 786 LINE",
"672 996 LINE",
"426 996 LINE",
"426 1300 LINE",
"208 1206 LINE",
"200 996 LINE",
"54 996 LINE",
"54 786 LINE",
"190 786 LINE",
"190 324 LINE SMOOTH",
"190 86 OFFCURVE",
"246 -30 OFFCURVE",
"472 -30 CURVE SMOOTH"
);
}
);
width = 768;
}
);
leftKerningGroup = t;
rightKerningGroup = t;
unicode = 0167;
},
{
color = 4;
glyphname = thook;
lastChange = "2021-12-06 03:33:45 +0000";
layers = (
{
anchors = (
{
name = btm;
position = "{420, 0}";
},
{
name = car;
position = "{662, 1660}";
},
{
name = top;
position = "{304, 1890}";
}
);
layerId = "B61D43DE-5272-4FF4-A680-608B6BF5ED9E";
paths = (
{
closed = 1;
nodes = (
"542 -30 OFFCURVE",
"678 0 OFFCURVE",
"740 44 CURVE",
"692 246 LINE",
"654 214 OFFCURVE",
"580 176 OFFCURVE",
"522 176 CURVE SMOOTH",
"464 176 OFFCURVE",
"430 214 OFFCURVE",
"430 330 CURVE SMOOTH",
"430 786 LINE",
"676 786 LINE",
"676 996 LINE",
"430 996 LINE",
"430 1338 LINE",
"212 1206 LINE",
"212 996 LINE",
"58 996 LINE",
"58 786 LINE",
"188 786 LINE",
"188 324 LINE SMOOTH",
"188 86 OFFCURVE",
"250 -30 OFFCURVE",
"476 -30 CURVE SMOOTH"
);
},
{
closed = 1;
nodes = (
"189 953 LINE",
"430 935 LINE",
"430 1149 LINE",
"430 1290 OFFCURVE",
"455 1333 OFFCURVE",
"579 1333 CURVE SMOOTH",
"611 1333 OFFCURVE",
"691 1307 OFFCURVE",
"731 1279 CURVE",
"731 1515 LINE",
"689 1539 OFFCURVE",
"623 1552 OFFCURVE",
"557 1552 CURVE SMOOTH",
"273 1552 OFFCURVE",
"186 1416 OFFCURVE",
"188 1177 CURVE"
);
}
);
width = 778;
}
);
unicode = 01AD;
},
{
color = 4;
glyphname = tretroflexhook;
lastChange = "2021-12-06 03:34:15 +0000";
layers = (
{
anchors = (
{
name = btm;
position = "{420, 0}";
},
{
name = car;
position = "{662, 1660}";
},
{
name = top;
position = "{304, 1890}";
}
);
layerId = "B61D43DE-5272-4FF4-A680-608B6BF5ED9E";
paths = (
{
closed = 1;
nodes = (
"542 -276 OFFCURVE",
"678 -246 OFFCURVE",
"740 -202 CURVE",
"692 0 LINE",
"654 -32 OFFCURVE",
"580 -70 OFFCURVE",
"522 -70 CURVE SMOOTH",
"464 -70 OFFCURVE",
"430 -32 OFFCURVE",
"430 84 CURVE SMOOTH",
"430 786 LINE",
"676 786 LINE",
"676 996 LINE",
"430 996 LINE",
"430 1300 LINE",
"212 1206 LINE",
"198 996 LINE",
"58 996 LINE",
"58 786 LINE",
"188 786 LINE",
"188 78 LINE SMOOTH",
"188 -160 OFFCURVE",
"250 -276 OFFCURVE",
"476 -276 CURVE SMOOTH"
);
}
);
width = 778;
}
);
unicode = 0288;
},
{
glyphname = u;
lastChange = "2019-10-28 18:28:25 +0000";
layers = (
{
anchors = (
{
name = btm;
position = "{562, 0}";
},
{
name = top;
position = "{548, 1660}";
}
);
layerId = "B61D43DE-5272-4FF4-A680-608B6BF5ED9E";
paths = (
{
closed = 1;
nodes = (
"610 -24 OFFCURVE",
"688 86 OFFCURVE",
"736 180 CURVE",
"704 220 LINE",
"712 0 LINE",
"938 0 LINE",
"938 996 LINE",
"688 996 LINE",
"688 360 LINE SMOOTH",
"688 250 OFFCURVE",
"616 174 OFFCURVE",
"522 174 CURVE SMOOTH",
"426 174 OFFCURVE",
"390 250 OFFCURVE",
"390 360 CURVE SMOOTH",
"390 996 LINE",
"140 996 LINE",
"140 338 LINE SMOOTH",
"140 112 OFFCURVE",
"232 -24 OFFCURVE",
"434 -24 CURVE SMOOTH"
);
}
);
width = 1086;
}
);
leftKerningGroup = u;
rightKerningGroup = u;
unicode = 0075;
},
{
glyphname = uhorn;
lastChange = "2019-10-28 18:28:25 +0000";
layers = (
{
anchors = (
{
name = btm;
position = "{566, 0}";
},
{
name = top;
position = "{552, 1660}";
}
);
layerId = "B61D43DE-5272-4FF4-A680-608B6BF5ED9E";
paths = (
{
closed = 1;
nodes = (
"620 -24 OFFCURVE",
"708 86 OFFCURVE",
"756 180 CURVE",
"724 220 LINE",
"732 0 LINE",
"958 0 LINE",
"958 996 LINE",
"708 996 LINE",
"708 360 LINE SMOOTH",
"708 250 OFFCURVE",
"626 174 OFFCURVE",
"532 174 CURVE SMOOTH",
"436 174 OFFCURVE",
"390 250 OFFCURVE",
"390 360 CURVE SMOOTH",
"390 996 LINE",
"140 996 LINE",
"140 338 LINE SMOOTH",
"140 112 OFFCURVE",
"232 -24 OFFCURVE",
"434 -24 CURVE SMOOTH"
);
},
{
closed = 1;
nodes = (
"986 886 OFFCURVE",
"1136 948 OFFCURVE",
"1136 1070 CURVE SMOOTH",
"1136 1152 OFFCURVE",
"1132 1182 OFFCURVE",
"1122 1214 CURVE",
"924 1214 LINE",
"936 1182 OFFCURVE",
"940 1168 OFFCURVE",
"940 1114 CURVE SMOOTH",
"940 1020 OFFCURVE",
"858 996 OFFCURVE",
"760 996 CURVE",
"888 886 LINE"
);
}
);
width = 1136;
}
);
leftKerningGroup = u;
rightKerningGroup = u;
unicode = 01B0;
},
{
color = 4;
glyphname = uogonek;
lastChange = "2021-12-06 03:15:21 +0000";
layers = (
{
anchors = (
{
name = btm;
position = "{562, 0}";
},
{
name = top;
position = "{548, 1660}";
}
);
layerId = "B61D43DE-5272-4FF4-A680-608B6BF5ED9E";
paths = (
{
closed = 1;
nodes = (
"688 996 LINE",
"688 360 LINE SMOOTH",
"688 250 OFFCURVE",
"616 174 OFFCURVE",
"522 174 CURVE SMOOTH",
"426 174 OFFCURVE",
"390 250 OFFCURVE",
"390 360 CURVE SMOOTH",
"390 996 LINE",
"140 996 LINE",
"140 338 LINE SMOOTH",
"140 112 OFFCURVE",
"232 -24 OFFCURVE",
"434 -24 CURVE SMOOTH",
"579 -24 OFFCURVE",
"657 50 OFFCURVE",
"707 129 CURVE",
"712 0 LINE",
"574 -46 OFFCURVE",
"472 -158 OFFCURVE",
"472 -256 CURVE SMOOTH",
"472 -398 OFFCURVE",
"580 -480 OFFCURVE",
"770 -480 CURVE SMOOTH",
"840 -480 OFFCURVE",
"898 -468 OFFCURVE",
"938 -448 CURVE",
"938 -268 LINE",
"890 -292 OFFCURVE",
"868 -298 OFFCURVE",
"828 -298 CURVE SMOOTH",
"768 -298 OFFCURVE",
"716 -284 OFFCURVE",
"716 -216 CURVE SMOOTH",
"716 -130 OFFCURVE",
"816 -54 OFFCURVE",
"938 0 CURVE",
"938 996 LINE"
);
}
);
width = 1086;
}
);
leftKerningGroup = u;
rightKerningGroup = u;
unicode = 0173;
},
{
color = 1;
glyphname = "upsilon-latin";
lastChange = "2021-12-06 03:15:10 +0000";
layers = (
{
background = {
components = (
{
name = o;
transform = "{1, 0, 0, 1, 1, 0}";
}
);
};
layerId = "B61D43DE-5272-4FF4-A680-608B6BF5ED9E";
paths = (
{
closed = 1;
nodes = (
"470 0 LINE",
"470 242 LINE",
"377 310 OFFCURVE",
"343 390 OFFCURVE",
"343 532 CURVE SMOOTH",
"343 663 OFFCURVE",
"373 822 OFFCURVE",
"548 822 CURVE SMOOTH",
"711 822 OFFCURVE",
"751 655 OFFCURVE",
"751 532 CURVE SMOOTH",
"751 390 OFFCURVE",
"716 310 OFFCURVE",
"623 242 CURVE",
"624 0 LINE",
"1036 0 LINE",
"1036 208 LINE",
"804 186 LINE",
"859 222 OFFCURVE",
"1011 343 OFFCURVE",
"1011 566 CURVE SMOOTH",
"1011 837 OFFCURVE",
"822 1021 OFFCURVE",
"549 1021 CURVE SMOOTH",
"278 1021 OFFCURVE",
"83 841 OFFCURVE",
"83 566 CURVE SMOOTH",
"83 343 OFFCURVE",
"235 222 OFFCURVE",
"290 186 CURVE",
"58 208 LINE",
"58 0 LINE"
);
}
);
width = 1094;
}
);
leftMetricsKey = t;
rightMetricsKey = "=|";
unicode = 028A;
},
{
glyphname = v;
lastChange = "2019-10-28 18:28:25 +0000";
layers = (
{
anchors = (
{
name = top;
position = "{470, 1660}";
}
);
layerId = "B61D43DE-5272-4FF4-A680-608B6BF5ED9E";
paths = (
{
closed = 1;
nodes = (
"570 0 LINE",
"954 996 LINE",
"690 996 LINE",
"524 498 LINE",
"484 334 LINE",
"440 498 LINE",
"268 996 LINE",
"-12 996 LINE",
"392 0 LINE"
);
}
);
width = 942;
}
);
leftKerningGroup = v;
rightKerningGroup = v;
unicode = 0076;
},
{
color = 1;
glyphname = vhook;
lastChange = "2021-12-06 07:18:10 +0000";
layers = (
{
anchors = (
{
name = btm;
position = "{592, 0}";
},
{
name = top;
position = "{578, 1660}";
}
);
background = {
paths = (
{
closed = 1;
nodes = (
"876 -24 OFFCURVE",
"968 112 OFFCURVE",
"968 338 CURVE SMOOTH",
"968 996 LINE",
"718 996 LINE",
"718 360 LINE SMOOTH",
"718 250 OFFCURVE",
"666 174 OFFCURVE",
"570 174 CURVE SMOOTH",
"476 174 OFFCURVE",
"420 250 OFFCURVE",
"420 360 CURVE SMOOTH",
"420 996 LINE",
"170 996 LINE",
"173 341 LINE",
"173 123 OFFCURVE",
"314 -24 OFFCURVE",
"569 -24 CURVE SMOOTH"
);
}
);
};
layerId = "B61D43DE-5272-4FF4-A680-608B6BF5ED9E";
paths = (
{
closed = 1;
nodes = (
"896 -24 OFFCURVE",
"1057 113 OFFCURVE",
"1057 341 CURVE SMOOTH",
"1058 850 LINE",
"813 996 LINE",
"813 388 LINE SMOOTH",
"813 253 OFFCURVE",
"722 202 OFFCURVE",
"598 202 CURVE SMOOTH",
"472 202 OFFCURVE",
"385 253 OFFCURVE",
"385 388 CURVE SMOOTH",
"385 996 LINE",
"140 996 LINE",
"140 338 LINE SMOOTH",
"140 112 OFFCURVE",
"292 -24 OFFCURVE",
"599 -24 CURVE SMOOTH"
);
},
{
closed = 1;
nodes = (
"1058 850 LINE",
"1058 1056 OFFCURVE",
"925 1132 OFFCURVE",
"760 1132 CURVE SMOOTH",
"615 1132 OFFCURVE",
"538 1076 OFFCURVE",
"507 1039 CURVE",
"604 825 LINE",
"626 867 OFFCURVE",
"675 899 OFFCURVE",
"719 899 CURVE SMOOTH",
"785 899 OFFCURVE",
"815 869 OFFCURVE",
"815 794 CURVE"
);
}
);
width = 1198;
}
);
leftMetricsKey = u;
rightMetricsKey = "=|";
unicode = 028B;
},
{
color = 1;
glyphname = vturned;
lastChange = "2021-12-06 01:51:38 +0000";
layers = (
{
anchors = (
{
name = bottom;
position = "{472, -664}";
}
);
layerId = "B61D43DE-5272-4FF4-A680-608B6BF5ED9E";
paths = (
{
closed = 1;
nodes = (
"372 996 LINE",
"-12 0 LINE",
"252 0 LINE",
"418 498 LINE",
"458 662 LINE",
"502 498 LINE",
"674 0 LINE",
"954 0 LINE",
"550 996 LINE"
);
}
);
width = 942;
}
);
unicode = 028C;
},
{
color = 3;
glyphname = w;
lastChange = "2019-10-28 18:28:25 +0000";
layers = (
{
anchors = (
{
name = top;
position = "{706, 1660}";
}
);
layerId = "B61D43DE-5272-4FF4-A680-608B6BF5ED9E";
paths = (
{
closed = 1;
nodes = (
"530 0 LINE",
"678 542 LINE",
"710 704 LINE",
"742 542 LINE",
"902 0 LINE",
"1104 0 LINE",
"1418 996 LINE",
"1172 996 LINE",
"1056 522 LINE",
"1010 312 LINE",
"958 522 LINE",
"820 996 LINE",
"612 996 LINE",
"482 522 LINE",
"438 312 LINE",
"386 522 LINE",
"266 996 LINE",
"12 996 LINE",
"330 0 LINE"
);
}
);
width = 1430;
}
);
leftKerningGroup = w;
rightKerningGroup = w;
unicode = 0077;
userData = {
com.typemytype.robofont.guides = (
{
angle = 0;
isGlobal = 0;
magnetic = 5;
x = 0;
y = 554;
},
{
angle = 90;
isGlobal = 0;
magnetic = 5;
x = -66;
y = 0;
}
);
com.typemytype.robofont.mark = (
0.6,
1,
0.628,
1
);
};
},
{
color = 1;
glyphname = whook;
lastChange = "2021-12-06 07:13:17 +0000";
layers = (
{
anchors = (
{
name = top;
position = "{706, 1660}";
}
);
layerId = "B61D43DE-5272-4FF4-A680-608B6BF5ED9E";
paths = (
{
closed = 1;
nodes = (
"530 0 LINE",
"678 542 LINE",
"710 704 LINE",
"742 542 LINE",
"902 0 LINE",
"1104 0 LINE",
"1333 694 LINE",
"1267 860 LINE",
"1100 709 LINE",
"1056 522 LINE",
"1010 312 LINE",
"958 522 LINE",
"820 996 LINE",
"612 996 LINE",
"482 522 LINE",
"438 312 LINE",
"386 522 LINE",
"266 996 LINE",
"12 996 LINE",
"330 0 LINE"
);
},
{
closed = 1;
nodes = (
"1354 769 OFFCURVE",
"1390 788 OFFCURVE",
"1451 788 CURVE SMOOTH",
"1505 788 OFFCURVE",
"1554 736 OFFCURVE",
"1576 694 CURVE",
"1688 898 LINE",
"1657 935 OFFCURVE",
"1585 1021 OFFCURVE",
"1410 1021 CURVE SMOOTH",
"1245 1021 OFFCURVE",
"1158 915 OFFCURVE",
"1100 709 CURVE",
"1333 694 LINE"
);
}
);
width = 1698;
}
);
leftMetricsKey = w;
unicode = 2C73;
},
{
glyphname = x;
lastChange = "2019-10-28 18:28:25 +0000";
layers = (
{
anchors = (
{
name = top;
position = "{470, 1660}";
}
);
layerId = "B61D43DE-5272-4FF4-A680-608B6BF5ED9E";
paths = (
{
closed = 1;
nodes = (
"300 0 LINE",
"424 268 LINE",
"460 358 LINE",
"504 268 LINE",
"648 0 LINE",
"930 0 LINE",
"714 380 LINE",
"642 500 LINE",
"714 626 LINE",
"914 996 LINE",
"648 996 LINE",
"530 744 LINE",
"478 628 LINE",
"428 744 LINE",
"308 996 LINE",
"24 996 LINE",
"228 618 LINE",
"304 490 LINE",
"230 368 LINE",
"24 0 LINE"
);
}
);
width = 950;
}
);
leftKerningGroup = x;
rightKerningGroup = x;
unicode = 0078;
userData = {
com.typemytype.robofont.guides = (
{
angle = 90;
isGlobal = 0;
magnetic = 5;
x = 233;
y = 0;
},
{
angle = 90;
isGlobal = 0;
magnetic = 5;
x = 731;
y = 0;
}
);
};
},
{
glyphname = y;
lastChange = "2019-10-28 18:28:25 +0000";
layers = (
{
anchors = (
{
name = btm;
position = "{780, 0}";
},
{
name = top;
position = "{462, 1660}";
}
);
layerId = "B61D43DE-5272-4FF4-A680-608B6BF5ED9E";
paths = (
{
closed = 1;
nodes = (
"446 -378 LINE",
"954 996 LINE",
"692 996 LINE",
"542 552 LINE",
"478 322 LINE",
"414 552 LINE",
"266 996 LINE",
"-12 996 LINE",
"362 68 LINE",
"200 -378 LINE"
);
}
);
width = 946;
}
);
leftKerningGroup = y;
leftMetricsKey = v;
rightKerningGroup = y;
unicode = 0079;
},
{
color = 1;
glyphname = yhook;
lastChange = "2021-12-06 07:14:26 +0000";
layers = (
{
anchors = (
{
name = btm;
position = "{780, 0}";
},
{
name = top;
position = "{462, 1660}";
}
);
layerId = "B61D43DE-5272-4FF4-A680-608B6BF5ED9E";
paths = (
{
closed = 1;
nodes = (
"446 -378 LINE",
"974 1067 LINE",
"880 1153 LINE",
"741 1093 LINE",
"542 552 LINE",
"478 322 LINE",
"414 552 LINE",
"266 996 LINE",
"-12 996 LINE",
"362 68 LINE",
"200 -378 LINE"
);
},
{
closed = 1;
nodes = (
"995 1142 OFFCURVE",
"1031 1161 OFFCURVE",
"1092 1161 CURVE SMOOTH",
"1146 1161 OFFCURVE",
"1195 1109 OFFCURVE",
"1217 1067 CURVE",
"1329 1271 LINE",
"1298 1308 OFFCURVE",
"1226 1394 OFFCURVE",
"1051 1394 CURVE SMOOTH",
"886 1394 OFFCURVE",
"799 1288 OFFCURVE",
"741 1093 CURVE",
"974 1067 LINE"
);
}
);
width = 946;
}
);
leftMetricsKey = y;
unicode = 01B4;
},
{
glyphname = z;
lastChange = "2022-05-07 02:53:43 +0000";
layers = (
{
anchors = (
{
name = btm;
position = "{436, 0}";
},
{
name = center;
position = "{452, 505}";
},
{
name = top;
position = "{486, 1660}";
}
);
layerId = "B61D43DE-5272-4FF4-A680-608B6BF5ED9E";
paths = (
{
closed = 1;
nodes = (
"822 0 LINE",
"822 182 LINE",
"336 182 LINE",
"366 98 LINE",
"862 996 LINE",
"110 996 LINE",
"110 806 LINE",
"532 806 LINE",
"532 904 LINE",
"26 0 LINE"
);
}
);
width = 888;
}
);
leftKerningGroup = z;
rightKerningGroup = z;
unicode = 007A;
},
{
glyphname = a.ss01;
lastChange = "2022-05-07 02:24:03 +0000";
layers = (
{
anchors = (
{
name = btm;
position = "{544, 0}";
},
{
name = top;
position = "{552, 1660}";
}
);
layerId = "B61D43DE-5272-4FF4-A680-608B6BF5ED9E";
paths = (
{
closed = 1;
nodes = (
"606 -28 OFFCURVE",
"694 54 OFFCURVE",
"734 204 CURVE",
"734 0 LINE",
"966 0 LINE",
"966 996 LINE",
"734 996 LINE",
"734 824 LINE",
"706 950 OFFCURVE",
"608 1020 OFFCURVE",
"470 1020 CURVE SMOOTH",
"210 1020 OFFCURVE",
"84 804 OFFCURVE",
"84 496 CURVE SMOOTH",
"84 180 OFFCURVE",
"230 -28 OFFCURVE",
"474 -28 CURVE SMOOTH"
);
},
{
closed = 1;
nodes = (
"422 170 OFFCURVE",
"346 276 OFFCURVE",
"346 496 CURVE SMOOTH",
"346 742 OFFCURVE",
"444 818 OFFCURVE",
"538 818 CURVE SMOOTH",
"660 818 OFFCURVE",
"718 700 OFFCURVE",
"718 492 CURVE SMOOTH",
"718 264 OFFCURVE",
"628 170 OFFCURVE",
"532 170 CURVE SMOOTH"
);
}
);
width = 1114;
}
);
leftKerningGroup = o;
leftMetricsKey = o;
rightKerningGroup = n;
rightMetricsKey = u;
},
{
color = 4;
glyphname = aogonek.ss01;
lastChange = "2022-05-07 02:24:03 +0000";
layers = (
{
components = (
{
name = a.ss01;
}
);
layerId = "B61D43DE-5272-4FF4-A680-608B6BF5ED9E";
paths = (
{
closed = 1;
nodes = (
"868 -480 OFFCURVE",
"926 -468 OFFCURVE",
"966 -448 CURVE",
"966 -268 LINE",
"918 -292 OFFCURVE",
"896 -298 OFFCURVE",
"856 -298 CURVE SMOOTH",
"796 -298 OFFCURVE",
"744 -284 OFFCURVE",
"744 -216 CURVE SMOOTH",
"744 -130 OFFCURVE",
"844 -54 OFFCURVE",
"966 0 CURVE",
"836 66 LINE",
"734 0 LINE",
"596 -46 OFFCURVE",
"500 -158 OFFCURVE",
"500 -256 CURVE SMOOTH",
"500 -398 OFFCURVE",
"608 -480 OFFCURVE",
"798 -480 CURVE SMOOTH"
);
}
);
width = 1114;
}
);
leftKerningGroup = o;
leftMetricsKey = o;
widthMetricsKey = a.ss01;
rightKerningGroup = n;
},
{
glyphname = ordfeminine;
lastChange = "2019-10-28 18:28:25 +0000";
layers = (
{
layerId = "B61D43DE-5272-4FF4-A680-608B6BF5ED9E";
paths = (
{
closed = 1;
nodes = (
"420 548 OFFCURVE",
"488 596 OFFCURVE",
"552 690 CURVE",
"568 572 LINE",
"762 572 LINE",
"762 1112 LINE SMOOTH",
"762 1296 OFFCURVE",
"690 1414 OFFCURVE",
"434 1414 CURVE SMOOTH",
"292 1414 OFFCURVE",
"166 1368 OFFCURVE",
"94 1324 CURVE",
"166 1164 LINE",
"208 1208 OFFCURVE",
"308 1240 OFFCURVE",
"396 1240 CURVE SMOOTH",
"514 1240 OFFCURVE",
"544 1180 OFFCURVE",
"544 1098 CURVE",
"544 1054 LINE",
"142 1054 OFFCURVE",
"62 890 OFFCURVE",
"62 790 CURVE SMOOTH",
"62 654 OFFCURVE",
"142 548 OFFCURVE",
"306 548 CURVE SMOOTH"
);
},
{
closed = 1;
nodes = (
"322 708 OFFCURVE",
"280 730 OFFCURVE",
"280 810 CURVE SMOOTH",
"280 900 OFFCURVE",
"406 928 OFFCURVE",
"504 928 CURVE SMOOTH",
"518 928 OFFCURVE",
"532 928 OFFCURVE",
"544 926 CURVE",
"544 808 LINE",
"508 746 OFFCURVE",
"450 708 OFFCURVE",
"396 708 CURVE SMOOTH"
);
}
);
width = 842;
}
);
leftKerningGroup = ordfeminine;
rightKerningGroup = ordfeminine;
unicode = 00AA;
userData = {
com.typemytype.robofont.mark = (
0.6,
1,
0.628,
1
);
};
},
{
glyphname = ordmasculine;
lastChange = "2019-10-28 18:28:25 +0000";
layers = (
{
layerId = "B61D43DE-5272-4FF4-A680-608B6BF5ED9E";
paths = (
{
closed = 1;
nodes = (
"736 556 OFFCURVE",
"884 724 OFFCURVE",
"884 984 CURVE SMOOTH",
"884 1246 OFFCURVE",
"742 1414 OFFCURVE",
"480 1414 CURVE SMOOTH",
"216 1414 OFFCURVE",
"60 1256 OFFCURVE",
"60 984 CURVE SMOOTH",
"60 716 OFFCURVE",
"208 556 OFFCURVE",
"472 556 CURVE SMOOTH"
);
},
{
closed = 1;
nodes = (
"362 720 OFFCURVE",
"302 794 OFFCURVE",
"302 984 CURVE SMOOTH",
"302 1174 OFFCURVE",
"362 1250 OFFCURVE",
"476 1250 CURVE SMOOTH",
"586 1250 OFFCURVE",
"642 1160 OFFCURVE",
"642 984 CURVE SMOOTH",
"642 810 OFFCURVE",
"586 720 OFFCURVE",
"476 720 CURVE SMOOTH"
);
}
);
width = 944;
}
);
leftKerningGroup = ordmasculine;
rightKerningGroup = ordmasculine;
unicode = 00BA;
userData = {
com.typemytype.robofont.mark = (
0.6,
1,
0.628,
1
);
};
},
{
glyphname = Delta;
lastChange = "2022-05-07 02:24:03 +0000";
layers = (
{
layerId = "B61D43DE-5272-4FF4-A680-608B6BF5ED9E";
paths = (
{
closed = 1;
nodes = (
"1450 0 LINE",
"794 1470 LINE",
"128 0 LINE"
);
},
{
closed = 1;
nodes = (
"778 1006 LINE",
"1114 202 LINE",
"438 202 LINE"
);
}
);
width = 1570;
}
);
leftKerningGroup = Delta;
rightKerningGroup = Delta;
unicode = 0394;
},
{
glyphname = Omega;
lastChange = "2022-05-07 02:24:03 +0000";
layers = (
{
layerId = "B61D43DE-5272-4FF4-A680-608B6BF5ED9E";
paths = (
{
closed = 1;
nodes = (
"678 0 LINE",
"678 188 LINE",
"550 322 OFFCURVE",
"386 496 OFFCURVE",
"386 746 CURVE SMOOTH",
"386 954 OFFCURVE",
"490 1226 OFFCURVE",
"784 1226 CURVE SMOOTH",
"1076 1226 OFFCURVE",
"1180 942 OFFCURVE",
"1180 746 CURVE SMOOTH",
"1180 496 OFFCURVE",
"1016 322 OFFCURVE",
"888 188 CURVE",
"888 0 LINE",
"1468 0 LINE",
"1468 230 LINE",
"1108 200 LINE",
"1184 250 OFFCURVE",
"1420 416 OFFCURVE",
"1420 776 CURVE SMOOTH",
"1420 1148 OFFCURVE",
"1160 1428 OFFCURVE",
"786 1428 CURVE SMOOTH",
"414 1428 OFFCURVE",
"146 1154 OFFCURVE",
"146 776 CURVE SMOOTH",
"146 416 OFFCURVE",
"382 250 OFFCURVE",
"458 200 CURVE",
"98 230 LINE",
"98 0 LINE"
);
}
);
width = 1566;
}
);
leftKerningGroup = Omega;
rightKerningGroup = Omega;
unicode = 03A9;
},
{
glyphname = mu;
lastChange = "2021-12-06 03:11:51 +0000";
layers = (
{
layerId = "B61D43DE-5272-4FF4-A680-608B6BF5ED9E";
paths = (
{
closed = 1;
nodes = (
"374 -436 LINE",
"374 152 LINE",
"374 14 OFFCURVE",
"474 -20 OFFCURVE",
"568 -20 CURVE SMOOTH",
"694 -20 OFFCURVE",
"756 88 OFFCURVE",
"768 178 CURVE",
"768 106 OFFCURVE",
"796 28 OFFCURVE",
"838 0 CURVE",
"1060 0 LINE",
"1016 42 OFFCURVE",
"974 170 OFFCURVE",
"974 292 CURVE SMOOTH",
"974 996 LINE",
"734 996 LINE",
"734 432 LINE SMOOTH",
"734 322 OFFCURVE",
"672 212 OFFCURVE",
"568 212 CURVE SMOOTH",
"462 212 OFFCURVE",
"396 302 OFFCURVE",
"396 418 CURVE SMOOTH",
"396 996 LINE",
"156 996 LINE",
"156 -436 LINE"
);
}
);
width = 1116;
}
);
leftKerningGroup = p;
leftMetricsKey = h;
rightKerningGroup = u;
unicode = 03BC;
userData = {
com.typemytype.robofont.mark = (
0.6,
1,
0.628,
1
);
};
},
{
glyphname = pi;
lastChange = "2021-12-06 03:11:51 +0000";
layers = (
{
layerId = "B61D43DE-5272-4FF4-A680-608B6BF5ED9E";
paths = (
{
closed = 1;
nodes = (
"444 0 LINE",
"468 124 OFFCURVE",
"482 346 OFFCURVE",
"490 518 CURVE SMOOTH",
"502 772 LINE",
"744 772 LINE",
"750 320 LINE SMOOTH",
"754 82 OFFCURVE",
"786 26 OFFCURVE",
"820 0 CURVE",
"1084 0 LINE",
"1036 58 OFFCURVE",
"984 192 OFFCURVE",
"976 448 CURVE SMOOTH",
"966 772 LINE",
"1160 772 LINE",
"1176 996 LINE",
"272 996 LINE SMOOTH",
"128 996 OFFCURVE",
"58 948 OFFCURVE",
"20 898 CURVE",
"120 722 LINE",
"162 764 OFFCURVE",
"188 772 OFFCURVE",
"284 772 CURVE",
"260 526 LINE SMOOTH",
"242 350 OFFCURVE",
"218 144 OFFCURVE",
"182 0 CURVE"
);
}
);
width = 1196;
}
);
leftKerningGroup = pi;
rightKerningGroup = pi;
unicode = 03C0;
userData = {
com.typemytype.robofont.mark = (
0.6,
1,
0.628,
1
);
};
},
{
glyphname = zero;
lastChange = "2019-10-28 18:28:25 +0000";
layers = (
{
layerId = "B61D43DE-5272-4FF4-A680-608B6BF5ED9E";
paths = (
{
closed = 1;
nodes = (
"944 -36 OFFCURVE",
"1088 266 OFFCURVE",
"1088 694 CURVE SMOOTH",
"1088 1192 OFFCURVE",
"902 1428 OFFCURVE",
"580 1428 CURVE SMOOTH",
"258 1428 OFFCURVE",
"72 1192 OFFCURVE",
"72 694 CURVE SMOOTH",
"72 266 OFFCURVE",
"216 -36 OFFCURVE",
"580 -36 CURVE SMOOTH"
);
},
{
closed = 1;
nodes = (
"410 178 OFFCURVE",
"352 404 OFFCURVE",
"352 696 CURVE SMOOTH",
"352 1004 OFFCURVE",
"412 1218 OFFCURVE",
"582 1218 CURVE SMOOTH",
"750 1218 OFFCURVE",
"808 1004 OFFCURVE",
"808 696 CURVE SMOOTH",
"808 404 OFFCURVE",
"754 178 OFFCURVE",
"582 178 CURVE SMOOTH"
);
}
);
width = 1160;
}
);
leftKerningGroup = zero;
rightKerningGroup = zero;
unicode = 0030;
},
{
glyphname = one;
lastChange = "2019-10-28 18:28:25 +0000";
layers = (
{
layerId = "B61D43DE-5272-4FF4-A680-608B6BF5ED9E";
paths = (
{
closed = 1;
nodes = (
"448 0 LINE",
"448 1430 LINE",
"178 1304 LINE",
"178 0 LINE"
);
}
);
width = 626;
}
);
leftKerningGroup = one;
rightKerningGroup = one;
unicode = 0031;
},
{
glyphname = two;
lastChange = "2019-10-28 18:28:25 +0000";
layers = (
{
background = {
paths = (
{
closed = 1;
nodes = (
"402 374 OFFCURVE",
"522 418 OFFCURVE",
"692 528 CURVE SMOOTH",
"856 634 OFFCURVE",
"1016 774 OFFCURVE",
"1016 1030 CURVE SMOOTH",
"1016 1284 OFFCURVE",
"818 1428 OFFCURVE",
"570 1428 CURVE SMOOTH",
"298 1428 OFFCURVE",
"110 1256 OFFCURVE",
"78 1048 CURVE",
"290 948 LINE",
"314 1100 OFFCURVE",
"404 1206 OFFCURVE",
"552 1206 CURVE SMOOTH",
"694 1206 OFFCURVE",
"756 1110 OFFCURVE",
"756 1006 CURVE SMOOTH",
"756 792 OFFCURVE",
"546 706 OFFCURVE",
"408 618 CURVE SMOOTH",
"166 464 OFFCURVE",
"112 322 OFFCURVE",
"112 140 CURVE SMOOTH",
"112 82 OFFCURVE",
"118 42 OFFCURVE",
"126 0 CURVE",
"1024 0 LINE",
"1024 228 LINE",
"374 228 LINE"
);
}
);
};
layerId = "B61D43DE-5272-4FF4-A680-608B6BF5ED9E";
paths = (
{
closed = 1;
nodes = (
"396 348 OFFCURVE",
"480 398 OFFCURVE",
"606 474 CURVE SMOOTH",
"872 634 OFFCURVE",
"1016 770 OFFCURVE",
"1016 1030 CURVE SMOOTH",
"1016 1284 OFFCURVE",
"818 1428 OFFCURVE",
"570 1428 CURVE SMOOTH",
"298 1428 OFFCURVE",
"110 1256 OFFCURVE",
"78 1048 CURVE",
"290 948 LINE",
"314 1100 OFFCURVE",
"404 1206 OFFCURVE",
"552 1206 CURVE SMOOTH",
"694 1206 OFFCURVE",
"756 1110 OFFCURVE",
"756 1006 CURVE SMOOTH",
"756 824 OFFCURVE",
"604 734 OFFCURVE",
"474 658 CURVE SMOOTH",
"238 520 OFFCURVE",
"112 394 OFFCURVE",
"112 140 CURVE SMOOTH",
"112 82 OFFCURVE",
"118 42 OFFCURVE",
"126 0 CURVE",
"1024 0 LINE",
"1024 228 LINE",
"374 228 LINE"
);
}
);
width = 1122;
}
);
leftKerningGroup = two;
rightKerningGroup = two;
unicode = 0032;
},
{
color = 3;
glyphname = three;
lastChange = "2019-10-28 18:28:25 +0000";
layers = (
{
layerId = "B61D43DE-5272-4FF4-A680-608B6BF5ED9E";
paths = (
{
closed = 1;
nodes = (
"780 -30 OFFCURVE",
"1012 128 OFFCURVE",
"1012 392 CURVE SMOOTH",
"1012 560 OFFCURVE",
"912 720 OFFCURVE",
"742 720 CURVE",
"890 758 OFFCURVE",
"974 918 OFFCURVE",
"974 1070 CURVE SMOOTH",
"974 1298 OFFCURVE",
"798 1428 OFFCURVE",
"522 1428 CURVE SMOOTH",
"312 1428 OFFCURVE",
"158 1362 OFFCURVE",
"76 1290 CURVE",
"176 1078 LINE",
"248 1158 OFFCURVE",
"390 1200 OFFCURVE",
"468 1200 CURVE SMOOTH",
"612 1200 OFFCURVE",
"694 1162 OFFCURVE",
"694 1030 CURVE SMOOTH",
"694 908 OFFCURVE",
"616 818 OFFCURVE",
"452 818 CURVE SMOOTH",
"344 818 LINE",
"344 620 LINE",
"450 620 LINE SMOOTH",
"596 620 OFFCURVE",
"730 584 OFFCURVE",
"730 422 CURVE SMOOTH",
"730 294 OFFCURVE",
"648 198 OFFCURVE",
"468 198 CURVE SMOOTH",
"362 198 OFFCURVE",
"244 240 OFFCURVE",
"168 314 CURVE",
"84 86 LINE",
"196 6 OFFCURVE",
"342 -30 OFFCURVE",
"494 -30 CURVE SMOOTH"
);
}
);
width = 1090;
}
);
leftKerningGroup = three;
rightKerningGroup = three;
unicode = 0033;
},
{
glyphname = four;
lastChange = "2019-10-28 18:28:25 +0000";
layers = (
{
layerId = "B61D43DE-5272-4FF4-A680-608B6BF5ED9E";
paths = (
{
closed = 1;
nodes = (
"1002 0 LINE",
"1002 1394 LINE",
"762 1394 LINE",
"752 432 LINE",
"740 316 LINE",
"740 0 LINE"
);
},
{
closed = 1;
nodes = (
"80 252 LINE",
"1170 252 LINE",
"1170 446 LINE",
"422 446 LINE",
"536 694 LINE",
"818 1394 LINE",
"580 1394 LINE",
"66 274 LINE"
);
}
);
width = 1222;
}
);
leftKerningGroup = four;
rightKerningGroup = four;
unicode = 0034;
},
{
glyphname = five;
lastChange = "2019-10-28 18:28:25 +0000";
layers = (
{
layerId = "B61D43DE-5272-4FF4-A680-608B6BF5ED9E";
paths = (
{
closed = 1;
nodes = (
"786 -26 OFFCURVE",
"1010 166 OFFCURVE",
"1010 478 CURVE SMOOTH",
"1010 740 OFFCURVE",
"860 908 OFFCURVE",
"578 908 CURVE SMOOTH",
"506 908 OFFCURVE",
"448 902 OFFCURVE",
"386 884 CURVE",
"406 1182 LINE",
"950 1182 LINE",
"950 1394 LINE",
"178 1394 LINE",
"152 648 LINE",
"194 674 OFFCURVE",
"324 712 OFFCURVE",
"436 712 CURVE SMOOTH",
"630 712 OFFCURVE",
"740 610 OFFCURVE",
"740 452 CURVE SMOOTH",
"740 214 OFFCURVE",
"554 192 OFFCURVE",
"426 192 CURVE SMOOTH",
"332 192 OFFCURVE",
"222 234 OFFCURVE",
"164 288 CURVE",
"90 64 LINE",
"188 -2 OFFCURVE",
"338 -26 OFFCURVE",
"460 -26 CURVE SMOOTH"
);
}
);
width = 1092;
}
);
leftKerningGroup = five;
rightKerningGroup = five;
unicode = 0035;
},
{
glyphname = six;
lastChange = "2019-10-28 18:28:25 +0000";
layers = (
{
background = {
paths = (
{
closed = 1;
nodes = (
"956 -30 OFFCURVE",
"1162 166 OFFCURVE",
"1162 474 CURVE SMOOTH",
"1162 716 OFFCURVE",
"1014 914 OFFCURVE",
"744 914 CURVE SMOOTH",
"598 914 OFFCURVE",
"456 854 OFFCURVE",
"384 716 CURVE",
"384 738 OFFCURVE",
"384 762 OFFCURVE",
"386 790 CURVE SMOOTH",
"400 996 OFFCURVE",
"530 1210 OFFCURVE",
"738 1210 CURVE SMOOTH",
"812 1210 OFFCURVE",
"914 1192 OFFCURVE",
"968 1134 CURVE",
"1066 1326 LINE",
"1002 1388 OFFCURVE",
"912 1428 OFFCURVE",
"724 1428 CURVE SMOOTH",
"372 1428 OFFCURVE",
"116 1140 OFFCURVE",
"116 672 CURVE SMOOTH",
"116 146 OFFCURVE",
"386 -30 OFFCURVE",
"648 -30 CURVE SMOOTH"
);
},
{
closed = 1;
nodes = (
"538 176 OFFCURVE",
"442 264 OFFCURVE",
"422 406 CURVE SMOOTH",
"418 430 OFFCURVE",
"414 452 OFFCURVE",
"414 472 CURVE",
"422 602 OFFCURVE",
"552 710 OFFCURVE",
"684 710 CURVE SMOOTH",
"828 710 OFFCURVE",
"894 606 OFFCURVE",
"894 450 CURVE SMOOTH",
"894 278 OFFCURVE",
"788 176 OFFCURVE",
"662 176 CURVE SMOOTH"
);
}
);
};
layerId = "B61D43DE-5272-4FF4-A680-608B6BF5ED9E";
paths = (
{
closed = 1;
nodes = (
"956 -30 OFFCURVE",
"1162 166 OFFCURVE",
"1162 474 CURVE SMOOTH",
"1162 716 OFFCURVE",
"1014 914 OFFCURVE",
"744 914 CURVE SMOOTH",
"598 914 OFFCURVE",
"456 854 OFFCURVE",
"384 716 CURVE",
"384 738 OFFCURVE",
"384 762 OFFCURVE",
"386 790 CURVE SMOOTH",
"400 996 OFFCURVE",
"530 1210 OFFCURVE",
"738 1210 CURVE SMOOTH",
"812 1210 OFFCURVE",
"914 1192 OFFCURVE",
"968 1134 CURVE",
"1066 1326 LINE",
"1002 1388 OFFCURVE",
"912 1428 OFFCURVE",
"724 1428 CURVE SMOOTH",
"372 1428 OFFCURVE",
"116 1140 OFFCURVE",
"116 672 CURVE SMOOTH",
"116 146 OFFCURVE",
"386 -30 OFFCURVE",
"648 -30 CURVE SMOOTH"
);
},
{
closed = 1;
nodes = (
"506 176 OFFCURVE",
"414 314 OFFCURVE",
"414 472 CURVE",
"422 602 OFFCURVE",
"552 710 OFFCURVE",
"684 710 CURVE SMOOTH",
"828 710 OFFCURVE",
"894 606 OFFCURVE",
"894 450 CURVE SMOOTH",
"894 278 OFFCURVE",
"788 176 OFFCURVE",
"662 176 CURVE SMOOTH"
);
}
);
width = 1246;
}
);
leftKerningGroup = six;
rightKerningGroup = six;
unicode = 0036;
},
{
glyphname = seven;
lastChange = "2019-10-28 18:28:25 +0000";
layers = (
{
layerId = "B61D43DE-5272-4FF4-A680-608B6BF5ED9E";
paths = (
{
closed = 1;
nodes = (
"554 0 LINE",
"1004 1394 LINE",
"90 1394 LINE",
"90 1158 LINE",
"818 1158 LINE",
"716 1294 LINE",
"268 0 LINE"
);
}
);
width = 1054;
}
);
leftKerningGroup = seven;
rightKerningGroup = seven;
unicode = 0037;
},
{
glyphname = eight;
lastChange = "2019-10-28 18:28:25 +0000";
layers = (
{
layerId = "B61D43DE-5272-4FF4-A680-608B6BF5ED9E";
paths = (
{
closed = 1;
nodes = (
"870 -36 OFFCURVE",
"1144 80 OFFCURVE",
"1144 382 CURVE SMOOTH",
"1144 580 OFFCURVE",
"1006 702 OFFCURVE",
"812 746 CURVE",
"820 706 LINE",
"974 758 OFFCURVE",
"1084 874 OFFCURVE",
"1084 1066 CURVE SMOOTH",
"1084 1330 OFFCURVE",
"852 1428 OFFCURVE",
"622 1428 CURVE SMOOTH",
"390 1428 OFFCURVE",
"154 1330 OFFCURVE",
"154 1066 CURVE SMOOTH",
"154 872 OFFCURVE",
"256 756 OFFCURVE",
"418 706 CURVE",
"424 746 LINE",
"232 700 OFFCURVE",
"94 580 OFFCURVE",
"94 382 CURVE SMOOTH",
"94 80 OFFCURVE",
"368 -36 OFFCURVE",
"620 -36 CURVE SMOOTH"
);
},
{
closed = 1;
nodes = (
"466 166 OFFCURVE",
"382 238 OFFCURVE",
"382 386 CURVE SMOOTH",
"382 566 OFFCURVE",
"504 624 OFFCURVE",
"620 624 CURVE SMOOTH",
"734 624 OFFCURVE",
"854 566 OFFCURVE",
"854 386 CURVE SMOOTH",
"854 238 OFFCURVE",
"772 166 OFFCURVE",
"620 166 CURVE SMOOTH"
);
},
{
closed = 1;
nodes = (
"500 820 OFFCURVE",
"422 904 OFFCURVE",
"422 1048 CURVE SMOOTH",
"422 1178 OFFCURVE",
"488 1244 OFFCURVE",
"624 1244 CURVE SMOOTH",
"758 1244 OFFCURVE",
"818 1178 OFFCURVE",
"818 1048 CURVE SMOOTH",
"818 904 OFFCURVE",
"748 820 OFFCURVE",
"624 820 CURVE SMOOTH"
);
}
);
width = 1238;
}
);
leftKerningGroup = eight;
rightKerningGroup = eight;
unicode = 0038;
},
{
glyphname = nine;
lastChange = "2019-10-28 18:28:25 +0000";
layers = (
{
layerId = "B61D43DE-5272-4FF4-A680-608B6BF5ED9E";
paths = (
{
closed = 1;
nodes = (
"906 -30 OFFCURVE",
"1162 258 OFFCURVE",
"1162 726 CURVE SMOOTH",
"1162 1252 OFFCURVE",
"878 1428 OFFCURVE",
"640 1428 CURVE SMOOTH",
"332 1428 OFFCURVE",
"116 1240 OFFCURVE",
"116 932 CURVE SMOOTH",
"116 690 OFFCURVE",
"264 484 OFFCURVE",
"534 484 CURVE SMOOTH",
"680 484 OFFCURVE",
"828 544 OFFCURVE",
"900 682 CURVE",
"900 660 OFFCURVE",
"900 636 OFFCURVE",
"898 608 CURVE SMOOTH",
"888 366 OFFCURVE",
"748 196 OFFCURVE",
"540 196 CURVE SMOOTH",
"466 196 OFFCURVE",
"364 214 OFFCURVE",
"310 272 CURVE",
"212 72 LINE",
"276 10 OFFCURVE",
"366 -30 OFFCURVE",
"554 -30 CURVE SMOOTH"
);
},
{
closed = 1;
nodes = (
"456 688 OFFCURVE",
"384 800 OFFCURVE",
"384 956 CURVE SMOOTH",
"384 1128 OFFCURVE",
"508 1222 OFFCURVE",
"634 1222 CURVE SMOOTH",
"784 1222 OFFCURVE",
"864 1082 OFFCURVE",
"864 926 CURVE",
"856 796 OFFCURVE",
"732 688 OFFCURVE",
"600 688 CURVE SMOOTH"
);
}
);
width = 1246;
}
);
leftKerningGroup = nine;
rightKerningGroup = nine;
unicode = 0039;
},
{
glyphname = zero.zero;
lastChange = "2022-05-07 02:24:03 +0000";
layers = (
{
components = (
{
name = zero;
}
);
layerId = "B61D43DE-5272-4FF4-A680-608B6BF5ED9E";
paths = (
{
closed = 1;
nodes = (
"486 178 LINE",
"838 1218 LINE",
"680 1218 LINE",
"328 178 LINE"
);
}
);
width = 1160;
}
);
leftKerningGroup = zero;
leftMetricsKey = zero;
rightKerningGroup = zero;
rightMetricsKey = zero;
},
{
glyphname = zero.lt.zero;
lastChange = "2022-05-07 02:24:03 +0000";
layers = (
{
components = (
{
name = zero;
}
);
layerId = "B61D43DE-5272-4FF4-A680-608B6BF5ED9E";
paths = (
{
closed = 1;
nodes = (
"486 178 LINE",
"838 1218 LINE",
"680 1218 LINE",
"328 178 LINE"
);
}
);
width = 1160;
}
);
leftKerningGroup = zero.lt.zero;
leftMetricsKey = zero.zero;
rightKerningGroup = zero.lt.zero;
rightMetricsKey = zero.zero;
},
{
glyphname = zero.osf;
lastChange = "2022-05-07 02:24:03 +0000";
layers = (
{
layerId = "B61D43DE-5272-4FF4-A680-608B6BF5ED9E";
paths = (
{
closed = 1;
nodes = (
"944 -36 OFFCURVE",
"1088 266 OFFCURVE",
"1088 606 CURVE SMOOTH",
"1088 1026 OFFCURVE",
"902 1264 OFFCURVE",
"580 1264 CURVE SMOOTH",
"258 1264 OFFCURVE",
"72 1026 OFFCURVE",
"72 606 CURVE SMOOTH",
"72 266 OFFCURVE",
"216 -36 OFFCURVE",
"580 -36 CURVE SMOOTH"
);
},
{
closed = 1;
nodes = (
"408 178 OFFCURVE",
"350 404 OFFCURVE",
"350 608 CURVE SMOOTH",
"350 848 OFFCURVE",
"410 1054 OFFCURVE",
"580 1054 CURVE SMOOTH",
"748 1054 OFFCURVE",
"810 916 OFFCURVE",
"810 608 CURVE SMOOTH",
"810 404 OFFCURVE",
"752 178 OFFCURVE",
"580 178 CURVE SMOOTH"
);
}
);
width = 1164;
}
);
leftKerningGroup = zero.osf;
rightKerningGroup = zero.osf;
},
{
glyphname = one.osf;
lastChange = "2022-05-07 02:24:03 +0000";
layers = (
{
layerId = "B61D43DE-5272-4FF4-A680-608B6BF5ED9E";
paths = (
{
closed = 1;
nodes = (
"828 0 LINE",
"828 196 LINE",
"600 196 LINE",
"600 1240 LINE",
"100 1186 LINE",
"100 956 LINE",
"330 986 LINE",
"330 196 LINE",
"70 196 LINE",
"70 0 LINE"
);
}
);
width = 878;
}
);
leftKerningGroup = one.osf;
rightKerningGroup = one.osf;
},
{
glyphname = two.osf;
lastChange = "2022-05-07 02:24:03 +0000";
layers = (
{
background = {
paths = (
{
closed = 1;
nodes = (
"398 294 OFFCURVE",
"502 346 OFFCURVE",
"658 444 CURVE SMOOTH",
"822 548 OFFCURVE",
"970 696 OFFCURVE",
"970 866 CURVE SMOOTH",
"970 1116 OFFCURVE",
"822 1264 OFFCURVE",
"544 1264 CURVE SMOOTH",
"318 1264 OFFCURVE",
"154 1138 OFFCURVE",
"84 1000 CURVE",
"266 848 LINE",
"304 944 OFFCURVE",
"388 1036 OFFCURVE",
"518 1036 CURVE SMOOTH",
"652 1036 OFFCURVE",
"702 970 OFFCURVE",
"702 866 CURVE SMOOTH",
"702 720 OFFCURVE",
"512 608 OFFCURVE",
"374 520 CURVE SMOOTH",
"132 366 OFFCURVE",
"78 250 OFFCURVE",
"78 140 CURVE SMOOTH",
"78 82 OFFCURVE",
"84 42 OFFCURVE",
"92 0 CURVE",
"990 0 LINE",
"990 222 LINE",
"366 222 LINE"
);
}
);
};
layerId = "B61D43DE-5272-4FF4-A680-608B6BF5ED9E";
paths = (
{
closed = 1;
nodes = (
"392 282 OFFCURVE",
"470 330 OFFCURVE",
"586 400 CURVE SMOOTH",
"814 538 OFFCURVE",
"970 668 OFFCURVE",
"970 866 CURVE SMOOTH",
"970 1116 OFFCURVE",
"814 1264 OFFCURVE",
"536 1264 CURVE SMOOTH",
"310 1264 OFFCURVE",
"158 1148 OFFCURVE",
"84 1000 CURVE",
"266 848 LINE",
"304 944 OFFCURVE",
"392 1036 OFFCURVE",
"518 1036 CURVE SMOOTH",
"652 1036 OFFCURVE",
"702 970 OFFCURVE",
"702 866 CURVE SMOOTH",
"702 720 OFFCURVE",
"512 604 OFFCURVE",
"374 520 CURVE SMOOTH",
"128 370 OFFCURVE",
"78 250 OFFCURVE",
"78 140 CURVE SMOOTH",
"78 82 OFFCURVE",
"84 42 OFFCURVE",
"92 0 CURVE",
"990 0 LINE",
"990 222 LINE",
"366 222 LINE"
);
}
);
width = 1088;
}
);
leftKerningGroup = two.osf;
leftMetricsKey = two;
rightKerningGroup = two.osf;
rightMetricsKey = two;
},
{
color = 3;
glyphname = three.osf;
lastChange = "2022-05-07 02:24:03 +0000";
layers = (
{
layerId = "B61D43DE-5272-4FF4-A680-608B6BF5ED9E";
paths = (
{
closed = 1;
nodes = (
"784 -196 OFFCURVE",
"1016 -38 OFFCURVE",
"1016 226 CURVE SMOOTH",
"1016 394 OFFCURVE",
"912 554 OFFCURVE",
"742 554 CURVE",
"890 592 OFFCURVE",
"974 752 OFFCURVE",
"974 904 CURVE SMOOTH",
"974 1132 OFFCURVE",
"798 1262 OFFCURVE",
"522 1262 CURVE SMOOTH",
"354 1262 OFFCURVE",
"158 1196 OFFCURVE",
"76 1124 CURVE",
"176 912 LINE",
"248 992 OFFCURVE",
"390 1034 OFFCURVE",
"468 1034 CURVE SMOOTH",
"612 1034 OFFCURVE",
"694 996 OFFCURVE",
"694 864 CURVE SMOOTH",
"694 742 OFFCURVE",
"616 652 OFFCURVE",
"452 652 CURVE SMOOTH",
"344 652 LINE",
"344 458 LINE",
"450 458 LINE SMOOTH",
"596 458 OFFCURVE",
"734 418 OFFCURVE",
"734 256 CURVE SMOOTH",
"734 128 OFFCURVE",
"652 32 OFFCURVE",
"472 32 CURVE SMOOTH",
"366 32 OFFCURVE",
"248 74 OFFCURVE",
"172 148 CURVE",
"88 -80 LINE",
"200 -160 OFFCURVE",
"346 -196 OFFCURVE",
"498 -196 CURVE SMOOTH"
);
}
);
width = 1094;
}
);
leftKerningGroup = three.osf;
leftMetricsKey = three;
rightKerningGroup = three.osf;
rightMetricsKey = three;
},
{
glyphname = four.osf;
lastChange = "2022-05-07 02:24:03 +0000";
layers = (
{
layerId = "B61D43DE-5272-4FF4-A680-608B6BF5ED9E";
paths = (
{
closed = 1;
nodes = (
"1106 0 LINE",
"1106 224 LINE",
"406 224 LINE",
"494 584 LINE",
"668 1232 LINE",
"402 1232 LINE",
"72 0 LINE"
);
},
{
closed = 1;
nodes = (
"952 -312 LINE",
"952 606 LINE",
"704 606 LINE",
"684 64 LINE",
"684 -312 LINE"
);
}
);
width = 1166;
}
);
leftKerningGroup = four.osf;
rightKerningGroup = four.osf;
},
{
glyphname = five.osf;
lastChange = "2022-05-07 02:24:03 +0000";
layers = (
{
layerId = "B61D43DE-5272-4FF4-A680-608B6BF5ED9E";
paths = (
{
closed = 1;
nodes = (
"786 -212 OFFCURVE",
"1010 -20 OFFCURVE",
"1010 292 CURVE SMOOTH",
"1010 554 OFFCURVE",
"860 722 OFFCURVE",
"578 722 CURVE SMOOTH",
"506 722 OFFCURVE",
"448 716 OFFCURVE",
"386 698 CURVE",
"406 1020 LINE",
"950 1020 LINE",
"950 1232 LINE",
"178 1232 LINE",
"152 462 LINE",
"194 488 OFFCURVE",
"324 526 OFFCURVE",
"436 526 CURVE SMOOTH",
"630 526 OFFCURVE",
"740 424 OFFCURVE",
"740 266 CURVE SMOOTH",
"740 28 OFFCURVE",
"554 6 OFFCURVE",
"426 6 CURVE SMOOTH",
"332 6 OFFCURVE",
"222 48 OFFCURVE",
"164 102 CURVE",
"90 -122 LINE",
"188 -188 OFFCURVE",
"338 -212 OFFCURVE",
"460 -212 CURVE SMOOTH"
);
}
);
width = 1092;
}
);
leftKerningGroup = five.osf;
leftMetricsKey = five;
rightKerningGroup = five.osf;
rightMetricsKey = five;
},
{
glyphname = six.osf;
lastChange = "2022-05-07 02:24:03 +0000";
layers = (
{
layerId = "B61D43DE-5272-4FF4-A680-608B6BF5ED9E";
paths = (
{
closed = 1;
nodes = (
"964 -30 OFFCURVE",
"1154 166 OFFCURVE",
"1154 474 CURVE SMOOTH",
"1154 716 OFFCURVE",
"1008 914 OFFCURVE",
"744 914 CURVE SMOOTH",
"598 914 OFFCURVE",
"460 854 OFFCURVE",
"388 716 CURVE",
"388 738 OFFCURVE",
"390 762 OFFCURVE",
"390 790 CURVE SMOOTH",
"398 1030 OFFCURVE",
"530 1210 OFFCURVE",
"738 1210 CURVE SMOOTH",
"812 1210 OFFCURVE",
"908 1192 OFFCURVE",
"962 1134 CURVE",
"1060 1326 LINE",
"996 1388 OFFCURVE",
"906 1428 OFFCURVE",
"724 1428 CURVE SMOOTH",
"372 1428 OFFCURVE",
"124 1140 OFFCURVE",
"124 672 CURVE SMOOTH",
"124 146 OFFCURVE",
"418 -30 OFFCURVE",
"656 -30 CURVE SMOOTH"
);
},
{
closed = 1;
nodes = (
"520 176 OFFCURVE",
"418 326 OFFCURVE",
"418 472 CURVE",
"426 602 OFFCURVE",
"552 710 OFFCURVE",
"684 710 CURVE SMOOTH",
"828 710 OFFCURVE",
"890 606 OFFCURVE",
"890 450 CURVE SMOOTH",
"890 278 OFFCURVE",
"788 176 OFFCURVE",
"662 176 CURVE SMOOTH"
);
}
);
width = 1246;
}
);
leftKerningGroup = six.osf;
rightKerningGroup = six.osf;
},
{
glyphname = seven.osf;
lastChange = "2022-05-07 02:24:03 +0000";
layers = (
{
layerId = "B61D43DE-5272-4FF4-A680-608B6BF5ED9E";
paths = (
{
closed = 1;
nodes = (
"508 -176 LINE",
"1004 1232 LINE",
"90 1232 LINE",
"90 996 LINE",
"818 996 LINE",
"716 1132 LINE",
"218 -176 LINE"
);
}
);
width = 1054;
}
);
leftKerningGroup = seven.osf;
leftMetricsKey = seven;
rightKerningGroup = seven.osf;
rightMetricsKey = seven;
},
{
glyphname = eight.osf;
lastChange = "2022-05-07 02:24:03 +0000";
layers = (
{
layerId = "B61D43DE-5272-4FF4-A680-608B6BF5ED9E";
paths = (
{
closed = 1;
nodes = (
"864 -36 OFFCURVE",
"1124 80 OFFCURVE",
"1124 382 CURVE SMOOTH",
"1124 580 OFFCURVE",
"990 702 OFFCURVE",
"796 746 CURVE",
"806 706 LINE",
"956 758 OFFCURVE",
"1064 874 OFFCURVE",
"1064 1066 CURVE SMOOTH",
"1064 1330 OFFCURVE",
"846 1428 OFFCURVE",
"616 1428 CURVE SMOOTH",
"384 1428 OFFCURVE",
"162 1330 OFFCURVE",
"162 1066 CURVE SMOOTH",
"162 872 OFFCURVE",
"262 756 OFFCURVE",
"422 706 CURVE",
"426 746 LINE",
"238 700 OFFCURVE",
"102 580 OFFCURVE",
"102 382 CURVE SMOOTH",
"102 80 OFFCURVE",
"362 -36 OFFCURVE",
"614 -36 CURVE SMOOTH"
);
},
{
closed = 1;
nodes = (
"460 166 OFFCURVE",
"386 238 OFFCURVE",
"386 386 CURVE SMOOTH",
"386 566 OFFCURVE",
"498 628 OFFCURVE",
"614 628 CURVE SMOOTH",
"722 628 OFFCURVE",
"838 566 OFFCURVE",
"838 386 CURVE SMOOTH",
"838 238 OFFCURVE",
"766 166 OFFCURVE",
"614 166 CURVE SMOOTH"
);
},
{
closed = 1;
nodes = (
"494 818 OFFCURVE",
"426 904 OFFCURVE",
"426 1048 CURVE SMOOTH",
"426 1178 OFFCURVE",
"482 1244 OFFCURVE",
"618 1244 CURVE SMOOTH",
"752 1244 OFFCURVE",
"802 1178 OFFCURVE",
"802 1048 CURVE SMOOTH",
"802 904 OFFCURVE",
"736 818 OFFCURVE",
"618 818 CURVE SMOOTH"
);
}
);
width = 1226;
}
);
leftKerningGroup = eight.osf;
rightKerningGroup = eight.osf;
},
{
glyphname = nine.osf;
lastChange = "2022-05-07 02:24:03 +0000";
layers = (
{
layerId = "B61D43DE-5272-4FF4-A680-608B6BF5ED9E";
paths = (
{
closed = 1;
nodes = (
"910 -194 OFFCURVE",
"1152 94 OFFCURVE",
"1152 562 CURVE SMOOTH",
"1152 1088 OFFCURVE",
"926 1264 OFFCURVE",
"640 1264 CURVE SMOOTH",
"338 1264 OFFCURVE",
"124 1068 OFFCURVE",
"124 760 CURVE SMOOTH",
"124 518 OFFCURVE",
"310 310 OFFCURVE",
"574 310 CURVE SMOOTH",
"712 310 OFFCURVE",
"824 370 OFFCURVE",
"896 518 CURVE",
"896 500 OFFCURVE",
"894 482 OFFCURVE",
"894 434 CURVE SMOOTH",
"894 182 OFFCURVE",
"752 32 OFFCURVE",
"540 32 CURVE SMOOTH",
"466 32 OFFCURVE",
"370 50 OFFCURVE",
"316 108 CURVE",
"218 -92 LINE",
"282 -154 OFFCURVE",
"366 -194 OFFCURVE",
"554 -194 CURVE SMOOTH"
);
},
{
closed = 1;
nodes = (
"456 524 OFFCURVE",
"388 634 OFFCURVE",
"388 790 CURVE SMOOTH",
"388 962 OFFCURVE",
"508 1058 OFFCURVE",
"634 1058 CURVE SMOOTH",
"758 1058 OFFCURVE",
"840 936 OFFCURVE",
"850 828 CURVE SMOOTH",
"852 804 OFFCURVE",
"858 782 OFFCURVE",
"858 762 CURVE",
"850 632 OFFCURVE",
"724 524 OFFCURVE",
"600 524 CURVE SMOOTH"
);
}
);
width = 1246;
}
);
leftKerningGroup = nine.osf;
rightKerningGroup = nine.osf;
},
{
glyphname = zero.osf.zero;
lastChange = "2022-05-07 02:24:03 +0000";
layers = (
{
components = (
{
name = zero.osf;
}
);
layerId = "B61D43DE-5272-4FF4-A680-608B6BF5ED9E";
paths = (
{
closed = 1;
nodes = (
"478 178 LINE",
"830 1050 LINE",
"672 1050 LINE",
"320 178 LINE"
);
}
);
width = 1160;
}
);
leftKerningGroup = zero.osf;
leftMetricsKey = zero;
rightKerningGroup = zero.osf;
rightMetricsKey = zero;
},
{
glyphname = zero.tf;
lastChange = "2022-05-07 02:24:03 +0000";
layers = (
{
layerId = "B61D43DE-5272-4FF4-A680-608B6BF5ED9E";
paths = (
{
closed = 1;
nodes = (
"962 -36 OFFCURVE",
"1108 266 OFFCURVE",
"1108 694 CURVE SMOOTH",
"1108 1192 OFFCURVE",
"922 1428 OFFCURVE",
"600 1428 CURVE SMOOTH",
"278 1428 OFFCURVE",
"90 1192 OFFCURVE",
"90 694 CURVE SMOOTH",
"90 266 OFFCURVE",
"234 -36 OFFCURVE",
"598 -36 CURVE SMOOTH"
);
},
{
closed = 1;
nodes = (
"428 178 OFFCURVE",
"368 404 OFFCURVE",
"368 696 CURVE SMOOTH",
"368 1004 OFFCURVE",
"432 1218 OFFCURVE",
"602 1218 CURVE SMOOTH",
"770 1218 OFFCURVE",
"832 1004 OFFCURVE",
"832 696 CURVE SMOOTH",
"832 404 OFFCURVE",
"772 178 OFFCURVE",
"600 178 CURVE SMOOTH"
);
}
);
width = 1198;
}
);
userData = {
RMXScaler = {
source = zero;
};
};
},
{
glyphname = one.tf;
lastChange = "2022-05-07 02:24:03 +0000";
layers = (
{
layerId = "B61D43DE-5272-4FF4-A680-608B6BF5ED9E";
paths = (
{
closed = 1;
nodes = (
"1032 0 LINE",
"1032 196 LINE",
"750 196 LINE",
"750 1394 LINE",
"160 1296 LINE",
"160 1066 LINE",
"572 1142 LINE",
"484 1216 LINE",
"484 196 LINE",
"168 196 LINE",
"168 0 LINE"
);
}
);
width = 1198;
}
);
userData = {
RMXScaler = {
source = one;
};
};
},
{
glyphname = two.tf;
lastChange = "2022-05-07 02:24:03 +0000";
layers = (
{
layerId = "B61D43DE-5272-4FF4-A680-608B6BF5ED9E";
paths = (
{
closed = 1;
nodes = (
"440 378 OFFCURVE",
"566 420 OFFCURVE",
"736 528 CURVE SMOOTH",
"900 632 OFFCURVE",
"1060 774 OFFCURVE",
"1060 1030 CURVE SMOOTH",
"1060 1284 OFFCURVE",
"870 1428 OFFCURVE",
"622 1428 CURVE SMOOTH",
"350 1428 OFFCURVE",
"160 1256 OFFCURVE",
"128 1048 CURVE",
"332 948 LINE",
"350 1084 OFFCURVE",
"450 1198 OFFCURVE",
"602 1198 CURVE SMOOTH",
"734 1198 OFFCURVE",
"792 1110 OFFCURVE",
"792 1006 CURVE SMOOTH",
"792 792 OFFCURVE",
"590 706 OFFCURVE",
"452 618 CURVE SMOOTH",
"210 464 OFFCURVE",
"156 322 OFFCURVE",
"156 140 CURVE SMOOTH",
"156 82 OFFCURVE",
"162 42 OFFCURVE",
"170 0 CURVE",
"1068 0 LINE",
"1068 228 LINE",
"416 228 LINE"
);
}
);
width = 1198;
}
);
userData = {
RMXScaler = {
source = two.subs;
};
};
},
{
color = 3;
glyphname = three.tf;
lastChange = "2022-05-07 02:24:03 +0000";
layers = (
{
layerId = "B61D43DE-5272-4FF4-A680-608B6BF5ED9E";
paths = (
{
closed = 1;
nodes = (
"836 -30 OFFCURVE",
"1068 128 OFFCURVE",
"1068 392 CURVE SMOOTH",
"1068 560 OFFCURVE",
"966 724 OFFCURVE",
"796 724 CURVE",
"944 762 OFFCURVE",
"1028 918 OFFCURVE",
"1028 1070 CURVE SMOOTH",
"1028 1298 OFFCURVE",
"852 1428 OFFCURVE",
"576 1428 CURVE SMOOTH",
"408 1428 OFFCURVE",
"232 1374 OFFCURVE",
"150 1302 CURVE",
"230 1092 LINE",
"302 1172 OFFCURVE",
"444 1214 OFFCURVE",
"522 1214 CURVE SMOOTH",
"666 1214 OFFCURVE",
"752 1162 OFFCURVE",
"752 1030 CURVE SMOOTH",
"752 908 OFFCURVE",
"670 818 OFFCURVE",
"506 818 CURVE SMOOTH",
"398 818 LINE",
"398 624 LINE",
"482 624 LINE SMOOTH",
"636 624 OFFCURVE",
"794 592 OFFCURVE",
"794 422 CURVE SMOOTH",
"794 294 OFFCURVE",
"708 194 OFFCURVE",
"528 194 CURVE SMOOTH",
"422 194 OFFCURVE",
"300 240 OFFCURVE",
"224 314 CURVE",
"140 86 LINE",
"252 6 OFFCURVE",
"398 -30 OFFCURVE",
"550 -30 CURVE SMOOTH"
);
}
);
width = 1198;
}
);
userData = {
RMXScaler = {
source = three.subs;
};
};
},
{
glyphname = four.tf;
lastChange = "2022-05-07 02:24:03 +0000";
layers = (
{
layerId = "B61D43DE-5272-4FF4-A680-608B6BF5ED9E";
paths = (
{
closed = 1;
nodes = (
"1146 252 LINE",
"1146 478 LINE",
"410 478 LINE",
"758 1394 LINE",
"480 1394 LINE",
"44 252 LINE"
);
},
{
closed = 1;
nodes = (
"952 0 LINE",
"952 876 LINE",
"722 876 LINE",
"692 316 LINE",
"692 0 LINE"
);
}
);
width = 1198;
}
);
userData = {
RMXScaler = {
source = four.subs;
};
};
},
{
glyphname = five.tf;
lastChange = "2022-05-07 02:24:03 +0000";
layers = (
{
layerId = "B61D43DE-5272-4FF4-A680-608B6BF5ED9E";
paths = (
{
closed = 1;
nodes = (
"866 -26 OFFCURVE",
"1090 166 OFFCURVE",
"1090 478 CURVE SMOOTH",
"1090 740 OFFCURVE",
"940 908 OFFCURVE",
"658 908 CURVE SMOOTH",
"586 908 OFFCURVE",
"508 902 OFFCURVE",
"446 884 CURVE",
"466 1182 LINE",
"1036 1182 LINE",
"1036 1394 LINE",
"238 1394 LINE",
"212 648 LINE",
"254 674 OFFCURVE",
"404 712 OFFCURVE",
"516 712 CURVE SMOOTH",
"710 712 OFFCURVE",
"820 610 OFFCURVE",
"820 452 CURVE SMOOTH",
"820 214 OFFCURVE",
"634 192 OFFCURVE",
"506 192 CURVE SMOOTH",
"412 192 OFFCURVE",
"282 234 OFFCURVE",
"224 288 CURVE",
"150 64 LINE",
"248 -2 OFFCURVE",
"418 -26 OFFCURVE",
"540 -26 CURVE SMOOTH"
);
}
);
width = 1198;
}
);
userData = {
RMXScaler = {
source = five.subs;
};
};
},
{
glyphname = six.tf;
lastChange = "2022-05-07 02:24:03 +0000";
layers = (
{
layerId = "B61D43DE-5272-4FF4-A680-608B6BF5ED9E";
paths = (
{
closed = 1;
nodes = (
"918 -30 OFFCURVE",
"1110 170 OFFCURVE",
"1110 478 CURVE SMOOTH",
"1110 720 OFFCURVE",
"968 914 OFFCURVE",
"698 914 CURVE SMOOTH",
"552 914 OFFCURVE",
"408 854 OFFCURVE",
"336 716 CURVE",
"336 738 OFFCURVE",
"336 762 OFFCURVE",
"338 790 CURVE SMOOTH",
"352 996 OFFCURVE",
"484 1210 OFFCURVE",
"692 1210 CURVE SMOOTH",
"766 1210 OFFCURVE",
"868 1192 OFFCURVE",
"922 1134 CURVE",
"1020 1326 LINE",
"956 1388 OFFCURVE",
"866 1428 OFFCURVE",
"678 1428 CURVE SMOOTH",
"326 1428 OFFCURVE",
"74 1140 OFFCURVE",
"74 672 CURVE SMOOTH",
"74 146 OFFCURVE",
"372 -30 OFFCURVE",
"610 -30 CURVE SMOOTH"
);
},
{
closed = 1;
nodes = (
"472 176 OFFCURVE",
"366 328 OFFCURVE",
"366 472 CURVE",
"374 602 OFFCURVE",
"490 710 OFFCURVE",
"638 710 CURVE SMOOTH",
"782 710 OFFCURVE",
"850 606 OFFCURVE",
"850 450 CURVE SMOOTH",
"850 278 OFFCURVE",
"742 176 OFFCURVE",
"616 176 CURVE SMOOTH"
);
}
);
width = 1198;
}
);
userData = {
RMXScaler = {
source = six.subs;
};
};
},
{
glyphname = seven.tf;
lastChange = "2022-05-07 02:24:03 +0000";
layers = (
{
layerId = "B61D43DE-5272-4FF4-A680-608B6BF5ED9E";
paths = (
{
closed = 1;
nodes = (
"628 0 LINE",
"1144 1394 LINE",
"110 1394 LINE",
"110 1158 LINE",
"958 1158 LINE",
"856 1294 LINE",
"338 0 LINE"
);
}
);
width = 1198;
}
);
userData = {
RMXScaler = {
source = seven.subs;
};
};
},
{
glyphname = eight.tf;
lastChange = "2022-05-07 02:24:03 +0000";
layers = (
{
layerId = "B61D43DE-5272-4FF4-A680-608B6BF5ED9E";
paths = (
{
closed = 1;
nodes = (
"850 -36 OFFCURVE",
"1102 80 OFFCURVE",
"1102 382 CURVE SMOOTH",
"1102 588 OFFCURVE",
"950 698 OFFCURVE",
"748 736 CURVE",
"756 700 LINE",
"922 746 OFFCURVE",
"1048 866 OFFCURVE",
"1048 1066 CURVE SMOOTH",
"1048 1330 OFFCURVE",
"832 1428 OFFCURVE",
"602 1428 CURVE SMOOTH",
"370 1428 OFFCURVE",
"150 1330 OFFCURVE",
"150 1066 CURVE SMOOTH",
"150 864 OFFCURVE",
"268 746 OFFCURVE",
"440 700 CURVE",
"446 736 LINE",
"246 698 OFFCURVE",
"96 588 OFFCURVE",
"96 382 CURVE SMOOTH",
"96 80 OFFCURVE",
"348 -36 OFFCURVE",
"600 -36 CURVE SMOOTH"
);
},
{
closed = 1;
nodes = (
"446 166 OFFCURVE",
"372 238 OFFCURVE",
"372 386 CURVE SMOOTH",
"372 566 OFFCURVE",
"484 620 OFFCURVE",
"600 620 CURVE SMOOTH",
"714 620 OFFCURVE",
"824 566 OFFCURVE",
"824 386 CURVE SMOOTH",
"824 238 OFFCURVE",
"752 166 OFFCURVE",
"600 166 CURVE SMOOTH"
);
},
{
closed = 1;
nodes = (
"480 824 OFFCURVE",
"406 904 OFFCURVE",
"406 1048 CURVE SMOOTH",
"406 1178 OFFCURVE",
"468 1244 OFFCURVE",
"604 1244 CURVE SMOOTH",
"738 1244 OFFCURVE",
"794 1178 OFFCURVE",
"794 1048 CURVE SMOOTH",
"794 902 OFFCURVE",
"728 824 OFFCURVE",
"604 824 CURVE SMOOTH"
);
}
);
width = 1198;
}
);
userData = {
RMXScaler = {
source = eight.subs;
};
};
},
{
glyphname = nine.tf;
lastChange = "2022-05-07 02:24:03 +0000";
layers = (
{
layerId = "B61D43DE-5272-4FF4-A680-608B6BF5ED9E";
paths = (
{
closed = 1;
nodes = (
"854 -30 OFFCURVE",
"1102 258 OFFCURVE",
"1102 726 CURVE SMOOTH",
"1102 1252 OFFCURVE",
"826 1428 OFFCURVE",
"588 1428 CURVE SMOOTH",
"286 1428 OFFCURVE",
"72 1232 OFFCURVE",
"72 924 CURVE SMOOTH",
"72 682 OFFCURVE",
"218 484 OFFCURVE",
"482 484 CURVE SMOOTH",
"628 484 OFFCURVE",
"766 544 OFFCURVE",
"838 682 CURVE",
"838 660 OFFCURVE",
"836 636 OFFCURVE",
"836 608 CURVE SMOOTH",
"836 366 OFFCURVE",
"696 196 OFFCURVE",
"488 196 CURVE SMOOTH",
"420 196 OFFCURVE",
"318 214 OFFCURVE",
"264 272 CURVE",
"166 72 LINE",
"230 10 OFFCURVE",
"320 -30 OFFCURVE",
"502 -30 CURVE SMOOTH"
);
},
{
closed = 1;
nodes = (
"410 688 OFFCURVE",
"336 792 OFFCURVE",
"336 948 CURVE SMOOTH",
"336 1120 OFFCURVE",
"456 1222 OFFCURVE",
"582 1222 CURVE SMOOTH",
"706 1222 OFFCURVE",
"790 1120 OFFCURVE",
"800 992 CURVE SMOOTH",
"802 968 OFFCURVE",
"808 946 OFFCURVE",
"808 926 CURVE",
"800 796 OFFCURVE",
"680 688 OFFCURVE",
"548 688 CURVE SMOOTH"
);
}
);
width = 1198;
}
);
userData = {
RMXScaler = {
source = nine.subs;
};
};
},
{
glyphname = zero.tf.zero;
lastChange = "2022-05-07 02:24:03 +0000";
layers = (
{
components = (
{
name = zero.tf;
}
);
layerId = "B61D43DE-5272-4FF4-A680-608B6BF5ED9E";
paths = (
{
closed = 1;
nodes = (
"496 178 LINE",
"848 1218 LINE",
"690 1218 LINE",
"338 178 LINE"
);
}
);
width = 1198;
}
);
userData = {
RMXScaler = {
source = zero.tf;
};
};
},
{
glyphname = zero.tosf;
lastChange = "2022-05-07 02:24:03 +0000";
layers = (
{
layerId = "B61D43DE-5272-4FF4-A680-608B6BF5ED9E";
paths = (
{
closed = 1;
nodes = (
"944 -36 OFFCURVE",
"1096 266 OFFCURVE",
"1096 606 CURVE SMOOTH",
"1096 1026 OFFCURVE",
"906 1264 OFFCURVE",
"584 1264 CURVE SMOOTH",
"262 1264 OFFCURVE",
"68 1026 OFFCURVE",
"68 606 CURVE SMOOTH",
"68 266 OFFCURVE",
"216 -36 OFFCURVE",
"580 -36 CURVE SMOOTH"
);
},
{
closed = 1;
nodes = (
"408 178 OFFCURVE",
"348 404 OFFCURVE",
"348 608 CURVE SMOOTH",
"348 848 OFFCURVE",
"414 1054 OFFCURVE",
"584 1054 CURVE SMOOTH",
"752 1054 OFFCURVE",
"816 916 OFFCURVE",
"816 608 CURVE SMOOTH",
"816 404 OFFCURVE",
"752 178 OFFCURVE",
"580 178 CURVE SMOOTH"
);
}
);
width = 1164;
}
);
userData = {
RMXScaler = {
source = zero;
};
};
},
{
glyphname = one.tosf;
lastChange = "2022-05-07 02:24:03 +0000";
layers = (
{
layerId = "B61D43DE-5272-4FF4-A680-608B6BF5ED9E";
paths = (
{
closed = 1;
nodes = (
"1036 0 LINE",
"1036 196 LINE",
"682 196 LINE",
"772 106 LINE",
"772 1264 LINE",
"188 1178 LINE",
"188 948 LINE",
"590 1022 LINE",
"502 1088 LINE",
"502 106 LINE",
"592 196 LINE",
"168 196 LINE",
"168 0 LINE"
);
}
);
width = 1198;
}
);
userData = {
RMXScaler = {
source = one;
};
};
},
{
glyphname = two.tosf;
lastChange = "2022-05-07 02:24:03 +0000";
layers = (
{
layerId = "B61D43DE-5272-4FF4-A680-608B6BF5ED9E";
paths = (
{
closed = 1;
nodes = (
"442 292 OFFCURVE",
"542 336 OFFCURVE",
"692 430 CURVE SMOOTH",
"856 534 OFFCURVE",
"1016 696 OFFCURVE",
"1016 866 CURVE SMOOTH",
"1016 1120 OFFCURVE",
"822 1264 OFFCURVE",
"574 1264 CURVE SMOOTH",
"302 1264 OFFCURVE",
"118 1092 OFFCURVE",
"86 884 CURVE",
"290 784 LINE",
"308 920 OFFCURVE",
"410 1034 OFFCURVE",
"562 1034 CURVE SMOOTH",
"686 1034 OFFCURVE",
"748 970 OFFCURVE",
"748 866 CURVE SMOOTH",
"748 720 OFFCURVE",
"546 608 OFFCURVE",
"408 520 CURVE SMOOTH",
"166 366 OFFCURVE",
"112 250 OFFCURVE",
"112 140 CURVE SMOOTH",
"112 82 OFFCURVE",
"118 42 OFFCURVE",
"126 0 CURVE",
"1024 0 LINE",
"1024 228 LINE",
"404 228 LINE"
);
}
);
width = 1198;
}
);
userData = {
RMXScaler = {
source = two;
};
};
},
{
glyphname = three.tosf;
lastChange = "2022-05-07 02:24:03 +0000";
layers = (
{
layerId = "B61D43DE-5272-4FF4-A680-608B6BF5ED9E";
paths = (
{
closed = 1;
nodes = (
"836 -194 OFFCURVE",
"1068 -36 OFFCURVE",
"1068 228 CURVE SMOOTH",
"1068 396 OFFCURVE",
"966 560 OFFCURVE",
"796 560 CURVE",
"944 598 OFFCURVE",
"1028 754 OFFCURVE",
"1028 906 CURVE SMOOTH",
"1028 1134 OFFCURVE",
"852 1264 OFFCURVE",
"576 1264 CURVE SMOOTH",
"408 1264 OFFCURVE",
"232 1210 OFFCURVE",
"150 1138 CURVE",
"230 928 LINE",
"302 1008 OFFCURVE",
"444 1050 OFFCURVE",
"522 1050 CURVE SMOOTH",
"666 1050 OFFCURVE",
"752 998 OFFCURVE",
"752 866 CURVE SMOOTH",
"752 744 OFFCURVE",
"670 654 OFFCURVE",
"506 654 CURVE",
"398 654 LINE",
"398 460 LINE",
"482 460 LINE",
"636 460 OFFCURVE",
"794 428 OFFCURVE",
"794 258 CURVE SMOOTH",
"794 130 OFFCURVE",
"708 30 OFFCURVE",
"528 30 CURVE SMOOTH",
"422 30 OFFCURVE",
"300 76 OFFCURVE",
"224 150 CURVE",
"140 -78 LINE",
"252 -158 OFFCURVE",
"398 -194 OFFCURVE",
"550 -194 CURVE SMOOTH"
);
}
);
width = 1198;
}
);
userData = {
RMXScaler = {
source = three;
};
};
},
{
glyphname = four.tosf;
lastChange = "2022-05-07 02:24:03 +0000";
layers = (
{
layerId = "B61D43DE-5272-4FF4-A680-608B6BF5ED9E";
paths = (
{
closed = 1;
nodes = (
"1146 252 LINE",
"1146 474 LINE",
"410 474 LINE",
"758 1520 LINE",
"480 1520 LINE",
"44 252 LINE"
);
},
{
closed = 1;
nodes = (
"952 0 LINE",
"952 876 LINE",
"706 876 LINE",
"686 316 LINE",
"686 0 LINE"
);
}
);
width = 1198;
}
);
userData = {
RMXScaler = {
source = four;
};
};
},
{
glyphname = five.tosf;
lastChange = "2022-05-07 02:24:03 +0000";
layers = (
{
layerId = "B61D43DE-5272-4FF4-A680-608B6BF5ED9E";
paths = (
{
closed = 1;
nodes = (
"854 -188 OFFCURVE",
"1078 4 OFFCURVE",
"1078 316 CURVE SMOOTH",
"1078 578 OFFCURVE",
"928 746 OFFCURVE",
"646 746 CURVE SMOOTH",
"574 746 OFFCURVE",
"516 740 OFFCURVE",
"454 722 CURVE",
"474 1020 LINE",
"1018 1020 LINE",
"1018 1232 LINE",
"246 1232 LINE",
"220 486 LINE",
"262 512 OFFCURVE",
"392 550 OFFCURVE",
"504 550 CURVE SMOOTH",
"698 550 OFFCURVE",
"808 448 OFFCURVE",
"808 290 CURVE SMOOTH",
"808 52 OFFCURVE",
"622 30 OFFCURVE",
"494 30 CURVE SMOOTH",
"400 30 OFFCURVE",
"290 72 OFFCURVE",
"232 126 CURVE",
"158 -98 LINE",
"256 -164 OFFCURVE",
"406 -188 OFFCURVE",
"528 -188 CURVE SMOOTH"
);
}
);
width = 1198;
}
);
userData = {
RMXScaler = {
source = five;
};
};
},
{
glyphname = six.tosf;
lastChange = "2022-05-07 02:24:03 +0000";
layers = (
{
layerId = "B61D43DE-5272-4FF4-A680-608B6BF5ED9E";
paths = (
{
closed = 1;
nodes = (
"914 -30 OFFCURVE",
"1102 170 OFFCURVE",
"1102 478 CURVE SMOOTH",
"1102 720 OFFCURVE",
"968 914 OFFCURVE",
"698 914 CURVE SMOOTH",
"552 914 OFFCURVE",
"416 854 OFFCURVE",
"344 716 CURVE",
"344 738 OFFCURVE",
"344 762 OFFCURVE",
"346 790 CURVE SMOOTH",
"360 996 OFFCURVE",
"484 1210 OFFCURVE",
"692 1210 CURVE SMOOTH",
"766 1210 OFFCURVE",
"868 1192 OFFCURVE",
"922 1134 CURVE",
"1020 1326 LINE",
"956 1388 OFFCURVE",
"866 1428 OFFCURVE",
"678 1428 CURVE SMOOTH",
"326 1428 OFFCURVE",
"90 1140 OFFCURVE",
"90 672 CURVE SMOOTH",
"90 146 OFFCURVE",
"334 -30 OFFCURVE",
"606 -30 CURVE SMOOTH"
);
},
{
closed = 1;
nodes = (
"466 176 OFFCURVE",
"366 324 OFFCURVE",
"366 482 CURVE",
"374 612 OFFCURVE",
"498 710 OFFCURVE",
"638 710 CURVE SMOOTH",
"782 710 OFFCURVE",
"850 606 OFFCURVE",
"850 450 CURVE SMOOTH",
"850 278 OFFCURVE",
"742 176 OFFCURVE",
"616 176 CURVE SMOOTH"
);
}
);
width = 1198;
}
);
userData = {
RMXScaler = {
source = six;
};
};
},
{
glyphname = seven.tosf;
lastChange = "2022-05-07 02:24:03 +0000";
layers = (
{
layerId = "B61D43DE-5272-4FF4-A680-608B6BF5ED9E";
paths = (
{
closed = 1;
nodes = (
"628 -162 LINE",
"1084 1232 LINE",
"170 1232 LINE",
"170 996 LINE",
"898 996 LINE",
"796 1132 LINE",
"338 -162 LINE"
);
}
);
width = 1198;
}
);
userData = {
RMXScaler = {
source = seven;
};
};
},
{
glyphname = eight.tosf;
lastChange = "2022-05-07 02:24:03 +0000";
layers = (
{
layerId = "B61D43DE-5272-4FF4-A680-608B6BF5ED9E";
paths = (
{
closed = 1;
nodes = (
"850 -36 OFFCURVE",
"1102 80 OFFCURVE",
"1102 382 CURVE SMOOTH",
"1102 588 OFFCURVE",
"950 698 OFFCURVE",
"748 736 CURVE",
"756 700 LINE",
"922 746 OFFCURVE",
"1048 866 OFFCURVE",
"1048 1066 CURVE SMOOTH",
"1048 1330 OFFCURVE",
"832 1428 OFFCURVE",
"602 1428 CURVE SMOOTH",
"370 1428 OFFCURVE",
"150 1330 OFFCURVE",
"150 1066 CURVE SMOOTH",
"150 864 OFFCURVE",
"268 746 OFFCURVE",
"440 700 CURVE",
"446 736 LINE",
"250 698 OFFCURVE",
"96 588 OFFCURVE",
"96 382 CURVE SMOOTH",
"96 80 OFFCURVE",
"348 -36 OFFCURVE",
"600 -36 CURVE SMOOTH"
);
},
{
closed = 1;
nodes = (
"446 166 OFFCURVE",
"376 238 OFFCURVE",
"376 386 CURVE SMOOTH",
"376 566 OFFCURVE",
"484 620 OFFCURVE",
"600 620 CURVE SMOOTH",
"714 620 OFFCURVE",
"820 566 OFFCURVE",
"820 386 CURVE SMOOTH",
"820 238 OFFCURVE",
"752 166 OFFCURVE",
"600 166 CURVE SMOOTH"
);
},
{
closed = 1;
nodes = (
"480 824 OFFCURVE",
"410 904 OFFCURVE",
"410 1048 CURVE SMOOTH",
"410 1178 OFFCURVE",
"468 1244 OFFCURVE",
"604 1244 CURVE SMOOTH",
"738 1244 OFFCURVE",
"790 1178 OFFCURVE",
"790 1048 CURVE SMOOTH",
"790 902 OFFCURVE",
"728 824 OFFCURVE",
"604 824 CURVE SMOOTH"
);
}
);
width = 1198;
}
);
userData = {
RMXScaler = {
source = eight;
};
};
},
{
glyphname = nine.tosf;
lastChange = "2022-05-07 02:24:03 +0000";
layers = (
{
layerId = "B61D43DE-5272-4FF4-A680-608B6BF5ED9E";
paths = (
{
closed = 1;
nodes = (
"854 -194 OFFCURVE",
"1088 94 OFFCURVE",
"1088 562 CURVE SMOOTH",
"1088 1088 OFFCURVE",
"838 1264 OFFCURVE",
"594 1264 CURVE SMOOTH",
"292 1264 OFFCURVE",
"86 1074 OFFCURVE",
"86 766 CURVE SMOOTH",
"86 524 OFFCURVE",
"224 320 OFFCURVE",
"482 320 CURVE SMOOTH",
"628 320 OFFCURVE",
"760 380 OFFCURVE",
"832 518 CURVE",
"832 496 OFFCURVE",
"830 472 OFFCURVE",
"830 444 CURVE SMOOTH",
"830 202 OFFCURVE",
"696 32 OFFCURVE",
"488 32 CURVE SMOOTH",
"420 32 OFFCURVE",
"324 50 OFFCURVE",
"270 108 CURVE",
"172 -92 LINE",
"236 -154 OFFCURVE",
"320 -194 OFFCURVE",
"502 -194 CURVE SMOOTH"
);
},
{
closed = 1;
nodes = (
"410 524 OFFCURVE",
"350 634 OFFCURVE",
"350 790 CURVE SMOOTH",
"350 962 OFFCURVE",
"456 1058 OFFCURVE",
"582 1058 CURVE SMOOTH",
"706 1058 OFFCURVE",
"788 970 OFFCURVE",
"802 820 CURVE SMOOTH",
"804 796 OFFCURVE",
"810 774 OFFCURVE",
"810 754 CURVE",
"802 624 OFFCURVE",
"680 524 OFFCURVE",
"548 524 CURVE SMOOTH"
);
}
);
width = 1198;
}
);
userData = {
RMXScaler = {
source = nine;
};
};
},
{
glyphname = zero.tosf.zero;
lastChange = "2022-05-07 02:24:03 +0000";
layers = (
{
components = (
{
name = zero.tosf;
transform = "{1, 0, 0, 1, -4, 0}";
}
);
layerId = "B61D43DE-5272-4FF4-A680-608B6BF5ED9E";
paths = (
{
closed = 1;
nodes = (
"474 178 LINE",
"826 1050 LINE",
"668 1050 LINE",
"316 178 LINE"
);
}
);
width = 1156;
}
);
},
{
color = 3;
glyphname = zeroinferior;
lastChange = "2019-10-28 18:28:25 +0000";
layers = (
{
layerId = "B61D43DE-5272-4FF4-A680-608B6BF5ED9E";
paths = (
{
closed = 1;
nodes = (
"798 -338 OFFCURVE",
"920 -128 OFFCURVE",
"920 170 CURVE SMOOTH",
"920 520 OFFCURVE",
"766 682 OFFCURVE",
"502 682 CURVE SMOOTH",
"238 682 OFFCURVE",
"84 520 OFFCURVE",
"84 170 CURVE SMOOTH",
"84 -128 OFFCURVE",
"206 -338 OFFCURVE",
"502 -338 CURVE SMOOTH"
);
},
{
closed = 1;
nodes = (
"354 -178 OFFCURVE",
"308 -32 OFFCURVE",
"308 172 CURVE SMOOTH",
"308 388 OFFCURVE",
"356 528 OFFCURVE",
"496 528 CURVE SMOOTH",
"632 528 OFFCURVE",
"684 388 OFFCURVE",
"684 172 CURVE SMOOTH",
"684 -32 OFFCURVE",
"636 -178 OFFCURVE",
"496 -178 CURVE SMOOTH"
);
}
);
width = 1004;
}
);
leftKerningGroup = zero.numr;
rightKerningGroup = zero.numr;
unicode = 2080;
},
{
color = 3;
glyphname = oneinferior;
lastChange = "2019-10-28 18:28:25 +0000";
layers = (
{
layerId = "B61D43DE-5272-4FF4-A680-608B6BF5ED9E";
paths = (
{
closed = 1;
nodes = (
"386 -318 LINE",
"386 690 LINE",
"164 636 LINE",
"164 -318 LINE"
);
}
);
width = 550;
}
);
leftKerningGroup = one.numr;
rightKerningGroup = one.numr;
unicode = 2081;
},
